<?xml version="1.0" encoding="UTF-8"?>
<svg version="1.1" xmlns="http://www.w3.org/2000/svg" width="228" height="234">
<path d="M0 0 C75.24 0 150.48 0 228 0 C228 77.22 228 154.44 228 234 C152.76 234 77.52 234 0 234 C0 156.78 0 79.56 0 0 Z " fill="#FEFEFE" transform="translate(0,0)"/>
<path d="M0 0 C0 0.99 0 1.98 0 3 C1.65 3.33 3.3 3.66 5 4 C3.68 5.98 2.36 7.96 1 10 C1.88042969 10.18175781 2.76085937 10.36351563 3.66796875 10.55078125 C4.82941406 10.80214844 5.99085938 11.05351563 7.1875 11.3125 C8.33605469 11.55613281 9.48460937 11.79976562 10.66796875 12.05078125 C13.90887923 12.9740418 16.16458964 14.23027959 19 16 C21.32156597 16.40729228 23.6568787 16.74438677 26 17 C27.33333333 17.33333333 28.66666667 17.66666667 30 18 C30.99 18 31.98 18 33 18 C33 18.66 33 19.32 33 20 C32.34 20 31.68 20 31 20 C32.3089572 23.12197478 32.3089572 23.12197478 35 25 C38.00679941 34.68857587 37.52303839 43.92149761 33.12109375 53.015625 C31.67005781 55.58400917 29.97511632 57.81326407 28 60 C29.485 60.99 29.485 60.99 31 62 C31.33 61.67 31.66 61.34 32 61 C34.35313555 60.92728259 36.70833668 60.91629132 39.0625 60.9375 C40.99802734 60.95103516 40.99802734 60.95103516 42.97265625 60.96484375 C43.97167969 60.97644531 44.97070312 60.98804688 46 61 C46 60.34 46 59.68 46 59 C48.97 58.505 48.97 58.505 52 58 C52 58.66 52 59.32 52 60 C50.68 60 49.36 60 48 60 C48 60.99 48 61.98 48 63 C47.01 63 46.02 63 45 63 C45 64.32 45 65.64 45 67 C45.66 67 46.32 67 47 67 C47.33 69.97 47.66 72.94 48 76 C50.31 76.33 52.62 76.66 55 77 C55.33 75.68 55.66 74.36 56 73 C55.01 73 54.02 73 53 73 C53 71.02 53 69.04 53 67 C53.99 67 54.98 67 56 67 C56 65.68 56 64.36 56 63 C55.01 63 54.02 63 53 63 C53 61.02 53 59.04 53 57 C53.66 57 54.32 57 55 57 C55 58.32 55 59.64 55 61 C55.99 61 56.98 61 58 61 C58 63.64 58 66.28 58 69 C56.68 69 55.36 69 54 69 C54.33 69.66 54.66 70.32 55 71 C55.99 71 56.98 71 58 71 C57.125 77.875 57.125 77.875 56 79 C48.86632826 79.46023689 48.86632826 79.46023689 46 77.9375 C44.47309585 74.97912322 44.81531128 72.26283401 45 69 C43.68 69 42.36 69 41 69 C41 72.3 41 75.6 41 79 C23.33333333 79 5.66666667 79 -12 79 C-12.33 78.34 -12.66 77.68 -13 77 C-13.99 77.66 -14.98 78.32 -16 79 C-19.13671875 79.4140625 -19.13671875 79.4140625 -22.6875 79.625 C-23.86699219 79.69976562 -25.04648438 79.77453125 -26.26171875 79.8515625 C-27.16535156 79.90054688 -28.06898437 79.94953125 -29 80 C-29 79.34 -29 78.68 -29 78 C-29.78274292 78.24339111 -29.78274292 78.24339111 -30.58129883 78.49169922 C-33.66046398 79.13879943 -36.55226854 79.12982374 -39.69921875 79.1328125 C-41.63571289 79.13474609 -41.63571289 79.13474609 -43.61132812 79.13671875 C-44.2797876 79.13462402 -44.94824707 79.1325293 -45.63696289 79.13037109 C-47.69099215 79.12499085 -49.74480539 79.13034208 -51.79882812 79.13671875 C-53.72952148 79.13478516 -53.72952148 79.13478516 -55.69921875 79.1328125 C-57.47558716 79.13112061 -57.47558716 79.13112061 -59.2878418 79.12939453 C-62 79 -62 79 -63 78 C-63.99 78.495 -63.99 78.495 -65 79 C-67.71975715 79.07187519 -70.40674632 79.0927862 -73.125 79.0625 C-75.72375 79.041875 -78.3225 79.02125 -81 79 C-81 71.41 -81 63.82 -81 56 C-77.4421875 55.9071875 -77.4421875 55.9071875 -73.8125 55.8125 C-72.70612183 55.77153198 -72.70612183 55.77153198 -71.57739258 55.72973633 C-67.1640328 55.67430858 -64.54122741 56.38017933 -61 59 C-60.236875 58.01 -59.47375 57.02 -58.6875 56 C-57.38671875 54.3125 -57.38671875 54.3125 -56 53 C-55.01 53 -54.02 53 -53 53 C-53.34444881 50.52733235 -53.34444881 50.52733235 -54 48 C-54.66 47.67 -55.32 47.34 -56 47 C-55.01 46.505 -55.01 46.505 -54 46 C-53.9175 44.865625 -53.835 43.73125 -53.75 42.5625 C-52.78217913 33.54563557 -46.7079002 27.20458601 -40.05078125 21.59375 C-38.41926064 20.32582541 -36.7192447 19.14616313 -35 18 C-34.46375 17.030625 -33.9275 16.06125 -33.375 15.0625 C-33.01921875 14.4540625 -32.6634375 13.845625 -32.296875 13.21875 C-31.31604257 11.54069934 -30.39972265 9.82472014 -29.515625 8.09375 C-22.49186749 -3.16748104 -11.84620162 -1.10186473 0 0 Z " fill="#F1FAF9" transform="translate(126,78)"/>
<path d="M0 0 C0 0.99 0 1.98 0 3 C1.65 3.33 3.3 3.66 5 4 C3.68 5.98 2.36 7.96 1 10 C3.31 10.66 5.62 11.32 8 12 C11.58165209 35.78877436 11.58165209 35.78877436 11 46 C7.71142236 47.20313816 4.8037259 48.02328676 1.3125 48.4375 C-2.24709638 49.04195976 -2.70215986 49.4932653 -5 52 C-8.68873044 53.09664959 -12.17782416 53 -16 53 C-16.33 53.33 -16.66 53.66 -17 54 C-19.4375 54.1875 -19.4375 54.1875 -22 54 C-24.41767182 51.58232818 -24.39756391 50.51493723 -24.875 47.1875 C-25.81012913 41.48622883 -27.40763572 36.13933707 -29.1953125 30.65234375 C-30 28 -30 28 -30 26 C-38.13436284 30.64820734 -43.61857973 36.1395354 -46.75390625 45.171875 C-47.17575795 46.77956178 -47.58882139 48.38955044 -48 50 C-48.99 50.495 -48.99 50.495 -50 51 C-50 52.32 -50 53.64 -50 55 C-52.31 55.66 -54.62 56.32 -57 57 C-57 58.32 -57 59.64 -57 61 C-56.0925 60.54625 -55.185 60.0925 -54.25 59.625 C-51.83333333 58.41666667 -49.41666667 57.20833333 -47 56 C-46.505 58.475 -46.505 58.475 -46 61 C-45.32453125 60.95359375 -44.6490625 60.9071875 -43.953125 60.859375 C-42.61507812 60.80523437 -42.61507812 60.80523437 -41.25 60.75 C-40.36828125 60.70359375 -39.4865625 60.6571875 -38.578125 60.609375 C-35.08264733 61.13899283 -34.11161796 62.18714843 -32 65 C-31.828125 68.453125 -31.828125 68.453125 -32.25 72.25 C-32.37890625 73.51328125 -32.5078125 74.7765625 -32.640625 76.078125 C-32.75921875 77.04234375 -32.8778125 78.0065625 -33 79 C-37.1117256 79.02465746 -41.22342278 79.04283959 -45.33520508 79.05493164 C-46.73495228 79.0599708 -48.1346942 79.06680216 -49.53442383 79.07543945 C-51.54245777 79.0875232 -53.55052957 79.09269807 -55.55859375 79.09765625 C-56.76829834 79.10289307 -57.97800293 79.10812988 -59.22436523 79.11352539 C-62 79 -62 79 -63 78 C-63.99 78.495 -63.99 78.495 -65 79 C-67.71975715 79.07187519 -70.40674632 79.0927862 -73.125 79.0625 C-75.72375 79.041875 -78.3225 79.02125 -81 79 C-81 71.41 -81 63.82 -81 56 C-77.4421875 55.9071875 -77.4421875 55.9071875 -73.8125 55.8125 C-72.70612183 55.77153198 -72.70612183 55.77153198 -71.57739258 55.72973633 C-67.1640328 55.67430858 -64.54122741 56.38017933 -61 59 C-60.236875 58.01 -59.47375 57.02 -58.6875 56 C-57.38671875 54.3125 -57.38671875 54.3125 -56 53 C-55.01 53 -54.02 53 -53 53 C-53.34444881 50.52733235 -53.34444881 50.52733235 -54 48 C-54.66 47.67 -55.32 47.34 -56 47 C-55.01 46.505 -55.01 46.505 -54 46 C-53.9175 44.865625 -53.835 43.73125 -53.75 42.5625 C-52.78217913 33.54563557 -46.7079002 27.20458601 -40.05078125 21.59375 C-38.41926064 20.32582541 -36.7192447 19.14616313 -35 18 C-34.46375 17.030625 -33.9275 16.06125 -33.375 15.0625 C-33.01921875 14.4540625 -32.6634375 13.845625 -32.296875 13.21875 C-31.31604257 11.54069934 -30.39972265 9.82472014 -29.515625 8.09375 C-22.49186749 -3.16748104 -11.84620162 -1.10186473 0 0 Z " fill="#05221A" transform="translate(126,78)"/>
<path d="M0 0 C5.78547368 3.418689 8.74445709 6.8910366 11.3125 13.25 C12.83089201 21.53213824 11.11160624 28.7223137 7 36 C4.75 39.0625 4.75 39.0625 3 41 C3.99 41.66 4.98 42.32 6 43 C6.33 42.67 6.66 42.34 7 42 C9.35313555 41.92728259 11.70833668 41.91629132 14.0625 41.9375 C15.99802734 41.95103516 15.99802734 41.95103516 17.97265625 41.96484375 C18.97167969 41.97644531 19.97070312 41.98804688 21 42 C21 41.34 21 40.68 21 40 C22.98 39.67 24.96 39.34 27 39 C27 39.66 27 40.32 27 41 C25.68 41 24.36 41 23 41 C23 41.99 23 42.98 23 44 C22.01 44 21.02 44 20 44 C20 45.32 20 46.64 20 48 C20.66 48 21.32 48 22 48 C22.495 52.455 22.495 52.455 23 57 C25.31 57.33 27.62 57.66 30 58 C30.33 56.68 30.66 55.36 31 54 C30.01 54 29.02 54 28 54 C28 52.02 28 50.04 28 48 C28.99 48 29.98 48 31 48 C31 46.68 31 45.36 31 44 C30.01 44 29.02 44 28 44 C28 42.02 28 40.04 28 38 C28.66 38 29.32 38 30 38 C30 39.32 30 40.64 30 42 C30.99 42 31.98 42 33 42 C33 44.64 33 47.28 33 50 C31.68 50 30.36 50 29 50 C29.33 50.66 29.66 51.32 30 52 C30.99 52 31.98 52 33 52 C32.125 58.875 32.125 58.875 31 60 C23.86632826 60.46023689 23.86632826 60.46023689 21 58.9375 C19.47309585 55.97912322 19.81531128 53.26283401 20 50 C18.68 50 17.36 50 16 50 C16 53.3 16 56.6 16 60 C-1.66666667 60 -19.33333333 60 -37 60 C-37.33 59.34 -37.66 58.68 -38 58 C-38.99 58.66 -39.98 59.32 -41 60 C-43.41015625 60.23046875 -43.41015625 60.23046875 -46.0625 60.1875 C-46.94035156 60.18105469 -47.81820312 60.17460937 -48.72265625 60.16796875 C-51 60 -51 60 -53 59 C-53 56.36 -53 53.72 -53 51 C-51.35 51 -49.7 51 -48 51 C-48.66 50.46375 -49.32 49.9275 -50 49.375 C-52 47 -52 47 -52.5625 44 C-52 41 -52 41 -50 38.625 C-46.00223382 36.45954332 -43.49937346 36.69495773 -39 37 C-39.33 37.66 -39.66 38.32 -40 39 C-42.06640625 39.6328125 -42.06640625 39.6328125 -44.5625 40.125 C-45.80193359 40.37636719 -45.80193359 40.37636719 -47.06640625 40.6328125 C-47.70449219 40.75398438 -48.34257813 40.87515625 -49 41 C-49 43.64 -49 46.28 -49 49 C-48.360625 49.268125 -47.72125 49.53625 -47.0625 49.8125 C-45 51 -45 51 -44 54 C-45.98 54 -47.96 54 -50 54 C-50.33 55.32 -50.66 56.64 -51 58 C-45.06 57.505 -45.06 57.505 -39 57 C-38.31889606 51.12043479 -38.31889606 51.12043479 -41.5 48.3125 C-42.325 47.549375 -43.15 46.78625 -44 46 C-44 45.01 -44 44.02 -44 43 C-42.35 43 -40.7 43 -39 43 C-38.67 41.35 -38.34 39.7 -38 38 C-37.34 38 -36.68 38 -36 38 C-36 39.32 -36 40.64 -36 42 C-33.33326258 42.02727345 -30.66681131 42.04696948 -28 42.0625 C-26.88431641 42.07506836 -26.88431641 42.07506836 -25.74609375 42.08789062 C-15.70200226 42.30088358 -15.70200226 42.30088358 -7 38 C-5.68 38 -4.36 38 -3 38 C-3.33 37.01 -3.66 36.02 -4 35 C-3.34 34.01 -2.68 33.02 -2 32 C-2.66 31.67 -3.32 31.34 -4 31 C-2.68 31 -1.36 31 0 31 C0.33 30.34 0.66 29.68 1 29 C1 29.66 1 30.32 1 31 C2.32 31 3.64 31 5 31 C5 30.01 5 29.02 5 28 C4.01 28 3.02 28 2 28 C2.144375 27.45472656 2.28875 26.90945312 2.4375 26.34765625 C4.51167685 17.92131279 5.36204207 11.34100982 0.875 3.62890625 C0 2 0 2 0 0 Z " fill="#0F2F54" transform="translate(151,97)"/>
<path d="M0 0 C0.721875 0.12375 1.44375 0.2475 2.1875 0.375 C2.5175 1.035 2.8475 1.695 3.1875 2.375 C0.8775 3.035 -1.4325 3.695 -3.8125 4.375 C-3.8125 5.695 -3.8125 7.015 -3.8125 8.375 C-2.905 7.92125 -1.9975 7.4675 -1.0625 7 C1.35416667 5.79166667 3.77083333 4.58333333 6.1875 3.375 C6.6825 5.85 6.6825 5.85 7.1875 8.375 C7.86296875 8.32859375 8.5384375 8.2821875 9.234375 8.234375 C10.12640625 8.19828125 11.0184375 8.1621875 11.9375 8.125 C12.81921875 8.07859375 13.7009375 8.0321875 14.609375 7.984375 C18.10485267 8.51399283 19.07588204 9.56214843 21.1875 12.375 C21.359375 15.828125 21.359375 15.828125 20.9375 19.625 C20.80859375 20.88828125 20.6796875 22.1515625 20.546875 23.453125 C20.42828125 24.41734375 20.3096875 25.3815625 20.1875 26.375 C16.0757744 26.39965746 11.96407722 26.41783959 7.85229492 26.42993164 C6.45254772 26.4349708 5.0528058 26.44180216 3.65307617 26.45043945 C1.64504223 26.4625232 -0.36302957 26.46769807 -2.37109375 26.47265625 C-3.58079834 26.47789307 -4.79050293 26.48312988 -6.03686523 26.48852539 C-8.8125 26.375 -8.8125 26.375 -9.8125 25.375 C-10.4725 25.705 -11.1325 26.035 -11.8125 26.375 C-14.53225715 26.44687519 -17.21924632 26.4677862 -19.9375 26.4375 C-22.53625 26.416875 -25.135 26.39625 -27.8125 26.375 C-27.8125 18.785 -27.8125 11.195 -27.8125 3.375 C-24.2546875 3.2821875 -24.2546875 3.2821875 -20.625 3.1875 C-19.51862183 3.14653198 -19.51862183 3.14653198 -18.38989258 3.10473633 C-13.9765328 3.04930858 -11.35372741 3.75517933 -7.8125 6.375 C-7.090625 5.385 -6.36875 4.395 -5.625 3.375 C-3.2029877 0.42706503 -3.2029877 0.42706503 0 0 Z " fill="#22363E" transform="translate(72.8125,130.625)"/>
<path d="M0 0 C0.66 0.99 1.32 1.98 2 3 C4.21932277 3.50776044 4.21932277 3.50776044 6.7890625 3.51171875 C7.73007813 3.54716797 8.67109375 3.58261719 9.640625 3.61914062 C10.62546875 3.64169922 11.6103125 3.66425781 12.625 3.6875 C14.11386719 3.73874023 14.11386719 3.73874023 15.6328125 3.79101562 C18.08842906 3.87365657 20.54368141 3.94275127 23 4 C23.32209443 5.41365768 23.64196974 6.82782106 23.9609375 8.2421875 C24.22849854 9.42337158 24.22849854 9.42337158 24.50146484 10.62841797 C25.83914424 16.99189383 26.14966487 23.38485689 26.3125 29.875 C26.36857422 31.78925781 26.36857422 31.78925781 26.42578125 33.7421875 C26 37 26 37 24.1875 38.91015625 C21.18129998 40.40788805 18.32550861 40.60544813 15 41 C12.69 41.66 10.38 42.32 8 43 C6.515 34.585 6.515 34.585 5 26 C4.34 26.66 3.68 27.32 3 28 C2.67 24.04 2.34 20.08 2 16 C-0.97 15.67 -3.94 15.34 -7 15 C-7 15.99 -7 16.98 -7 18 C-6.34 18 -5.68 18 -5 18 C-4.67 17.34 -4.34 16.68 -4 16 C-4 16.99 -4 17.98 -4 19 C-3.34 19 -2.68 19 -2 19 C-2.33 19.66 -2.66 20.32 -3 21 C-3.66 21 -4.32 21 -5 21 C-5 20.34 -5 19.68 -5 19 C-5.66 19.66 -6.32 20.32 -7 21 C-5.68 21.99 -4.36 22.98 -3 24 C-3.66 24 -4.32 24 -5 24 C-5.33 24.66 -5.66 25.32 -6 26 C-6.99 26 -7.98 26 -9 26 C-9.83764268 24.04350603 -10.66999059 22.08474444 -11.5 20.125 C-12.19609375 18.48917969 -12.19609375 18.48917969 -12.90625 16.8203125 C-14 14 -14 14 -14 12 C-11.8125 10.4921875 -11.8125 10.4921875 -9 8.875 C-8.071875 8.33617188 -7.14375 7.79734375 -6.1875 7.2421875 C-5.465625 6.83226563 -4.74375 6.42234375 -4 6 C-4.33 5.34 -4.66 4.68 -5 4 C-4.0409375 3.8453125 -4.0409375 3.8453125 -3.0625 3.6875 C-2.381875 3.460625 -1.70125 3.23375 -1 3 C-0.67 2.01 -0.34 1.02 0 0 Z " fill="#79AC2B" transform="translate(109,86)"/>
<path d="M0 0 C-0.33 0.66 -0.66 1.32 -1 2 C-3.06640625 2.6328125 -3.06640625 2.6328125 -5.5625 3.125 C-6.80193359 3.37636719 -6.80193359 3.37636719 -8.06640625 3.6328125 C-8.70449219 3.75398437 -9.34257813 3.87515625 -10 4 C-10 6.64 -10 9.28 -10 12 C-9.360625 12.268125 -8.72125 12.53625 -8.0625 12.8125 C-6 14 -6 14 -5 17 C-6.98 17 -8.96 17 -11 17 C-11.33 18.32 -11.66 19.64 -12 21 C-8.04 20.67 -4.08 20.34 0 20 C0.68110394 14.12043479 0.68110394 14.12043479 -2.5 11.3125 C-3.325 10.549375 -4.15 9.78625 -5 9 C-5 8.01 -5 7.02 -5 6 C-3.35 6 -1.7 6 0 6 C0.33 4.35 0.66 2.7 1 1 C1.66 1 2.32 1 3 1 C3 2.32 3 3.64 3 5 C3.68102783 4.98952637 4.36205566 4.97905273 5.0637207 4.96826172 C8.14660966 4.92671122 11.22943971 4.90067689 14.3125 4.875 C15.38435547 4.85824219 16.45621094 4.84148437 17.56054688 4.82421875 C18.58857422 4.81777344 19.61660156 4.81132812 20.67578125 4.8046875 C21.62364502 4.79421387 22.57150879 4.78374023 23.5480957 4.77294922 C26 5 26 5 29 7 C29.99 6.34 30.98 5.68 32 5 C34.73990408 5.03143293 37.28417854 5.55478337 40 6 C40 6.33 40 6.66 40 7 C37.36 7 34.72 7 32 7 C32.495 8.485 32.495 8.485 33 10 C34.98 10 36.96 10 39 10 C39 10.66 39 11.32 39 12 C38.44570312 12.18175781 37.89140625 12.36351562 37.3203125 12.55078125 C36.59585938 12.80214844 35.87140625 13.05351562 35.125 13.3125 C34.40570313 13.55613281 33.68640625 13.79976562 32.9453125 14.05078125 C30.66005095 14.96335547 30.66005095 14.96335547 29 18 C28.34 18 27.68 18 27 18 C27.01160156 17.36191406 27.02320313 16.72382813 27.03515625 16.06640625 C27.04417969 15.24011719 27.05320313 14.41382813 27.0625 13.5625 C27.07410156 12.73878906 27.08570313 11.91507813 27.09765625 11.06640625 C27.23267348 9.00836062 27.23267348 9.00836062 26 8 C24.00047242 7.95653201 21.99960012 7.960008 20 8 C14.65312184 8 9.32767645 7.42199417 4 7 C4 11.62 4 16.24 4 21 C5.65 21 7.3 21 9 21 C9.33 18.03 9.66 15.06 10 12 C10.99 11.67 11.98 11.34 13 11 C13 14.3 13 17.6 13 21 C14.65 21 16.3 21 18 21 C18 19.35 18 17.7 18 16 C18.309375 16.639375 18.61875 17.27875 18.9375 17.9375 C19.8345163 19.93610821 19.8345163 19.93610821 21 21 C22.34747084 21.23075082 23.70377565 21.41153063 25.0625 21.5625 C26.361875 21.706875 27.66125 21.85125 29 22 C29 22.33 29 22.66 29 23 C20.09 23 11.18 23 2 23 C1.67 22.34 1.34 21.68 1 21 C0.01 21.66 -0.98 22.32 -2 23 C-4.41015625 23.23046875 -4.41015625 23.23046875 -7.0625 23.1875 C-7.94035156 23.18105469 -8.81820312 23.17460937 -9.72265625 23.16796875 C-12 23 -12 23 -14 22 C-14 19.36 -14 16.72 -14 14 C-12.35 14 -10.7 14 -9 14 C-9.66 13.46375 -10.32 12.9275 -11 12.375 C-13 10 -13 10 -13.5625 7 C-13 4 -13 4 -11 1.625 C-7.00223382 -0.54045668 -4.49937346 -0.30504227 0 0 Z " fill="#103056" transform="translate(112,134)"/>
<path d="M0 0 C2.9375 1.625 2.9375 1.625 3.69921875 3.73046875 C4.02187088 5.35405427 4.29513048 6.98832205 4.515625 8.62890625 C4.65484375 9.28761719 4.7940625 9.94632813 4.9375 10.625 C5.5975 10.955 6.2575 11.285 6.9375 11.625 C7.5703125 14.171875 7.5703125 14.171875 8.0625 17.375 C8.23007813 18.42171875 8.39765625 19.4684375 8.5703125 20.546875 C8.89648328 23.2811577 9.00876854 25.87607058 8.9375 28.625 C10.5875 28.295 12.2375 27.965 13.9375 27.625 C13.6075 28.285 13.2775 28.945 12.9375 29.625 C9.24197383 30.68086462 5.75447692 30.625 1.9375 30.625 C1.6075 30.955 1.2775 31.285 0.9375 31.625 C-1.5 31.8125 -1.5 31.8125 -4.0625 31.625 C-6.73032556 28.95717444 -6.65860663 27.01895116 -7.1875 23.3125 C-7.35507813 22.18199219 -7.52265625 21.05148438 -7.6953125 19.88671875 C-8.01007121 17.09072381 -8.13626764 14.43343941 -8.0625 11.625 C-6.7425 10.965 -5.4225 10.305 -4.0625 9.625 C-5.0525 8.305 -6.0425 6.985 -7.0625 5.625 C-5.7425 5.625 -4.4225 5.625 -3.0625 5.625 C-3.0625 5.295 -3.0625 4.965 -3.0625 4.625 C-4.0525 4.295 -5.0425 3.965 -6.0625 3.625 C-6.0625 2.635 -6.0625 1.645 -6.0625 0.625 C-3.0625 -0.375 -3.0625 -0.375 0 0 Z " fill="#4C902A" transform="translate(108.0625,100.375)"/>
<path d="M0 0 C0.66 0 1.32 0 2 0 C2.33 1.65 2.66 3.3 3 5 C3.67546875 4.95359375 4.3509375 4.9071875 5.046875 4.859375 C12.27256982 4.56700585 12.27256982 4.56700585 15.625 6.5625 C17.46392977 9.82242096 17.28299062 12.32112194 17 16 C16.67 16 16.34 16 16 16 C15.67 17.65 15.34 19.3 15 21 C13.02 21 11.04 21 9 21 C8.67 18.03 8.34 15.06 8 12 C7.01 12.33 6.02 12.66 5 13 C4.67 15.64 4.34 18.28 4 21 C2.02 21 0.04 21 -2 21 C-1.95875 19.88625 -1.9175 18.7725 -1.875 17.625 C-1.58878141 13.95633975 -1.58878141 13.95633975 -4 12 C-4.33 14.97 -4.66 17.94 -5 21 C-6.98 21 -8.96 21 -11 21 C-11 16.05 -11 11.1 -11 6 C-8.72135417 5.0234375 -6.44270833 4.046875 -4.1640625 3.0703125 C-1.86197701 2.07553933 -1.86197701 2.07553933 0 0 Z " fill="#0E2736" transform="translate(77,134)"/>
<path d="M0 0 C2.27024968 -0.08097324 4.54132075 -0.13917704 6.8125 -0.1875 C8.07707031 -0.22230469 9.34164062 -0.25710937 10.64453125 -0.29296875 C14 0 14 0 15.96875 1.3515625 C17 3 17 3 16.6875 5.5625 C16.460625 6.366875 16.23375 7.17125 16 8 C16 8.66 16 9.32 16 10 C16.66 9.34 17.32 8.68 18 8 C17.39622642 15.36603774 17.39622642 15.36603774 15.90625 17.75 C12.94279413 19.69324975 10.29981926 19.28348126 6.8125 19.1875 C4.90404297 19.14689453 4.90404297 19.14689453 2.95703125 19.10546875 C1.98121094 19.07066406 1.00539062 19.03585938 0 19 C-0.95494281 12.42150508 -0.8931507 6.58183362 0 0 Z " fill="#C8DA8C" transform="translate(47,136)"/>
<path d="M0 0 C5.78547368 3.418689 8.74445709 6.8910366 11.3125 13.25 C12.83752537 21.56832021 11.08837196 28.68837233 7 36 C6.67386719 36.61359375 6.34773438 37.2271875 6.01171875 37.859375 C4.17037367 40.67161112 2.49442556 41.89524882 -0.765625 42.5859375 C-3.52272549 42.84750857 -6.23140067 42.99030263 -9 43 C-9.33 43.99 -9.66 44.98 -10 46 C-10.99 44.68 -11.98 43.36 -13 42 C-7.5 38 -7.5 38 -3 38 C-3.495 36.515 -3.495 36.515 -4 35 C-3.34 34.01 -2.68 33.02 -2 32 C-2.66 31.67 -3.32 31.34 -4 31 C-2.68 31 -1.36 31 0 31 C0.33 30.34 0.66 29.68 1 29 C1 29.66 1 30.32 1 31 C2.32 31 3.64 31 5 31 C5 30.01 5 29.02 5 28 C4.01 28 3.02 28 2 28 C2.144375 27.45472656 2.28875 26.90945312 2.4375 26.34765625 C4.51167685 17.92131279 5.36204207 11.34100982 0.875 3.62890625 C0 2 0 2 0 0 Z " fill="#18A1E3" transform="translate(151,97)"/>
<path d="M0 0 C2.625 0.375 2.625 0.375 5 1 C5.33 1.99 5.66 2.98 6 4 C5.67 4.33 5.34 4.66 5 5 C5.495 5.928125 5.99 6.85625 6.5 7.8125 C8 11 8 11 8 14 C8.66 14 9.32 14 10 14 C9.79375 13.05125 9.5875 12.1025 9.375 11.125 C9.25125 10.09375 9.1275 9.0625 9 8 C9.66 7.34 10.32 6.68 11 6 C13.125 6.375 13.125 6.375 15 7 C16.0257259 11.41062136 16.03684712 13.92630576 14 18 C14.66 17.67 15.32 17.34 16 17 C16.48259861 24.23897912 16.48259861 24.23897912 14.375 27.5625 C12 29 12 29 9 29.0625 C5.32754853 27.76184011 4.064459 26.25549303 2 23 C2 22.34 2 21.68 2 21 C2.66 21 3.32 21 4 21 C4.33 19.68 4.66 18.36 5 17 C4.360625 16.855625 3.72125 16.71125 3.0625 16.5625 C1 16 1 16 0 15 C-0.20912703 13.56806079 -0.36791979 12.12858946 -0.5 10.6875 C-0.72233243 8.28551568 -0.95634263 6.14422522 -1.65625 3.83203125 C-1.7696875 3.22746094 -1.883125 2.62289062 -2 2 C-1.34 1.34 -0.68 0.68 0 0 Z " fill="#BAD34F" transform="translate(117,92)"/>
<path d="M0 0 C0.66 0.99 1.32 1.98 2 3 C4.21932277 3.50776044 4.21932277 3.50776044 6.7890625 3.51171875 C7.73007813 3.54716797 8.67109375 3.58261719 9.640625 3.61914062 C10.62546875 3.64169922 11.6103125 3.66425781 12.625 3.6875 C14.11386719 3.73874023 14.11386719 3.73874023 15.6328125 3.79101562 C18.08842906 3.87365657 20.54368141 3.94275127 23 4 C23.32209443 5.41365768 23.64196974 6.82782106 23.9609375 8.2421875 C24.13931152 9.02964355 24.31768555 9.81709961 24.50146484 10.62841797 C26.3353775 19.35252549 26.10519457 28.12859163 26 37 C24.35 37.66 22.7 38.32 21 39 C20.67 38.34 20.34 37.68 20 37 C21.65 36.34 23.3 35.68 25 35 C25 34.34 25 33.68 25 33 C23.515 33.495 23.515 33.495 22 34 C22.33 33.01 22.66 32.02 23 31 C23.03954234 28.66700175 23.04401732 26.33291811 23 24 C22.34 24.33 21.68 24.66 21 25 C21.144375 24.46375 21.28875 23.9275 21.4375 23.375 C22.98302116 18.09784403 22.98302116 18.09784403 22 13 C20.68 13.33 19.36 13.66 18 14 C18 15.98 18 17.96 18 20 C17.34 20 16.68 20 16 20 C15.01 17.03 14.02 14.06 13 11 C12.34 11 11.68 11 11 11 C11.33 10.34 11.66 9.68 12 9 C12.66 9.33 13.32 9.66 14 10 C12.77190909 8.35444301 12.77190909 8.35444301 11 7 C8.8522367 6.99521963 8.8522367 6.99521963 7 8 C6.67 8.99 6.34 9.98 6 11 C6.66 11.33 7.32 11.66 8 12 C8.34375 13.9609375 8.34375 13.9609375 8.5 16.375 C8.72941463 19.89651464 8.95292864 20.92939296 11 24 C10.01 24 9.02 24 8 24 C8 23.34 8 22.68 8 22 C7.01 22.33 6.02 22.66 5 23 C4.60167969 21.53626953 4.60167969 21.53626953 4.1953125 20.04296875 C3.83882407 18.75773414 3.48203761 17.47258216 3.125 16.1875 C2.77695313 14.92292969 2.42890625 13.65835938 2.0703125 12.35546875 C1.14299705 8.91591287 1.14299705 8.91591287 -1 6 C-0.625 2.8125 -0.625 2.8125 0 0 Z " fill="#C3D77B" transform="translate(109,86)"/>
<path d="M0 0 C3.60654039 2.40436026 3.85452932 3.94679607 5 8 C3.9171875 8.61875 3.9171875 8.61875 2.8125 9.25 C-4.71039112 13.93091003 -9.95061913 20.17638325 -12.1875 28.9375 C-12.98853475 31.95678483 -13.47995321 33.21496686 -16 35 C-16.66 35 -17.32 35 -18 35 C-18.12375 34.195625 -18.2475 33.39125 -18.375 32.5625 C-18.58125 31.716875 -18.7875 30.87125 -19 30 C-19.66 29.67 -20.32 29.34 -21 29 C-20.34 28.67 -19.68 28.34 -19 28 C-18.9175 26.865625 -18.835 25.73125 -18.75 24.5625 C-17.78217913 15.54563557 -11.7079002 9.20458601 -5.05078125 3.59375 C-3.41926064 2.32582541 -1.7192447 1.14616313 0 0 Z " fill="#50A10B" transform="translate(91,96)"/>
<path d="M0 0 C7.49049482 2.08918563 13.87362231 4.36458008 17.9375 11.3125 C18.288125 12.199375 18.63875 13.08625 19 14 C15.93882432 16.62386487 15.26826873 17 11 17 C11 17.66 11 18.32 11 19 C9.35 19 7.7 19 6 19 C5.67 19.99 5.34 20.98 5 22 C6.32 22.33 7.64 22.66 9 23 C8.67 23.99 8.34 24.98 8 26 C7.01 26 6.02 26 5 26 C4.67 26.66 4.34 27.32 4 28 C2.03973454 25.0596018 1.69700145 24.10008832 1.3671875 20.76171875 C1.24150391 19.53098633 1.24150391 19.53098633 1.11328125 18.27539062 C1.03464844 17.42138672 0.95601562 16.56738281 0.875 15.6875 C0.74544922 14.42389648 0.74544922 14.42389648 0.61328125 13.13476562 C0.18022977 8.73894944 -0.10101256 4.42290689 0 0 Z " fill="#FBFDF0" transform="translate(135,96)"/>
<path d="M0 0 C5.33333333 0 10.66666667 0 16 0 C17.010625 -0.04125 18.02125 -0.0825 19.0625 -0.125 C22 0 22 0 24 2 C24.23600253 6.16937798 23.98329211 9.94392005 23 14 C21.35 14 19.7 14 18 14 C18 10.7 18 7.4 18 4 C17.01 4 16.02 4 15 4 C14.67 7.3 14.34 10.6 14 14 C12.35 14 10.7 14 9 14 C9 10.7 9 7.4 9 4 C8.01 4.495 8.01 4.495 7 5 C6.31270746 7.11846285 6.31270746 7.11846285 5.875 9.5625 C5.70742187 10.38878906 5.53984375 11.21507812 5.3671875 12.06640625 C5.24601562 12.70449219 5.12484375 13.34257812 5 14 C3.35 14 1.7 14 0 14 C0 9.38 0 4.76 0 0 Z " fill="#66B7E5" transform="translate(116,141)"/>
<path d="M0 0 C3.26697157 0.37988042 5.61330888 0.76203624 8.4375 2.5 C11.62510928 4.36591763 14.35271453 4.60211431 18 5 C19.33333333 5.33333333 20.66666667 5.66666667 22 6 C22.99 6 23.98 6 25 6 C25 6.66 25 7.32 25 8 C24.34 8 23.68 8 23 8 C24.3089572 11.12197478 24.3089572 11.12197478 27 13 C26.67 14.32 26.34 15.64 26 17 C25.67386719 16.50628906 25.34773438 16.01257813 25.01171875 15.50390625 C24.57472656 14.86324219 24.13773438 14.22257812 23.6875 13.5625 C23.25824219 12.92441406 22.82898438 12.28632812 22.38671875 11.62890625 C20.9965948 9.7114316 20.9965948 9.7114316 18 9 C18.66 10.134375 19.32 11.26875 20 12.4375 C22.25753716 16.94456888 22.80488475 21.02094548 22 26 C20.9765625 28.265625 20.9765625 28.265625 20 30 C18.35 29.34 16.7 28.68 15 28 C15.66 27.34 16.32 26.68 17 26 C16.01 25.67 15.02 25.34 14 25 C13.67 25.99 13.34 26.98 13 28 C13 27.34 13 26.68 13 26 C12.01 25.67 11.02 25.34 10 25 C10.66 25 11.32 25 12 25 C12 24.34 12 23.68 12 23 C12.78375 22.71125 13.5675 22.4225 14.375 22.125 C17.09671632 21.15087746 17.09671632 21.15087746 19 19 C16.93238636 15.02641027 15.08221522 13.06465556 11.1875 10.875 C9.86685547 10.12476562 9.86685547 10.12476562 8.51953125 9.359375 C5.70493821 7.84080387 2.89021634 6.36904984 0 5 C0 3.35 0 1.7 0 0 Z " fill="#D7F0E2" transform="translate(134,90)"/>
<path d="M0 0 C2.64 0.33 5.28 0.66 8 1 C8.33 1.99 8.66 2.98 9 4 C6.14804778 5.42597611 3.67538825 5.1320252 0.5 5.125 C-0.6653125 5.12757813 -1.830625 5.13015625 -3.03125 5.1328125 C-6 5 -6 5 -8 4 C-8 5.98 -8 7.96 -8 10 C-10.97 9.505 -10.97 9.505 -14 9 C-12.88371346 11.60466859 -11.99673777 13.0027962 -9.8125 14.875 C-8 17 -8 17 -8.125 20.1875 C-8.41375 21.115625 -8.7025 22.04375 -9 23 C-11.52475462 24.26237731 -13.31200466 24.09856404 -16.125 24.0625 C-17.03507812 24.05347656 -17.94515625 24.04445312 -18.8828125 24.03515625 C-19.93082031 24.01775391 -19.93082031 24.01775391 -21 24 C-21 22.35 -21 20.7 -21 19 C-18.69 19.33 -16.38 19.66 -14 20 C-14.433125 19.56429687 -14.86625 19.12859375 -15.3125 18.6796875 C-19.86167147 13.81460134 -19.86167147 13.81460134 -20.5625 9.6875 C-20 7 -20 7 -17 5 C-15.9275 4.855625 -14.855 4.71125 -13.75 4.5625 C-10.69052763 4.10357914 -8.8986147 3.62584832 -6.1875 2.375 C-5.135625 1.92125 -4.08375 1.4675 -3 1 C-2.34 1.33 -1.68 1.66 -1 2 C-1 2.66 -1 3.32 -1 4 C-0.34 4 0.32 4 1 4 C0.67 2.68 0.34 1.36 0 0 Z " fill="#A8D7F0" transform="translate(121,131)"/>
<path d="M0 0 C0.33 0 0.66 0 1 0 C1.22174933 1.45635371 1.42698698 2.91522956 1.625 4.375 C1.74101563 5.18710938 1.85703125 5.99921875 1.9765625 6.8359375 C1.98429687 7.55007812 1.99203125 8.26421875 2 9 C1.34 9.66 0.68 10.32 0 11 C0 12.32 0 13.64 0 15 C-0.33 15.33 -0.66 15.66 -1 16 C-1.44926708 19.95355026 -1.30871428 21.55622323 1 24.875 C1.66 25.57625 2.32 26.2775 3 27 C1.02 26.67 -0.96 26.34 -3 26 C-3 28.64 -3 31.28 -3 34 C-2.34 34.33 -1.68 34.66 -1 35 C-2.485 35.495 -2.485 35.495 -4 36 C-4 35.34 -4 34.68 -4 34 C-5.32 34 -6.64 34 -8 34 C-7.97679688 33.10796875 -7.95359375 32.2159375 -7.9296875 31.296875 C-7.90261719 29.54117188 -7.90261719 29.54117188 -7.875 27.75 C-7.85179688 26.58984375 -7.82859375 25.4296875 -7.8046875 24.234375 C-7.99253072 21.12369122 -8.49199521 19.64052244 -10 17 C-9.6875 15 -9.6875 15 -9 13 C-8.814375 12.2575 -8.62875 11.515 -8.4375 10.75 C-8.293125 10.1725 -8.14875 9.595 -8 9 C-5.69 8.34 -3.38 7.68 -1 7 C-0.67 4.69 -0.34 2.38 0 0 Z " fill="#F3FCFB" transform="translate(101,122)"/>
<path d="M0 0 C10.7421875 -0.1953125 10.7421875 -0.1953125 14 0 C16 2 16 2 16.1953125 4.8203125 C16.17210938 5.91085938 16.14890625 7.00140625 16.125 8.125 C16.10695313 9.22070312 16.08890625 10.31640625 16.0703125 11.4453125 C16.04710938 12.28835937 16.02390625 13.13140625 16 14 C14.02 14 12.04 14 10 14 C9.67 11.03 9.34 8.06 9 5 C8.01 5.33 7.02 5.66 6 6 C5.67 8.64 5.34 11.28 5 14 C3.02 14 1.04 14 -1 14 C-0.67 9.38 -0.34 4.76 0 0 Z " fill="#DBECAB" transform="translate(76,141)"/>
<path d="M0 0 C0.66 0 1.32 0 2 0 C2 0.66 2 1.32 2 2 C3.65 1.67 5.3 1.34 7 1 C6.67 2.32 6.34 3.64 6 5 C5.34 5 4.68 5 4 5 C6.46482313 9.6186626 6.46482313 9.6186626 10.9375 11.9375 C13.82570564 11.99644297 16.21503412 11.73719685 19 11 C18.67 12.32 18.34 13.64 18 15 C16.68 15 15.36 15 14 15 C14.66 15.33 15.32 15.66 16 16 C16 16.66 16 17.32 16 18 C14.4840625 18.185625 14.4840625 18.185625 12.9375 18.375 C9.16058236 18.97451074 5.66238602 19.91843102 2 21 C1.47013175 17.68887864 0.95262476 14.37594444 0.4375 11.0625 C0.28603516 10.11697266 0.13457031 9.17144531 -0.02148438 8.19726562 C-0.16005859 7.29814453 -0.29863281 6.39902344 -0.44140625 5.47265625 C-0.57232666 4.64000244 -0.70324707 3.80734863 -0.83813477 2.94946289 C-0.89155029 2.30614014 -0.94496582 1.66281738 -1 1 C-0.67 0.67 -0.34 0.34 0 0 Z " fill="#9EBE1F" transform="translate(115,108)"/>
<path d="M0 0 C0.66 0 1.32 0 2 0 C2 1.32 2 2.64 2 4 C2.68102783 3.98952637 3.36205566 3.97905273 4.0637207 3.96826172 C7.14660966 3.92671122 10.22943971 3.90067689 13.3125 3.875 C14.38435547 3.85824219 15.45621094 3.84148437 16.56054688 3.82421875 C17.58857422 3.81777344 18.61660156 3.81132812 19.67578125 3.8046875 C20.62364502 3.79421387 21.57150879 3.78374023 22.5480957 3.77294922 C25 4 25 4 28 6 C28.99 5.34 29.98 4.68 31 4 C33.73990408 4.03143293 36.28417854 4.55478337 39 5 C39 5.33 39 5.66 39 6 C36.36 6 33.72 6 31 6 C31.495 7.485 31.495 7.485 32 9 C33.98 9 35.96 9 38 9 C38 9.66 38 10.32 38 11 C37.44570312 11.18175781 36.89140625 11.36351562 36.3203125 11.55078125 C35.59585938 11.80214844 34.87140625 12.05351562 34.125 12.3125 C33.40570313 12.55613281 32.68640625 12.79976562 31.9453125 13.05078125 C29.66005095 13.96335547 29.66005095 13.96335547 28 17 C27.34 17 26.68 17 26 17 C26.01160156 16.36191406 26.02320313 15.72382813 26.03515625 15.06640625 C26.04417969 14.24011719 26.05320313 13.41382813 26.0625 12.5625 C26.07410156 11.73878906 26.08570313 10.91507813 26.09765625 10.06640625 C26.23267348 8.00836062 26.23267348 8.00836062 25 7 C23.00047242 6.95653201 20.99960012 6.960008 19 7 C18.01 7 17.02 7 16 7 C14.9275 7.04125 13.855 7.0825 12.75 7.125 C8.73035911 6.99101197 5.79645122 6.23965754 2 5 C2 7.31 2 9.62 2 12 C1.401875 11.505 0.80375 11.01 0.1875 10.5 C-1.97029994 8.71723582 -1.97029994 8.71723582 -5 9 C-5.33 7.68 -5.66 6.36 -6 5 C-4.35 5 -2.7 5 -1 5 C-0.67 3.35 -0.34 1.7 0 0 Z " fill="#092F5C" transform="translate(113,135)"/>
<path d="M0 0 C3.96 0 7.92 0 12 0 C14.13999677 4.27999354 13.09321611 9.49048355 12 14 C10.35 14 8.7 14 7 14 C7 12.02 7 10.04 7 8 C5.68 8.33 4.36 8.66 3 9 C3 9.66 3 10.32 3 11 C3.99 11 4.98 11 6 11 C5.67 11.99 5.34 12.98 5 14 C3.00045254 14.04254356 0.99958364 14.04080783 -1 14 C-2 13 -2 13 -2.375 10.625 C-2 8 -2 8 0.25 6.1875 C3 5 3 5 7 5 C7 4.34 7 3.68 7 3 C4.69 3.33 2.38 3.66 0 4 C0 2.68 0 1.36 0 0 Z " fill="#95D8F7" transform="translate(144,141)"/>
<path d="M0 0 C-1.32 1.65 -2.64 3.3 -4 5 C-1.69 5.66 0.62 6.32 3 7 C6.58165209 30.78877436 6.58165209 30.78877436 6 41 C4.515 40.505 4.515 40.505 3 40 C3.02320313 39.12601563 3.04640625 38.25203125 3.0703125 37.3515625 C3.22128617 27.0637852 2.26721329 17.21690718 1 7 C-5.6 7 -12.2 7 -19 7 C-17.35 5.68 -15.7 4.36 -14 3 C-13.5875 2.278125 -13.175 1.55625 -12.75 0.8125 C-10.19023048 -1.83868986 -7.62411516 -1.75419517 -4.05859375 -2.1171875 C-2 -2 -2 -2 0 0 Z " fill="#212F19" transform="translate(131,83)"/>
<path d="M0 0 C0.99 2.31 1.98 4.62 3 7 C2.67 7.33 2.34 7.66 2 8 C4.475 8.99 4.475 8.99 7 10 C7 10.99 7 11.98 7 13 C7.66 13 8.32 13 9 13 C8.34 14.32 7.68 15.64 7 17 C5.68 17 4.36 17 3 17 C3 17.66 3 18.32 3 19 C1.68 18.67 0.36 18.34 -1 18 C0.65 15.69 2.3 13.38 4 11 C1.36 11 -1.28 11 -4 11 C-4.33 12.32 -4.66 13.64 -5 15 C-8 14 -8 14 -9.4375 11.25 C-10 8 -10 8 -8.375 5.3125 C-2.91891892 0 -2.91891892 0 0 0 Z " fill="#F7FDF9" transform="translate(91,109)"/>
<path d="M0 0 C0.66 0 1.32 0 2 0 C2.28875 0.639375 2.5775 1.27875 2.875 1.9375 C3.82823451 4.15206079 3.82823451 4.15206079 6 5 C6.33 3.68 6.66 2.36 7 1 C9.64 1 12.28 1 15 1 C15 1.66 15 2.32 15 3 C13.68 3 12.36 3 11 3 C10.7834375 3.928125 10.7834375 3.928125 10.5625 4.875 C10 7 10 7 9 9 C7.01432292 8.96744792 5.02864583 8.93489583 3.04296875 8.90234375 C0.79694539 8.91736783 0.79694539 8.91736783 -2 10 C-1.34 11.32 -0.68 12.64 0 14 C-1.26391488 15.00873016 -2.53640883 16.00671822 -3.8125 17 C-4.52019531 17.556875 -5.22789063 18.11375 -5.95703125 18.6875 C-8 20 -8 20 -11 20 C-11.625 18.125 -11.625 18.125 -12 16 C-9.64046906 13.64046906 -8.22104383 13.50858587 -5 13 C-4.67 11.68 -4.34 10.36 -4 9 C-3.34 9 -2.68 9 -2 9 C-1.855625 7.88625 -1.71125 6.7725 -1.5625 5.625 C-1 2 -1 2 0 0 Z " fill="#C5E1CD" transform="translate(80,119)"/>
<path d="M0 0 C0.66 0.99 1.32 1.98 2 3 C4.77262255 3.38394667 7.34323528 3.60342248 10.125 3.6875 C10.87910156 3.72166016 11.63320312 3.75582031 12.41015625 3.79101562 C14.27291201 3.87354278 16.13643326 3.93844711 18 4 C17.34 5.98 16.68 7.96 16 10 C15.34 10 14.68 10 14 10 C13.54625 9.484375 13.0925 8.96875 12.625 8.4375 C11.09524275 6.7436992 11.09524275 6.7436992 8.875 7.125 C8.25625 7.41375 7.6375 7.7025 7 8 C6.67 8.99 6.34 9.98 6 11 C6.66 11.33 7.32 11.66 8 12 C8.34375 13.9609375 8.34375 13.9609375 8.5 16.375 C8.72941463 19.89651464 8.95292864 20.92939296 11 24 C10.01 24 9.02 24 8 24 C8 23.34 8 22.68 8 22 C7.01 22.33 6.02 22.66 5 23 C4.60167969 21.53626953 4.60167969 21.53626953 4.1953125 20.04296875 C3.83882407 18.75773414 3.48203761 17.47258216 3.125 16.1875 C2.77695313 14.92292969 2.42890625 13.65835938 2.0703125 12.35546875 C1.14299705 8.91591287 1.14299705 8.91591287 -1 6 C-0.625 2.8125 -0.625 2.8125 0 0 Z " fill="#BBDA4E" transform="translate(109,86)"/>
<path d="M0 0 C0.33 0 0.66 0 1 0 C1 1.98 1 3.96 1 6 C1.99 6 2.98 6 4 6 C4 7.32 4 8.64 4 10 C3.01 10 2.02 10 1 10 C1 11.98 1 13.96 1 16 C1.99 16 2.98 16 4 16 C3.67 17.32 3.34 18.64 3 20 C0.66705225 20.04241723 -1.66702567 20.04092937 -4 20 C-5 19 -5 19 -5.09765625 16.93359375 C-5.08025391 15.69802734 -5.08025391 15.69802734 -5.0625 14.4375 C-5.05347656 13.61121094 -5.04445312 12.78492188 -5.03515625 11.93359375 C-5.02355469 11.29550781 -5.01195312 10.65742188 -5 10 C-5.66 10 -6.32 10 -7 10 C-7 8.68 -7 7.36 -7 6 C-6.01 6 -5.02 6 -4 6 C-4 5.01 -4 4.02 -4 3 C-2.68 3 -1.36 3 0 3 C0 2.01 0 1.02 0 0 Z " fill="#7DBDF1" transform="translate(178,135)"/>
<path d="M0 0 C0.99 0.33 1.98 0.66 3 1 C4.98621143 7.12415191 2.68742899 12.44190823 0 18 C-1.515625 19.83203125 -1.515625 19.83203125 -3 21 C-3.66 21 -4.32 21 -5 21 C-5.12375 20.195625 -5.2475 19.39125 -5.375 18.5625 C-5.58125 17.716875 -5.7875 16.87125 -6 16 C-6.66 15.67 -7.32 15.34 -8 15 C-7.34 14.67 -6.68 14.34 -6 14 C-5.76970609 12.02605218 -5.54255178 10.05158648 -5.34375 8.07421875 C-4.87173423 5.22603268 -3.72992927 3.28350664 -2 1 C-1.34 0.67 -0.68 0.34 0 0 Z " fill="#419517" transform="translate(78,110)"/>
<path d="M0 0 C1.32 0.33 2.64 0.66 4 1 C3.67 1.33 3.34 1.66 3 2 C3.99 2.66 4.98 3.32 6 4 C5.67 5.98 5.34 7.96 5 10 C5.99 10 6.98 10 8 10 C8 10.99 8 11.98 8 13 C5.69 13.33 3.38 13.66 1 14 C0.979375 14.928125 0.95875 15.85625 0.9375 16.8125 C0.628125 17.864375 0.31875 18.91625 0 20 C-3.4375 21.8125 -3.4375 21.8125 -7 23 C-7.66 23.33 -8.32 23.66 -9 24 C-9 23.34 -9 22.68 -9 22 C-9.99 21.67 -10.98 21.34 -12 21 C-11.67 20.34 -11.34 19.68 -11 19 C-10.34 19 -9.68 19 -9 19 C-9 18.34 -9 17.68 -9 17 C-8.01 16.67 -7.02 16.34 -6 16 C-5.67 15.01 -5.34 14.02 -5 13 C-4.34 13 -3.68 13 -3 13 C-3 12.34 -3 11.68 -3 11 C-1.02 10.01 0.96 9.02 3 8 C3 7.01 3 6.02 3 5 C2.01 4.67 1.02 4.34 0 4 C0 2.68 0 1.36 0 0 Z " fill="#D0EEF6" transform="translate(148,115)"/>
<path d="M0 0 C1.485 0.99 1.485 0.99 3 2 C3.680625 2.165 4.36125 2.33 5.0625 2.5 C7 3 7 3 9 5 C9 6.98 9 8.96 9 11 C14.94 10.505 14.94 10.505 21 10 C20.67 10.66 20.34 11.32 20 12 C16.30447383 13.05586462 12.81697692 13 9 13 C8.67 13.33 8.34 13.66 8 14 C5.5625 14.1875 5.5625 14.1875 3 14 C0.31907309 11.31907309 0.61329743 9.60832637 0.375 5.875 C0.30023438 4.77929688 0.22546875 3.68359375 0.1484375 2.5546875 C0.09945312 1.71164063 0.05046875 0.86859375 0 0 Z " fill="#0F2D0F" transform="translate(101,118)"/>
<path d="M0 0 C2.625 0.375 2.625 0.375 5 1 C5.33 1.99 5.66 2.98 6 4 C5.67 4.33 5.34 4.66 5 5 C5.33 5.515625 5.66 6.03125 6 6.5625 C7.32010877 9.78026512 7.13242105 12.5570528 7 16 C4.625 16.625 4.625 16.625 2 17 C-0.36660382 14.63339618 -0.30990526 13.86036242 -0.5625 10.625 C-0.75826025 8.23592599 -0.95928737 6.13505868 -1.65234375 3.8359375 C-1.76707031 3.23007813 -1.88179688 2.62421875 -2 2 C-1.34 1.34 -0.68 0.68 0 0 Z " fill="#202B05" transform="translate(117,92)"/>
<path d="M0 0 C6.11009738 0.31333833 10.38632368 3.22836347 15 7 C17.91908922 10.5758843 19.45966136 13.40712158 20 18 C19.113125 17.154375 18.22625 16.30875 17.3125 15.4375 C12.15201302 10.97005363 6.04847444 8.07426219 0 5 C0 3.35 0 1.7 0 0 Z " fill="#B2CA3C" transform="translate(134,90)"/>
<path d="M0 0 C0.721875 0.12375 1.44375 0.2475 2.1875 0.375 C2.5175 1.035 2.8475 1.695 3.1875 2.375 C0.8775 3.035 -1.4325 3.695 -3.8125 4.375 C-4.1425 6.025 -4.4725 7.675 -4.8125 9.375 C-5.4725 9.375 -6.1325 9.375 -6.8125 9.375 C-6.68681641 10.29732422 -6.68681641 10.29732422 -6.55859375 11.23828125 C-6.45675781 12.04652344 -6.35492188 12.85476562 -6.25 13.6875 C-6.14558594 14.48800781 -6.04117188 15.28851563 -5.93359375 16.11328125 C-5.8125 18.375 -5.8125 18.375 -6.8125 21.375 C-7.4725 21.375 -8.1325 21.375 -8.8125 21.375 C-8.750625 20.59125 -8.68875 19.8075 -8.625 19 C-8.686875 18.13375 -8.74875 17.2675 -8.8125 16.375 C-9.8025 15.715 -10.7925 15.055 -11.8125 14.375 C-11.1525 13.385 -10.4925 12.395 -9.8125 11.375 C-9.8125 9.725 -9.8125 8.075 -9.8125 6.375 C-15.0925 6.045 -20.3725 5.715 -25.8125 5.375 C-25.8125 8.675 -25.8125 11.975 -25.8125 15.375 C-26.1425 15.375 -26.4725 15.375 -26.8125 15.375 C-26.8125 11.745 -26.8125 8.115 -26.8125 4.375 C-24.02057795 4.32119422 -21.2296859 4.28142331 -18.4375 4.25 C-17.6434375 4.23324219 -16.849375 4.21648437 -16.03125 4.19921875 C-13.95757985 4.18164527 -11.88366759 4.27164832 -9.8125 4.375 C-9.1525 5.035 -8.4925 5.695 -7.8125 6.375 C-7.090625 5.385 -6.36875 4.395 -5.625 3.375 C-3.2029877 0.42706503 -3.2029877 0.42706503 0 0 Z " fill="#1A283D" transform="translate(72.8125,130.625)"/>
<path d="M0 0 C0.48259861 7.23897912 0.48259861 7.23897912 -1.625 10.5625 C-4 12 -4 12 -7 12.0625 C-10.67245147 10.76184011 -11.935541 9.25549303 -14 6 C-14 5.34 -14 4.68 -14 4 C-13.39671875 3.96261719 -12.7934375 3.92523438 -12.171875 3.88671875 C-7.97748758 3.54169656 -3.153237 0 0 0 Z " fill="#746A5F" transform="translate(133,109)"/>
<path d="M0 0 C2.375 -0.1875 2.375 -0.1875 5 0 C5.66 0.99 6.32 1.98 7 3 C7.99 3 8.98 3 10 3 C9.67 4.65 9.34 6.3 9 8 C4.38 8 -0.24 8 -5 8 C-5 6.35 -5 4.7 -5 3 C-3.35 2.67 -1.7 2.34 0 2 C0 1.34 0 0.68 0 0 Z " fill="#B5D055" transform="translate(52,147)"/>
<path d="M0 0 C3.3 0 6.6 0 10 0 C10 1.32 10 2.64 10 4 C9.01 4.33 8.02 4.66 7 5 C6.19436362 7.10584438 6.19436362 7.10584438 5.8125 9.5625 C5.65394531 10.38878906 5.49539062 11.21507812 5.33203125 12.06640625 C5.22246094 12.70449219 5.11289063 13.34257812 5 14 C3.35 14 1.7 14 0 14 C0 9.38 0 4.76 0 0 Z " fill="#7BC0EF" transform="translate(160,141)"/>
<path d="M0 0 C0.66 0.66 1.32 1.32 2 2 C4.68839385 2.26991906 7.29141936 2.08737357 10 2 C11 8.875 11 8.875 11 10 C5.06 10.495 5.06 10.495 -1 11 C-0.67 7.37 -0.34 3.74 0 0 Z " fill="#C5DC95" transform="translate(47,136)"/>
<path d="M0 0 C0.66 0 1.32 0 2 0 C1.34 1.98 0.68 3.96 0 6 C1.95216435 4.04783565 2.84826645 2.46800047 4 0 C4.66 0 5.32 0 6 0 C6 1.32 6 2.64 6 4 C6.66 4.33 7.32 4.66 8 5 C8 5.66 8 6.32 8 7 C-0.11388044 8.21521251 -7.85351368 7.76299944 -16 7 C-16 6.01 -16 5.02 -16 4 C-14.64455078 3.94392578 -14.64455078 3.94392578 -13.26171875 3.88671875 C-12.08222656 3.82097656 -10.90273437 3.75523437 -9.6875 3.6875 C-8.51574219 3.62949219 -7.34398438 3.57148438 -6.13671875 3.51171875 C-2.81323861 2.96953208 -2.06825268 2.49662864 0 0 Z " fill="#F0FAFE" transform="translate(131,132)"/>
<path d="M0 0 C5.78547368 3.418689 8.74445709 6.8910366 11.3125 13.25 C12.40069092 19.18558685 12.40297093 24.8955436 9 30 C9.01160156 28.98679687 9.02320313 27.97359375 9.03515625 26.9296875 C9.04454209 25.57812686 9.05364143 24.2265642 9.0625 22.875 C9.07087891 22.20984375 9.07925781 21.5446875 9.08789062 20.859375 C9.10782292 16.79318646 8.78890161 12.9879908 8 9 C7.34 9 6.68 9 6 9 C6.01160156 9.86882812 6.02320313 10.73765625 6.03515625 11.6328125 C6.04417969 12.78523438 6.05320313 13.93765625 6.0625 15.125 C6.07410156 16.26195313 6.08570313 17.39890625 6.09765625 18.5703125 C6.005327 21.8129156 5.61389906 24.81932612 5 28 C4.01 28 3.02 28 2 28 C2.144375 27.45472656 2.28875 26.90945312 2.4375 26.34765625 C4.51167685 17.92131279 5.36204207 11.34100982 0.875 3.62890625 C0 2 0 2 0 0 Z " fill="#2F9BC6" transform="translate(151,97)"/>
<path d="M0 0 C1.02673828 0.02707031 2.05347656 0.05414063 3.11132812 0.08203125 C5.63887576 0.15256746 8.16210043 0.25106571 10.6875 0.375 C10.6875 1.035 10.6875 1.695 10.6875 2.375 C4.0875 2.375 -2.5125 2.375 -9.3125 2.375 C-9.9725 3.695 -10.6325 5.015 -11.3125 6.375 C-12.8177421 8.32040315 -14.3628094 10.23537127 -15.9375 12.125 C-17.16339844 13.60226563 -17.16339844 13.60226563 -18.4140625 15.109375 C-19.04054688 15.85703125 -19.66703125 16.6046875 -20.3125 17.375 C-20.9725 17.045 -21.6325 16.715 -22.3125 16.375 C-21.508125 15.4675 -20.70375 14.56 -19.875 13.625 C-17.86519278 11.25144558 -17.86519278 11.25144558 -16.8125 8.375 C-14.53521696 -0.73413214 -7.90188146 -0.39433573 0 0 Z " fill="#364E3C" transform="translate(115.3125,77.625)"/>
<path d="M0 0 C3.57142857 7.28571429 3.57142857 7.28571429 2 12 C0.35 11.67 -1.3 11.34 -3 11 C-3.66 9.02 -4.32 7.04 -5 5 C-6.32 5.99 -7.64 6.98 -9 8 C-9.66 7.67 -10.32 7.34 -11 7 C-9.73742767 5.82439821 -8.46462916 4.65977135 -7.1875 3.5 C-6.12595703 2.52546875 -6.12595703 2.52546875 -5.04296875 1.53125 C-3 0 -3 0 0 0 Z " fill="#DEF4CC" transform="translate(96,104)"/>
<path d="M0 0 C4.95 0 9.9 0 15 0 C15 0.33 15 0.66 15 1 C10.38 1 5.76 1 1 1 C1.33 7.6 1.66 14.2 2 21 C6.95 20.67 11.9 20.34 17 20 C16.67 20.99 16.34 21.98 16 23 C10.72 23 5.44 23 0 23 C0 15.41 0 7.82 0 0 Z " fill="#384948" transform="translate(45,134)"/>
<path d="M0 0 C3.96 0 7.92 0 12 0 C13.4783226 2.95664519 13.06032783 5.74229737 13 9 C12.67 8.34 12.34 7.68 12 7 C8.04 7 4.08 7 0 7 C3 5 3 5 7 5 C7 4.34 7 3.68 7 3 C4.69 3.33 2.38 3.66 0 4 C0 2.68 0 1.36 0 0 Z " fill="#58A8DA" transform="translate(144,141)"/>
<path d="M0 0 C0.99 0.99 1.98 1.98 3 3 C3.33 3 3.66 3 4 3 C3.98839844 3.62648437 3.97679688 4.25296875 3.96484375 4.8984375 C3.95582031 5.71570313 3.94679688 6.53296875 3.9375 7.375 C3.92589844 8.18710938 3.91429688 8.99921875 3.90234375 9.8359375 C3.85533666 12.04937142 3.85533666 12.04937142 5 14 C2.85423363 14.02685938 0.70837355 14.04633088 -1.4375 14.0625 C-2.63246094 14.07410156 -3.82742187 14.08570313 -5.05859375 14.09765625 C-8 14 -8 14 -9 13 C-9.33 12.01 -9.66 11.02 -10 10 C-9.360625 9.896875 -8.72125 9.79375 -8.0625 9.6875 C-7.0415625 9.3471875 -7.0415625 9.3471875 -6 9 C-5.67 8.01 -5.34 7.02 -5 6 C-5 7.65 -5 9.3 -5 11 C-3.35 11.33 -1.7 11.66 0 12 C0 8.04 0 4.08 0 0 Z " fill="#263F3F" transform="translate(72,143)"/>
<path d="M0 0 C0.66 0 1.32 0 2 0 C5.03224258 7.01206097 4.65847884 14.6628896 3 22 C2.01 22 1.02 22 0 22 C0 14.74 0 7.48 0 0 Z " fill="#029FE6" transform="translate(157,106)"/>
<path d="M0 0 C1.98 0 3.96 0 6 0 C5.67 4.62 5.34 9.24 5 14 C3.02 14 1.04 14 -1 14 C-0.67 9.38 -0.34 4.76 0 0 Z " fill="#CDE59B" transform="translate(67,141)"/>
<path d="M0 0 C0.33 0 0.66 0 1 0 C1.22174933 1.45635371 1.42698698 2.91522956 1.625 4.375 C1.74101563 5.18710938 1.85703125 5.99921875 1.9765625 6.8359375 C1.98429687 7.55007812 1.99203125 8.26421875 2 9 C1.34 9.66 0.68 10.32 0 11 C0 12.32 0 13.64 0 15 C-0.99 15.495 -0.99 15.495 -2 16 C-2.33 15.34 -2.66 14.68 -3 14 C-4.65 14.33 -6.3 14.66 -8 15 C-8 13.02 -8 11.04 -8 9 C-5.69 8.34 -3.38 7.68 -1 7 C-0.67 4.69 -0.34 2.38 0 0 Z " fill="#D5ECF1" transform="translate(101,122)"/>
<path d="M0 0 C0.66 0 1.32 0 2 0 C2 0.66 2 1.32 2 2 C3.65 1.67 5.3 1.34 7 1 C6.67 2.32 6.34 3.64 6 5 C5.34 5 4.68 5 4 5 C4.639375 5.94875 5.27875 6.8975 5.9375 7.875 C8 11 8 11 9 13 C6.69 12.67 4.38 12.34 2 12 C1.67 12.66 1.34 13.32 1 14 C0.63906896 11.85529407 0.28642411 9.70919203 -0.0625 7.5625 C-0.25972656 6.36753906 -0.45695312 5.17257813 -0.66015625 3.94140625 C-0.77230469 2.97074219 -0.88445312 2.00007813 -1 1 C-0.67 0.67 -0.34 0.34 0 0 Z " fill="#B1CB3F" transform="translate(115,108)"/>
<path d="M0 0 C0.66 0.99 1.32 1.98 2 3 C1.525625 3.391875 1.05125 3.78375 0.5625 4.1875 C-1.35179633 6.40808374 -1.61266988 8.13375709 -2 11 C-0.35 11 1.3 11 3 11 C2.67 11.66 2.34 12.32 2 13 C-0.50390625 13.4140625 -0.50390625 13.4140625 -3.5625 13.625 C-4.57441406 13.69976562 -5.58632812 13.77453125 -6.62890625 13.8515625 C-7.41136719 13.90054688 -8.19382813 13.94953125 -9 14 C-9.33 14.99 -9.66 15.98 -10 17 C-10.99 15.68 -11.98 14.36 -13 13 C-7.5 9 -7.5 9 -3 9 C-3.33 8.01 -3.66 7.02 -4 6 C-3.34 5.01 -2.68 4.02 -2 3 C-2.66 2.67 -3.32 2.34 -4 2 C-2.68 2 -1.36 2 0 2 C0 1.34 0 0.68 0 0 Z " fill="#45A8D8" transform="translate(151,126)"/>
<path d="M0 0 C1.32 0 2.64 0 4 0 C6.72611199 2.72611199 7.47679633 5.23293356 8 9 C4.67465243 10.10844919 2.37817425 9.84454356 -1 9 C-1 8.34 -1 7.68 -1 7 C-2.32 6.67 -3.64 6.34 -5 6 C-3.02 4.68 -1.04 3.36 1 2 C0.67 1.34 0.34 0.68 0 0 Z " fill="#86B31B" transform="translate(104,90)"/>
<path d="M0 0 C6.6 0 13.2 0 20 0 C20 0.33 20 0.66 20 1 C19.0925 1.061875 18.185 1.12375 17.25 1.1875 C13.19416857 2.20145786 12.46458464 3.74038806 10 7 C7.25 8.3125 7.25 8.3125 5 9 C5.33 7.02 5.66 5.04 6 3 C4.02 2.34 2.04 1.68 0 1 C0 0.67 0 0.34 0 0 Z " fill="#243A28" transform="translate(106,81)"/>
<path d="M0 0 C0 3.90838866 -1.50567876 5.11594107 -4 8 C-1.03 8.495 -1.03 8.495 2 9 C0.625 10.5 0.625 10.5 -1 12 C-1.66 12 -2.32 12 -3 12 C-2.65066406 12.78503906 -2.30132812 13.57007812 -1.94140625 14.37890625 C0.47174196 19.95033908 2.58526847 24.91727091 3 31 C0.95864363 28.95864363 0.45609439 27.91460834 -0.47265625 25.26171875 C-0.73240234 24.52373047 -0.99214844 23.78574219 -1.25976562 23.02539062 C-1.52466797 22.25388672 -1.78957031 21.48238281 -2.0625 20.6875 C-2.33126953 19.92759766 -2.60003906 19.16769531 -2.87695312 18.38476562 C-5.82278402 9.92927596 -5.82278402 9.92927596 -6 7 C-4.78515625 4.98046875 -4.78515625 4.98046875 -3.0625 3.1875 C-2.49660156 2.58292969 -1.93070312 1.97835937 -1.34765625 1.35546875 C-0.90292969 0.90816406 -0.45820312 0.46085937 0 0 Z " fill="#112F14" transform="translate(98,86)"/>
<path d="M0 0 C0.66 0 1.32 0 2 0 C2 1.32 2 2.64 2 4 C2.99 4 3.98 4 5 4 C5 6.64 5 9.28 5 12 C3.68 12 2.36 12 1 12 C1.33 12.66 1.66 13.32 2 14 C2.99 14 3.98 14 5 14 C4.74438677 16.3431213 4.40729228 18.67843403 4 21 C1.13822943 22.43088528 -0.93375773 21.59991697 -4 21 C-4 20.67 -4 20.34 -4 20 C-2.02 20 -0.04 20 2 20 C2.33 18.68 2.66 17.36 3 16 C2.01 16 1.02 16 0 16 C0 14.02 0 12.04 0 10 C0.99 10 1.98 10 3 10 C3 8.68 3 7.36 3 6 C2.01 6 1.02 6 0 6 C0 4.02 0 2.04 0 0 Z " fill="#233E62" transform="translate(179,135)"/>
<path d="M0 0 C0.66 0 1.32 0 2 0 C1.79503906 0.60328125 1.59007813 1.2065625 1.37890625 1.828125 C1.10949219 2.62734375 0.84007813 3.4265625 0.5625 4.25 C0.29566406 5.03890625 0.02882813 5.8278125 -0.24609375 6.640625 C-1.02057093 8.95439625 -1.02057093 8.95439625 -1.5078125 11.1875 C-2.13874075 13.5109183 -3.13815003 14.51052002 -5 16 C-5.66 16 -6.32 16 -7 16 C-7.12375 15.195625 -7.2475 14.39125 -7.375 13.5625 C-7.684375 12.2940625 -7.684375 12.2940625 -8 11 C-8.66 10.67 -9.32 10.34 -10 10 C-9.34 9.67 -8.68 9.34 -8 9 C-8 7.35 -8 5.7 -8 4 C-7.01 4.33 -6.02 4.66 -5 5 C-4.67 5.99 -4.34 6.98 -4 8 C-2.68 5.36 -1.36 2.72 0 0 Z " fill="#5D9A44" transform="translate(80,115)"/>
<path d="M0 0 C0.99 0 1.98 0 3 0 C3 3.3 3 6.6 3 10 C4.65 10 6.3 10 8 10 C8.33 8.68 8.66 7.36 9 6 C9.70125 6.639375 10.4025 7.27875 11.125 7.9375 C14.22841233 10.16386102 16.24620139 10.65080943 20 11 C20 11.33 20 11.66 20 12 C12.25 12.125 12.25 12.125 10 11 C7.95053494 10.97011197 5.92225682 11.06607276 3.875 11.16015625 C2 11 2 11 0 9 C-0.1953125 6.8359375 -0.1953125 6.8359375 -0.125 4.375 C-0.10695312 3.55773437 -0.08890625 2.74046875 -0.0703125 1.8984375 C-0.04710937 1.27195313 -0.02390625 0.64546875 0 0 Z " fill="#042B5A" transform="translate(131,145)"/>
<path d="M0 0 C0 0.33 0 0.66 0 1 C-2.64 1 -5.28 1 -8 1 C-7.67 1.99 -7.34 2.98 -7 4 C-5.02 4 -3.04 4 -1 4 C-1 4.66 -1 5.32 -1 6 C-1.83144531 6.27263672 -1.83144531 6.27263672 -2.6796875 6.55078125 C-3.76636719 6.92783203 -3.76636719 6.92783203 -4.875 7.3125 C-5.59429687 7.55613281 -6.31359375 7.79976562 -7.0546875 8.05078125 C-9.33994905 8.96335547 -9.33994905 8.96335547 -11 12 C-11.66 12 -12.32 12 -13 12 C-12.55170486 10.01853549 -12.09107502 8.03985789 -11.625 6.0625 C-11.24214844 4.40927734 -11.24214844 4.40927734 -10.8515625 2.72265625 C-10.43003906 1.37494141 -10.43003906 1.37494141 -10 0 C-6.7169902 -1.6415049 -3.57454967 -0.51888624 0 0 Z " fill="#164177" transform="translate(152,140)"/>
<path d="M0 0 C1.65 0 3.3 0 5 0 C5 1.65 5 3.3 5 5 C6.32 5 7.64 5 9 5 C8.67 6.32 8.34 7.64 8 9 C5.66705225 9.04241723 3.33297433 9.04092937 1 9 C0 8 0 8 -0.09765625 6.15234375 C-0.06510417 4.1015625 -0.03255208 2.05078125 0 0 Z " fill="#B6E3FC" transform="translate(173,146)"/>
<path d="M0 0 C1.98 0.66 3.96 1.32 6 2 C5.34 3.98 4.68 5.96 4 8 C5.32 8.33 6.64 8.66 8 9 C7.67 9.99 7.34 10.98 7 12 C6.01 12 5.02 12 4 12 C3.67 12.66 3.34 13.32 3 14 C0.81005752 10.71508627 0.64722661 9.16904361 0.375 5.3125 C0.30023438 4.31863281 0.22546875 3.32476562 0.1484375 2.30078125 C0.09945312 1.54152344 0.05046875 0.78226562 0 0 Z " fill="#E8F0EC" transform="translate(136,110)"/>
<path d="M0 0 C0.66 0.99 1.32 1.98 2 3 C4.77262255 3.38394667 7.34323528 3.60342248 10.125 3.6875 C10.87910156 3.72166016 11.63320312 3.75582031 12.41015625 3.79101562 C14.27291201 3.87354278 16.13643326 3.93844711 18 4 C17.34 5.98 16.68 7.96 16 10 C15.34 10 14.68 10 14 10 C13.56042969 9.51917969 13.12085937 9.03835937 12.66796875 8.54296875 C10.53313317 6.56812085 9.17764321 6.52011907 6.3125 6.3125 C5.50425781 6.24675781 4.69601563 6.18101563 3.86328125 6.11328125 C3.24839844 6.07589844 2.63351563 6.03851563 2 6 C1.34 6.99 0.68 7.98 0 9 C-1.125 3.375 -1.125 3.375 0 0 Z " fill="#CBE289" transform="translate(109,86)"/>
<path d="M0 0 C2.64 0.33 5.28 0.66 8 1 C8.33 1.99 8.66 2.98 9 4 C6.15161879 5.4241906 3.67212092 5.16995508 0.5 5.1875 C-0.6653125 5.20167969 -1.830625 5.21585938 -3.03125 5.23046875 C-6 5 -6 5 -8 3 C-5.625 1.9375 -5.625 1.9375 -3 1 C-2.34 1.33 -1.68 1.66 -1 2 C-1 2.66 -1 3.32 -1 4 C-0.34 4 0.32 4 1 4 C0.67 2.68 0.34 1.36 0 0 Z " fill="#C5E5EF" transform="translate(121,131)"/>
<path d="M0 0 C1.32 0 2.64 0 4 0 C4.99 2.64 5.98 5.28 7 8 C6 9 6 9 3.5625 9.1875 C1 9 1 9 -1 7 C-0.625 3.375 -0.625 3.375 0 0 Z " fill="#263415" transform="translate(103,123)"/>
<path d="M0 0 C0 2.83967231 -0.40267181 5.23735711 -1 8 C-0.34 8 0.32 8 1 8 C1 7.34 1 6.68 1 6 C2.65 5.67 4.3 5.34 6 5 C4.02 7.64 2.04 10.28 0 13 C-0.99 11.68 -1.98 10.36 -3 9 C-4.32 8.67 -5.64 8.34 -7 8 C-4.69 5.36 -2.38 2.72 0 0 Z " fill="#4E9620" transform="translate(83,102)"/>
<path d="M0 0 C0.33 1.32 0.66 2.64 1 4 C1.66 4 2.32 4 3 4 C3.33 3.34 3.66 2.68 4 2 C4 2.99 4 3.98 4 5 C4.66 5 5.32 5 6 5 C5.67 5.66 5.34 6.32 5 7 C4.34 7 3.68 7 3 7 C3 6.34 3 5.68 3 5 C2.34 5.66 1.68 6.32 1 7 C2.32 7.99 3.64 8.98 5 10 C4.34 10 3.68 10 3 10 C2.67 10.66 2.34 11.32 2 12 C1.01 12 0.02 12 -1 12 C-1.99 9.36 -2.98 6.72 -4 4 C-2.68 3.67 -1.36 3.34 0 3 C0 2.01 0 1.02 0 0 Z " fill="#73A143" transform="translate(101,100)"/>
<path d="M0 0 C2.125 0.375 2.125 0.375 4 1 C5.125 6.75 5.125 6.75 4 9 C2.35 8.67 0.7 8.34 -1 8 C-1.625 5.125 -1.625 5.125 -2 2 C-1.34 1.34 -0.68 0.68 0 0 Z " fill="#59634D" transform="translate(128,98)"/>
<path d="M0 0 C1.98 0 3.96 0 6 0 C5.67 2.97 5.34 5.94 5 9 C3.35 9 1.7 9 0 9 C0 6.03 0 3.06 0 0 Z " fill="#A1D4EE" transform="translate(116,146)"/>
<path d="M0 0 C3.6875 0.875 3.6875 0.875 7 2 C6.01 3.485 6.01 3.485 5 5 C4.01 5 3.02 5 2 5 C2 6.65 2 8.3 2 10 C1.01 10.33 0.02 10.66 -1 11 C-1.66 8.03 -2.32 5.06 -3 2 C-2.01 1.34 -1.02 0.68 0 0 Z " fill="#F4F9FA" transform="translate(81,127)"/>
<path d="M0 0 C0 1.32 0 2.64 0 4 C-0.99 4.33 -1.98 4.66 -3 5 C-4.68538601 6.99665314 -4.68538601 6.99665314 -6 9 C-7.5 7.6875 -7.5 7.6875 -9 6 C-9 5.01 -9 4.02 -9 3 C-9.99 2.34 -10.98 1.68 -12 1 C-10.56274129 0.83126522 -9.12518162 0.66509263 -7.6875 0.5 C-6.88699219 0.4071875 -6.08648437 0.314375 -5.26171875 0.21875 C-3 0 -3 0 0 0 Z " fill="#D9E5F1" transform="translate(136,125)"/>
<path d="M0 0 C3.96 0.33 7.92 0.66 12 1 C12 1.99 12 2.98 12 4 C9.47524538 5.26237731 7.68799534 5.09856404 4.875 5.0625 C3.96492188 5.05347656 3.05484375 5.04445312 2.1171875 5.03515625 C1.41851562 5.02355469 0.71984375 5.01195312 0 5 C0 3.35 0 1.7 0 0 Z " fill="#7EC4F1" transform="translate(100,150)"/>
<path d="M0 0 C1.32 0.33 2.64 0.66 4 1 C3.67 1.33 3.34 1.66 3 2 C3.99 2.66 4.98 3.32 6 4 C5.67 5.98 5.34 7.96 5 10 C5.99 10 6.98 10 8 10 C8 10.99 8 11.98 8 13 C5.36 12.67 2.72 12.34 0 12 C0.33 11.01 0.66 10.02 1 9 C1.66 8.67 2.32 8.34 3 8 C3 7.01 3 6.02 3 5 C2.01 4.67 1.02 4.34 0 4 C0 2.68 0 1.36 0 0 Z " fill="#B9EFFB" transform="translate(148,115)"/>
<path d="M0 0 C2.64 0 5.28 0 8 0 C8 0.66 8 1.32 8 2 C6.68 2 5.36 2 4 2 C3.855625 2.639375 3.71125 3.27875 3.5625 3.9375 C3 6 3 6 2 7 C0.00041636 7.04080783 -2.00045254 7.04254356 -4 7 C-4.33 6.34 -4.66 5.68 -5 5 C-3.68 4.67 -2.36 4.34 -1 4 C-0.67 2.68 -0.34 1.36 0 0 Z " fill="#B0DBE4" transform="translate(87,120)"/>
<path d="M0 0 C0.66 0 1.32 0 2 0 C2.33 1.65 2.66 3.3 3 5 C-2.625 10 -2.625 10 -6 10 C-6.625 8.125 -6.625 8.125 -7 6 C-4.64046906 3.64046906 -3.22104383 3.50858587 0 3 C0 2.01 0 1.02 0 0 Z " fill="#E0F0F2" transform="translate(75,129)"/>
<path d="M0 0 C2.29109597 -0.08075665 4.58299267 -0.13907731 6.875 -0.1875 C8.78925781 -0.23970703 8.78925781 -0.23970703 10.7421875 -0.29296875 C11.81726563 -0.19628906 12.89234375 -0.09960938 14 0 C14.66 0.99 15.32 1.98 16 3 C10.72 3 5.44 3 0 3 C0 2.01 0 1.02 0 0 Z " fill="#B8D36B" transform="translate(76,141)"/>
<path d="M0 0 C2.12493141 -0.02693575 4.24995912 -0.04636628 6.375 -0.0625 C7.55835938 -0.07410156 8.74171875 -0.08570313 9.9609375 -0.09765625 C13 0 13 0 15 1 C13.86695008 4.39914975 12.87481525 5.05254451 10 7 C9.67 5.35 9.34 3.7 9 2 C4.545 2.495 4.545 2.495 0 3 C0 2.01 0 1.02 0 0 Z " fill="#D8EEB6" transform="translate(48,136)"/>
<path d="M0 0 C4.95 0.99 4.95 0.99 10 2 C10.33 3.98 10.66 5.96 11 8 C6.97454466 7.71915428 5.25517374 7.21634296 2.125 4.5625 C0 2 0 2 0 0 Z " fill="#B9E4FA" transform="translate(102,144)"/>
<path d="M0 0 C0.66 0.33 1.32 0.66 2 1 C1.67 3.64 1.34 6.28 1 9 C1.66 9.33 2.32 9.66 3 10 C2.01 10.33 1.02 10.66 0 11 C0 10.34 0 9.68 0 9 C-1.32 9 -2.64 9 -4 9 C-4 7.02 -4 5.04 -4 3 C-2.68 2.67 -1.36 2.34 0 2 C0 1.34 0 0.68 0 0 Z " fill="#A3CFEE" transform="translate(97,147)"/>
<path d="M0 0 C0.33 0.66 0.66 1.32 1 2 C0.67 2.66 0.34 3.32 0 4 C2.97 4 5.94 4 9 4 C9 4.66 9 5.32 9 6 C7.35 6 5.7 6 4 6 C3.67 7.32 3.34 8.64 3 10 C2.01 9.67 1.02 9.34 0 9 C-1.3125 6.125 -1.3125 6.125 -2 3 C-1.34 2.01 -0.68 1.02 0 0 Z " fill="#EAF5F1" transform="translate(83,114)"/>
<path d="M0 0 C0 1.98 0 3.96 0 6 C-1.32 6.33 -2.64 6.66 -4 7 C-4 5.68 -4 4.36 -4 3 C-5.65 2.67 -7.3 2.34 -9 2 C-9 1.01 -9 0.02 -9 -1 C-5.23375329 -2.25541557 -3.62811066 -1.37061958 0 0 Z " fill="#3A6319" transform="translate(111,102)"/>
<path d="M0 0 C1.65 0 3.3 0 5 0 C5 2.64 5 5.28 5 8 C3.35 8 1.7 8 0 8 C0 5.36 0 2.72 0 0 Z " fill="#98D4FA" transform="translate(125,147)"/>
<path d="M0 0 C2.625 0.375 2.625 0.375 5 1 C5.33 1.99 5.66 2.98 6 4 C5.67 4.33 5.34 4.66 5 5 C4.67 5.66 4.34 6.32 4 7 C1.4375 7.625 1.4375 7.625 -1 8 C-1.625 5.125 -1.625 5.125 -2 2 C-1.34 1.34 -0.68 0.68 0 0 Z " fill="#869C41" transform="translate(117,92)"/>
<path d="M0 0 C0.66 0 1.32 0 2 0 C1.67 2.97 1.34 5.94 1 9 C-0.65 9 -2.3 9 -4 9 C-4 6.69 -4 4.38 -4 2 C-2.68 2 -1.36 2 0 2 C0 1.34 0 0.68 0 0 Z " fill="#97D7F6" transform="translate(164,146)"/>
<path d="M0 0 C1.09658936 3.28976808 0.79953138 4.71303767 0 8 C-1.65 8 -3.3 8 -5 8 C-5 5.69 -5 3.38 -5 1 C-3.35 0.67 -1.7 0.34 0 0 Z " fill="#9BD6F6" transform="translate(139,147)"/>
<path d="M0 0 C0.66 0 1.32 0 2 0 C2.33 1.65 2.66 3.3 3 5 C2.21625 5.391875 1.4325 5.78375 0.625 6.1875 C-2.35156418 8.24274669 -2.98823563 9.59679258 -4 13 C-5.5625 11.75 -5.5625 11.75 -7 10 C-6.6875 7.8125 -6.6875 7.8125 -6 6 C-4.68 6 -3.36 6 -2 6 C-2 5.01 -2 4.02 -2 3 C-1.34 3 -0.68 3 0 3 C0 2.01 0 1.02 0 0 Z " fill="#E5ECF5" transform="translate(70,126)"/>
<path d="M0 0 C3.60654039 2.40436026 3.85452932 3.94679607 5 8 C3.68 8.33 2.36 8.66 1 9 C1 7.68 1 6.36 1 5 C-1.64 5.33 -4.28 5.66 -7 6 C-4.74259377 3.66475218 -2.7194239 1.81294927 0 0 Z " fill="#70A235" transform="translate(91,96)"/>
<path d="M0 0 C0.33 0.66 0.66 1.32 1 2 C3.52733235 2.65555119 3.52733235 2.65555119 6 3 C6 4.65 6 6.3 6 8 C4.02 8 2.04 8 0 8 C0 5.36 0 2.72 0 0 Z " fill="#AECD6D" transform="translate(86,147)"/>
<path d="M0 0 C2.31 0.66 4.62 1.32 7 2 C6.67 3.32 6.34 4.64 6 6 C1.545 6.495 1.545 6.495 -3 7 C-2.67 6.34 -2.34 5.68 -2 5 C-1.34 5 -0.68 5 0 5 C0 3.35 0 1.7 0 0 Z " fill="#B1DDE5" transform="translate(83,132)"/>
<path d="M0 0 C2.97 0 5.94 0 9 0 C9 0.33 9 0.66 9 1 C6.69 1 4.38 1 2 1 C2 1.66 2 2.32 2 3 C3.32 3.33 4.64 3.66 6 4 C6 4.66 6 5.32 6 6 C7.98 5.67 9.96 5.34 12 5 C12 5.66 12 6.32 12 7 C9.3125 7.75 9.3125 7.75 6 8 C3.1875 6.3125 3.1875 6.3125 1 4 C0.67 2.68 0.34 1.36 0 0 Z " fill="#2E2907" transform="translate(119,113)"/>
<path d="M0 0 C4.07145804 1.35715268 4.88784109 3.33892455 7 7 C7.75 9.875 7.75 9.875 8 12 C6.8944811 11.06409496 5.79064547 10.12620142 4.6875 9.1875 C4.07261719 8.66542969 3.45773438 8.14335938 2.82421875 7.60546875 C1.14575321 6.12827531 -0.43882034 4.59960869 -2 3 C-1.34 2.67 -0.68 2.34 0 2 C0 1.34 0 0.68 0 0 Z " fill="#ABC93F" transform="translate(146,96)"/>
<path d="M0 0 C1.32 0.33 2.64 0.66 4 1 C4 1.99 4 2.98 4 4 C-3.92 3.67 -11.84 3.34 -20 3 C-20 2.67 -20 2.34 -20 2 C-13.4 2 -6.8 2 0 2 C0 1.34 0 0.68 0 0 Z " fill="#CEDAB7" transform="translate(126,78)"/>
<path d="M0 0 C1.32 0 2.64 0 4 0 C4.33 2.31 4.66 4.62 5 7 C3.02 7 1.04 7 -1 7 C-0.67 4.69 -0.34 2.38 0 0 Z " fill="#BDD572" transform="translate(76,148)"/>
<path d="M0 0 C1.32 0 2.64 0 4 0 C4.33 2.64 4.66 5.28 5 8 C3.68 8 2.36 8 1 8 C0.67 8.66 0.34 9.32 0 10 C0 6.7 0 3.4 0 0 Z " fill="#EDF7FC" transform="translate(167,147)"/>
<path d="M0 0 C0.99 0.33 1.98 0.66 3 1 C2.34 1 1.68 1 1 1 C1 4.96 1 8.92 1 13 C0.01 12.67 -0.98 12.34 -2 12 C-2.94921875 9.93359375 -2.94921875 9.93359375 -3.6875 7.4375 C-3.93886719 6.61121094 -4.19023438 5.78492188 -4.44921875 4.93359375 C-4.63097656 4.29550781 -4.81273438 3.65742188 -5 3 C-3.68 3.99 -2.36 4.98 -1 6 C-0.67 5.01 -0.34 4.02 0 3 C-0.66 2.67 -1.32 2.34 -2 2 C-1.34 2 -0.68 2 0 2 C0 1.34 0 0.68 0 0 Z " fill="#07284C" transform="translate(115,140)"/>
<path d="M0 0 C0.66 0 1.32 0 2 0 C2 3.3 2 6.6 2 10 C0.68 10 -0.64 10 -2 10 C-1.85950482 8.52031676 -1.71245174 7.04125484 -1.5625 5.5625 C-1.48128906 4.73878906 -1.40007812 3.91507813 -1.31640625 3.06640625 C-1 1 -1 1 0 0 Z " fill="#0A3264" transform="translate(123,145)"/>
<path d="M0 0 C2.31 0.33 4.62 0.66 7 1 C6.360625 1.2475 5.72125 1.495 5.0625 1.75 C2.81258459 2.81562433 2.81258459 2.81562433 2.25 5.125 C2.1675 5.74375 2.085 6.3625 2 7 C4.64 7 7.28 7 10 7 C10 7.33 10 7.66 10 8 C2.25 9.125 2.25 9.125 0 8 C0 5.36 0 2.72 0 0 Z " fill="#193D68" transform="translate(98,148)"/>
<path d="M0 0 C3.3 0.33 6.6 0.66 10 1 C10 1.66 10 2.32 10 3 C9.34 3 8.68 3 8 3 C9.3089572 6.12197478 9.3089572 6.12197478 12 8 C11.67 9.32 11.34 10.64 11 12 C10.29875 10.9275 9.5975 9.855 8.875 8.75 C6.33070545 5.14862032 3.74469346 3.26423326 0 1 C0 0.67 0 0.34 0 0 Z " fill="#DFF9FD" transform="translate(149,95)"/>
<path d="M0 0 C2.31 0 4.62 0 7 0 C8.04449911 3.13349732 7.93423645 3.98968256 7 7 C6.566875 6.505 6.13375 6.01 5.6875 5.5 C4.00259517 3.66781808 4.00259517 3.66781808 1 4 C0.67 2.68 0.34 1.36 0 0 Z " fill="#537694" transform="translate(107,140)"/>
<path d="M0 0 C2.375 1.5625 2.375 1.5625 4 4 C4.25 7.75 4.25 7.75 4 11 C2 7 2 7 0 3 C-2.64 3 -5.28 3 -8 3 C-8.33 2.34 -8.66 1.68 -9 1 C-5.68377419 -0.1054086 -3.47482175 -0.35457365 0 0 Z " fill="#37474B" transform="translate(90,139)"/>
<path d="M0 0 C0.66 0 1.32 0 2 0 C2 1.32 2 2.64 2 4 C2.66 4.33 3.32 4.66 4 5 C4 5.66 4 6.32 4 7 C0.7 7.33 -2.6 7.66 -6 8 C-6.33 7.34 -6.66 6.68 -7 6 C-6.21625 5.938125 -5.4325 5.87625 -4.625 5.8125 C-3.75875 5.544375 -2.8925 5.27625 -2 5 C-0.62533375 2.52363988 -0.62533375 2.52363988 0 0 Z " fill="#DAF3F7" transform="translate(135,132)"/>
<path d="M0 0 C2.51774621 1.2588731 4.08414923 2.95642585 6 5 C6 5.33 6 5.66 6 6 C2.37 6 -1.26 6 -5 6 C-3.35 4.02 -1.7 2.04 0 0 Z " fill="#051E27" transform="translate(119,83)"/>
<path d="M0 0 C1.65 0 3.3 0 5 0 C5 1.98 5 3.96 5 6 C3.02 6 1.04 6 -1 6 C-0.67 4.02 -0.34 2.04 0 0 Z " fill="#5A7936" transform="translate(53,140)"/>
<path d="M0 0 C0.66 0.99 1.32 1.98 2 3 C1.525625 3.391875 1.05125 3.78375 0.5625 4.1875 C-1.35179633 6.40808374 -1.61266988 8.13375709 -2 11 C-0.35 11 1.3 11 3 11 C2.67 11.66 2.34 12.32 2 13 C-0.97 12.505 -0.97 12.505 -4 12 C-4.25 6.375 -4.25 6.375 -2 3 C-2.66 2.67 -3.32 2.34 -4 2 C-2.68 2 -1.36 2 0 2 C0 1.34 0 0.68 0 0 Z " fill="#34A2D1" transform="translate(151,126)"/>
<path d="M0 0 C2 1 2 1 3.375 3.9375 C5.03813522 7.07187022 5.74023094 7.8759417 9 9 C9 9.33 9 9.66 9 10 C6.69 9.67 4.38 9.34 2 9 C1.67 9.66 1.34 10.32 1 11 C0.67 7.37 0.34 3.74 0 0 Z " fill="#B0D230" transform="translate(115,111)"/>
<path d="M0 0 C2.00293347 3.00440021 2.49271626 4.70993945 3.125 8.1875 C3.29257813 9.08855469 3.46015625 9.98960938 3.6328125 10.91796875 C3.75398438 11.60503906 3.87515625 12.29210937 4 13 C3.01 13.66 2.02 14.32 1 15 C0.67 11.04 0.34 7.08 0 3 C-0.66 3 -1.32 3 -2 3 C-2 2.34 -2 1.68 -2 1 C-1.34 0.67 -0.68 0.34 0 0 Z " fill="#73A719" transform="translate(111,99)"/>
<path d="M0 0 C0.99 0 1.98 0 3 0 C3.33 2.31 3.66 4.62 4 7 C2.68 7 1.36 7 0 7 C-0.38133299 5.0085944 -0.71325582 3.00720923 -1 1 C-0.67 0.67 -0.34 0.34 0 0 Z " fill="#BDC1BA" transform="translate(119,100)"/>
<path d="M0 0 C1.98 0 3.96 0 6 0 C5.67 0.66 5.34 1.32 5 2 C6.32 2.66 7.64 3.32 9 4 C8.67 5.98 8.34 7.96 8 10 C7.67 10 7.34 10 7 10 C7 8.35 7 6.7 7 5 C4.69 4.67 2.38 4.34 0 4 C0 2.68 0 1.36 0 0 Z " fill="#6EACDA" transform="translate(171,141)"/>
<path d="M0 0 C0.33 0.66 0.66 1.32 1 2 C0.06553465 4.03144641 -0.93224776 6.03533587 -2 8 C0.97 8 3.94 8 7 8 C7 8.33 7 8.66 7 9 C4.36 9 1.72 9 -1 9 C-1.33 9.66 -1.66 10.32 -2 11 C-3.32 10.01 -4.64 9.02 -6 8 C-4.02 5.36 -2.04 2.72 0 0 Z " fill="#DBF7FC" transform="translate(159,130)"/>
<path d="M0 0 C3.09415757 0.42656082 6.05880129 0.92998438 9 2 C10.5625 4.625 10.5625 4.625 11 7 C10.01 7 9.02 7 8 7 C8 6.34 8 5.68 8 5 C7.01 5 6.02 5 5 5 C5 4.34 5 3.68 5 3 C3.35 3 1.7 3 0 3 C0 2.01 0 1.02 0 0 Z " fill="#AFCB15" transform="translate(136,92)"/>
<path d="M0 0 C1.65 0 3.3 0 5 0 C3.68 0.33 2.36 0.66 1 1 C1 3.97 1 6.94 1 10 C0.01 10 -0.98 10 -2 10 C-2 7.36 -2 4.72 -2 2 C-1.34 2 -0.68 2 0 2 C0 1.34 0 0.68 0 0 Z " fill="#03265C" transform="translate(159,140)"/>
<path d="M0 0 C0.33 0 0.66 0 1 0 C1.33 4.29 1.66 8.58 2 13 C0.35 13.66 -1.3 14.32 -3 15 C-3.33 14.34 -3.66 13.68 -4 13 C-2.35 12.34 -0.7 11.68 1 11 C1 10.34 1 9.68 1 9 C0.01 9.33 -0.98 9.66 -2 10 C-1.34 6.7 -0.68 3.4 0 0 Z " fill="#AEC358" transform="translate(133,110)"/>
<path d="M0 0 C1.32 0 2.64 0 4 0 C4 1.65 4 3.3 4 5 C5.65 5 7.3 5 9 5 C9 5.33 9 5.66 9 6 C6.03 6 3.06 6 0 6 C0 4.02 0 2.04 0 0 Z " fill="#163D75" transform="translate(156,150)"/>
<path d="M0 0 C-0.75 4.75 -0.75 4.75 -3 7 C-5.125 6.625 -5.125 6.625 -7 6 C-7 4 -7 4 -5 2 C-2 0 -2 0 0 0 Z " fill="#B6D069" transform="translate(64,139)"/>
<path d="M0 0 C0.9075 0.845625 1.815 1.69125 2.75 2.5625 C-1.18670488 3.87473496 -3.37488144 2.80546256 -7.25 1.5625 C-7.25 0.5725 -7.25 -0.4175 -7.25 -1.4375 C-3.94570398 -3.08964801 -2.6314224 -2.21987293 0 0 Z " fill="#76B9E0" transform="translate(108.25,142.4375)"/>
<path d="M0 0 C0 3 0 3 -2 6 C-6.62 5.34 -11.24 4.68 -16 4 C-16 3.67 -16 3.34 -16 3 C-15.09636719 2.95101562 -14.19273438 2.90203125 -13.26171875 2.8515625 C-12.08222656 2.77679688 -10.90273438 2.70203125 -9.6875 2.625 C-7.92986328 2.52058594 -7.92986328 2.52058594 -6.13671875 2.4140625 C-2.84300113 2.21386253 -2.84300113 2.21386253 0 0 Z " fill="#ECF7F7" transform="translate(64,154)"/>
<path d="M0 0 C2.64 0 5.28 0 8 0 C7.67 1.32 7.34 2.64 7 4 C4.69 4 2.38 4 0 4 C-0.33 3.34 -0.66 2.68 -1 2 C-0.67 1.34 -0.34 0.68 0 0 Z " fill="#83C1EE" transform="translate(174,151)"/>
<path d="M0 0 C0.66 0.66 1.32 1.32 2 2 C1.625 5.625 1.625 5.625 1 9 C1.99 9 2.98 9 4 9 C2.8141763 12.37503669 1.72426311 14.64722731 -1 17 C-0.814375 16.01 -0.62875 15.02 -0.4375 14 C-0.00540646 11.09372702 -0.08031263 8.59343663 -0.5 5.6875 C-1 2 -1 2 0 0 Z " fill="#1D9AD5" transform="translate(156,119)"/>
<path d="M0 0 C0.99 0.33 1.98 0.66 3 1 C3.33 2.65 3.66 4.3 4 6 C4.66 6 5.32 6 6 6 C6 4.35 6 2.7 6 1 C6.33 1 6.66 1 7 1 C7.33 3.31 7.66 5.62 8 8 C6.02 8 4.04 8 2 8 C1.34 5.36 0.68 2.72 0 0 Z " fill="#398142" transform="translate(108,121)"/>
<path d="M0 0 C-0.33 1.32 -0.66 2.64 -1 4 C-2.32 4 -3.64 4 -5 4 C-5.33 4.66 -5.66 5.32 -6 6 C-6.99 5.67 -7.98 5.34 -9 5 C-9 4.01 -9 3.02 -9 2 C-2.25 0 -2.25 0 0 0 Z " fill="#B5CF2D" transform="translate(134,119)"/>
<path d="M0 0 C1.65 0 3.3 0 5 0 C5.33 1.32 5.66 2.64 6 4 C4 4 2 4 0 4 C-0.66 4.66 -1.32 5.32 -2 6 C-1.49396008 3.83125748 -1.00016187 2.00032373 0 0 Z " fill="#71854E" transform="translate(127,90)"/>
<path d="M0 0 C1.65 0 3.3 0 5 0 C5 1.65 5 3.3 5 5 C3.02 5 1.04 5 -1 5 C-0.67 3.35 -0.34 1.7 0 0 Z " fill="#B8D463" transform="translate(67,150)"/>
<path d="M0 0 C0.33 0 0.66 0 1 0 C0.93993922 1.45947705 0.8511311 2.91779272 0.75 4.375 C0.68039063 5.59316406 0.68039063 5.59316406 0.609375 6.8359375 C0 9 0 9 -1.90625 10.34375 C-4 11 -4 11 -6.25 10.125 C-6.8275 9.75375 -7.405 9.3825 -8 9 C-5.69 8.34 -3.38 7.68 -1 7 C-0.67 4.69 -0.34 2.38 0 0 Z " fill="#93B9C7" transform="translate(101,122)"/>
<path d="M0 0 C0.66 0 1.32 0 2 0 C2.66 2.31 3.32 4.62 4 7 C2.68 7.99 1.36 8.98 0 10 C0 6.7 0 3.4 0 0 Z " fill="#089CD9" transform="translate(157,106)"/>
<path d="M0 0 C0.66 0.66 1.32 1.32 2 2 C1.625 5.625 1.625 5.625 1 9 C0.34 9 -0.32 9 -1 9 C-1 8.01 -1 7.02 -1 6 C-1.66 6 -2.32 6 -3 6 C-3 5.34 -3 4.68 -3 4 C-2.34 4 -1.68 4 -1 4 C-0.67 2.68 -0.34 1.36 0 0 Z " fill="#F3FAF4" transform="translate(95,104)"/>
<path d="M0 0 C0.99 0.33 1.98 0.66 3 1 C2.34 2.98 1.68 4.96 1 7 C0.01 7 -0.98 7 -2 7 C-2 5.02 -2 3.04 -2 1 C-1.34 0.67 -0.68 0.34 0 0 Z " fill="#5FA417" transform="translate(90,100)"/>
<path d="M0 0 C1.65 0 3.3 0 5 0 C4.01 1.98 3.02 3.96 2 6 C0.68 5.34 -0.64 4.68 -2 4 C-1.34 2.68 -0.68 1.36 0 0 Z " fill="#12262C" transform="translate(106,84)"/>
<path d="M0 0 C0 1.98 0 3.96 0 6 C1.65 6 3.3 6 5 6 C5 6.33 5 6.66 5 7 C1.37 7 -2.26 7 -6 7 C-4.68 6.34 -3.36 5.68 -2 5 C-1.67 4.34 -1.34 3.68 -1 3 C-1.99 3 -2.98 3 -4 3 C-4 2.34 -4 1.68 -4 1 C-2 0 -2 0 0 0 Z " fill="#0B3864" transform="translate(151,149)"/>
<path d="M0 0 C0.33 0 0.66 0 1 0 C1.268125 1.258125 1.53625 2.51625 1.8125 3.8125 C2.59532537 6.99448801 3.25335928 9.00244311 6 11 C2.62537285 10.45276317 0.91765 9.9451 -2 8 C-2 7.34 -2 6.68 -2 6 C-1.34 6 -0.68 6 0 6 C0 4.02 0 2.04 0 0 Z " fill="#E8F6FC" transform="translate(98,138)"/>
<path d="M0 0 C0.33 0 0.66 0 1 0 C1.28571429 8.57142857 1.28571429 8.57142857 -1 12 C-3.475 11.01 -3.475 11.01 -6 10 C-5.195625 9.278125 -4.39125 8.55625 -3.5625 7.8125 C-0.97707928 4.97484311 -0.31957187 3.72833853 0 0 Z " fill="#DCFDFE" transform="translate(155,108)"/>
<path d="M0 0 C0 2.83967231 -0.40267181 5.23735711 -1 8 C-2.98 8.33 -4.96 8.66 -7 9 C-2.85714286 2.57142857 -2.85714286 2.57142857 0 0 Z " fill="#5C982A" transform="translate(83,102)"/>
<path d="M0 0 C0.66 0.66 1.32 1.32 2 2 C1.625 4.625 1.625 4.625 1 7 C-0.65 6.67 -2.3 6.34 -4 6 C-4 5.34 -4 4.68 -4 4 C-3.01 4 -2.02 4 -1 4 C-0.67 2.68 -0.34 1.36 0 0 Z " fill="#B9DEDB" transform="translate(97,109)"/>
<path d="M0 0 C1.65 0 3.3 0 5 0 C5.33 1.32 5.66 2.64 6 4 C4.02 4 2.04 4 0 4 C0 2.68 0 1.36 0 0 Z " fill="#3E4B44" transform="translate(52,147)"/>
<path d="M0 0 C0.99 0 1.98 0 3 0 C3.66 2.31 4.32 4.62 5 7 C1.71023192 8.09658936 0.28696233 7.79953138 -3 7 C-1.68 6.67 -0.36 6.34 1 6 C1.33 4.68 1.66 3.36 2 2 C1.01 1.67 0.02 1.34 -1 1 C-0.67 0.67 -0.34 0.34 0 0 Z " fill="#DEF7FA" transform="translate(88,132)"/>
<path d="M0 0 C1.65 0 3.3 0 5 0 C5.33 0.99 5.66 1.98 6 3 C3.29120665 4.35439668 0.99066732 4.06501451 -2 4 C-2 3.34 -2 2.68 -2 2 C-1.34 2 -0.68 2 0 2 C0 1.34 0 0.68 0 0 Z " fill="#DDEDF3" transform="translate(94,126)"/>
<path d="M0 0 C1.32 0 2.64 0 4 0 C4.33 1.98 4.66 3.96 5 6 C3.68 6.33 2.36 6.66 1 7 C1 6.01 1 5.02 1 4 C1.66 4.33 2.32 4.66 3 5 C3 4.01 3 3.02 3 2 C2.01 2 1.02 2 0 2 C0 1.34 0 0.68 0 0 Z " fill="#A8C262" transform="translate(103,123)"/>
<path d="M0 0 C0.99 0.99 1.98 1.98 3 3 C2.67 3.99 2.34 4.98 2 6 C4.97 6.495 4.97 6.495 8 7 C8 7.33 8 7.66 8 8 C5.69 8 3.38 8 1 8 C0.26919734 6.02253397 -0.39421747 4.01927511 -1 2 C-0.67 1.34 -0.34 0.68 0 0 Z " fill="#BFE7F1" transform="translate(81,120)"/>
<path d="M0 0 C1.32 0 2.64 0 4 0 C4.33 0.99 4.66 1.98 5 3 C4.34 3.66 3.68 4.32 3 5 C2.34 5 1.68 5 1 5 C0.01 5.66 -0.98 6.32 -2 7 C-2.99 6.67 -3.98 6.34 -5 6 C-3.02 4.68 -1.04 3.36 1 2 C0.67 1.34 0.34 0.68 0 0 Z " fill="#8DB657" transform="translate(104,90)"/>
<path d="M0 0 C2.475 0.99 2.475 0.99 5 2 C4.67 2.99 4.34 3.98 4 5 C2.02 5 0.04 5 -2 5 C-1.34 3.35 -0.68 1.7 0 0 Z " fill="#72BFE6" transform="translate(145,150)"/>
<path d="M0 0 C2.31 0.33 4.62 0.66 7 1 C5.68 2.32 4.36 3.64 3 5 C2.67 4.34 2.34 3.68 2 3 C1.01 2.67 0.02 2.34 -1 2 C-0.67 1.34 -0.34 0.68 0 0 Z " fill="#A2D6E8" transform="translate(137,134)"/>
<path d="M0 0 C-0.33 1.32 -0.66 2.64 -1 4 C-2.65 4.33 -4.3 4.66 -6 5 C-5.625 3.0625 -5.625 3.0625 -5 1 C-3 0 -3 0 0 0 Z " fill="#BBC9B9" transform="translate(75,134)"/>
<path d="M0 0 C0.66 0.33 1.32 0.66 2 1 C1.64766839 6.4611399 1.64766839 6.4611399 1 9 C-1.0625 10.5 -1.0625 10.5 -3 11 C-3.33 10.01 -3.66 9.02 -4 8 C-3.01 8 -2.02 8 -1 8 C-1.020625 6.865625 -1.04125 5.73125 -1.0625 4.5625 C-1 1 -1 1 0 0 Z " fill="#E4F8E4" transform="translate(72,115)"/>
<path d="M0 0 C2 1 2 1 3 3 C3.99 3.66 4.98 4.32 6 5 C5.34 5 4.68 5 4 5 C3.67 5.66 3.34 6.32 3 7 C2.01 7 1.02 7 0 7 C-1.04449911 3.86650268 -0.93423645 3.01031744 0 0 Z " fill="#659C3A" transform="translate(100,105)"/>
<path d="M0 0 C0.66 0.66 1.32 1.32 2 2 C0.35 3.65 -1.3 5.3 -3 7 C-3.66 5.68 -4.32 4.36 -5 3 C-3.35 2.01 -1.7 1.02 0 0 Z " fill="#1D2E2B" transform="translate(129,81)"/>
<path d="M0 0 C3.96 0 7.92 0 12 0 C11.67 0.99 11.34 1.98 11 3 C10.37351563 2.9278125 9.74703125 2.855625 9.1015625 2.78125 C8.28429687 2.6884375 7.46703125 2.595625 6.625 2.5 C5.81289062 2.4071875 5.00078125 2.314375 4.1640625 2.21875 C2.03087175 1.96647649 2.03087175 1.96647649 0 2 C0 1.34 0 0.68 0 0 Z " fill="#89CCF2" transform="translate(144,141)"/>
<path d="M0 0 C0.33 0 0.66 0 1 0 C1 1.98 1 3.96 1 6 C-1.31 6.33 -3.62 6.66 -6 7 C-5.34 6.67 -4.68 6.34 -4 6 C-4 5.01 -4 4.02 -4 3 C-2.68 3 -1.36 3 0 3 C0 2.01 0 1.02 0 0 Z " fill="#9FCDEF" transform="translate(178,135)"/>
<path d="M0 0 C0.66 0 1.32 0 2 0 C2.33 1.65 2.66 3.3 3 5 C1.35 5 -0.3 5 -2 5 C-2 2 -2 2 0 0 Z " fill="#506E5C" transform="translate(77,134)"/>
<path d="M0 0 C1.98 0 3.96 0 6 0 C5.67 0.99 5.34 1.98 5 3 C5.66 3 6.32 3 7 3 C7 4.65 7 6.3 7 8 C5 6.6875 5 6.6875 3 5 C3 4.01 3 3.02 3 2 C2.01 1.34 1.02 0.68 0 0 Z " fill="#D3E9E5" transform="translate(124,126)"/>
<path d="M0 0 C3.3 0.33 6.6 0.66 10 1 C10 1.33 10 1.66 10 2 C7.36 2 4.72 2 2 2 C1.71125 2.639375 1.4225 3.27875 1.125 3.9375 C0 6 0 6 -2 7 C-1.34 4.69 -0.68 2.38 0 0 Z " fill="#5F7755" transform="translate(104,78)"/>
<path d="M0 0 C3.375 -0.1875 3.375 -0.1875 7 0 C7.66 0.99 8.32 1.98 9 3 C5.7 2.67 2.4 2.34 -1 2 C-0.67 1.34 -0.34 0.68 0 0 Z " fill="#C1DB82" transform="translate(83,141)"/>
<path d="M0 0 C0.99 0.99 1.98 1.98 3 3 C2.67 3.66 2.34 4.32 2 5 C0.35 5 -1.3 5 -3 5 C-2.625 3.0625 -2.625 3.0625 -2 1 C-1.34 0.67 -0.68 0.34 0 0 Z " fill="#95CFF1" transform="translate(104,136)"/>
<path d="M0 0 C1.32 0.33 2.64 0.66 4 1 C3.67 1.33 3.34 1.66 3 2 C3.99 2.66 4.98 3.32 6 4 C5.67 5.32 5.34 6.64 5 8 C4.34 7.01 3.68 6.02 3 5 C2.01 4.67 1.02 4.34 0 4 C0 2.68 0 1.36 0 0 Z " fill="#B7D7E0" transform="translate(148,115)"/>
<path d="M0 0 C2.31 0.33 4.62 0.66 7 1 C6.34 2.65 5.68 4.3 5 6 C4.34 6 3.68 6 3 6 C2.67 4.68 2.34 3.36 2 2 C1.34 2 0.68 2 0 2 C0 1.34 0 0.68 0 0 Z " fill="#C3DE5B" transform="translate(120,95)"/>
<path d="M0 0 C0.33 0 0.66 0 1 0 C0.67 2.64 0.34 5.28 0 8 C-0.66 7.67 -1.32 7.34 -2 7 C-2.66 7 -3.32 7 -4 7 C-3.67 5.68 -3.34 4.36 -3 3 C-2.01 3 -1.02 3 0 3 C0 2.01 0 1.02 0 0 Z " fill="#303D46" transform="translate(66,149)"/>
<path d="M0 0 C0.99 0 1.98 0 3 0 C3.66 1.65 4.32 3.3 5 5 C3.35 5 1.7 5 0 5 C0 3.35 0 1.7 0 0 Z " fill="#14A8E9" transform="translate(149,132)"/>
<path d="M0 0 C0 0.66 0 1.32 0 2 C-1.98 2.33 -3.96 2.66 -6 3 C-6 2.01 -6 1.02 -6 0 C-3 -1 -3 -1 0 0 Z " fill="#70B8CE" transform="translate(130,133)"/>
<path d="M0 0 C0.66 0 1.32 0 2 0 C2.33 1.65 2.66 3.3 3 5 C1.35 5.66 -0.3 6.32 -2 7 C-2 5.68 -2 4.36 -2 3 C-1.34 3 -0.68 3 0 3 C0 2.01 0 1.02 0 0 Z " fill="#E8F7ED" transform="translate(70,126)"/>
<path d="M0 0 C0 0.99 0 1.98 0 3 C-1.98 3 -3.96 3 -6 3 C-6.33 2.34 -6.66 1.68 -7 1 C-4.53721199 -0.231394 -2.7204945 -0.07159196 0 0 Z " fill="#66B4D0" transform="translate(89,124)"/>
<path d="M0 0 C0.99 0 1.98 0 3 0 C3 2.31 3 4.62 3 7 C2.34 7 1.68 7 1 7 C0.34 5.02 -0.32 3.04 -1 1 C-0.67 0.67 -0.34 0.34 0 0 Z " fill="#2E9434" transform="translate(111,120)"/>
<path d="M0 0 C1.65 0.33 3.3 0.66 5 1 C3.625 2.5 3.625 2.5 2 4 C1.34 4 0.68 4 0 4 C-0.33 4.66 -0.66 5.32 -1 6 C-1.33 4.68 -1.66 3.36 -2 2 C-1.34 2 -0.68 2 0 2 C0 1.34 0 0.68 0 0 Z " fill="#06280D" transform="translate(95,94)"/>
<path d="M0 0 C0 0.66 0 1.32 0 2 C-0.99 2 -1.98 2 -3 2 C-3 2.66 -3 3.32 -3 4 C-4.32 4 -5.64 4 -7 4 C-7 3.01 -7 2.02 -7 1 C-4.50935112 0.31292445 -2.62113708 0 0 0 Z " fill="#52B1D3" transform="translate(167,144)"/>
<path d="M0 0 C1.32 0.33 2.64 0.66 4 1 C3.67 2.32 3.34 3.64 3 5 C2.01 5 1.02 5 0 5 C0 3.35 0 1.7 0 0 Z " fill="#B6D031" transform="translate(48,142)"/>
<path d="M0 0 C1.98 0 3.96 0 6 0 C6 0.99 6 1.98 6 3 C5.34 3 4.68 3 4 3 C3.67 3.66 3.34 4.32 3 5 C3 4.01 3 3.02 3 2 C2.01 2 1.02 2 0 2 C0 1.34 0 0.68 0 0 Z " fill="#75C3F0" transform="translate(123,141)"/>
<path d="M0 0 C2.97 0 5.94 0 9 0 C9 0.99 9 1.98 9 3 C2.25 2.25 2.25 2.25 0 0 Z " fill="#DDEEE3" transform="translate(111,130)"/>
<path d="M0 0 C2.475 0.495 2.475 0.495 5 1 C4.67 1.99 4.34 2.98 4 4 C2.68 4 1.36 4 0 4 C0 2.68 0 1.36 0 0 Z " fill="#D0DFDD" transform="translate(139,118)"/>
<path d="M0 0 C0.33 0.99 0.66 1.98 1 3 C1.99 3.33 2.98 3.66 4 4 C1.03 4 -1.94 4 -5 4 C-3.35 2.68 -1.7 1.36 0 0 Z " fill="#CADEF1" transform="translate(113,154)"/>
<path d="M0 0 C0.99 0.33 1.98 0.66 3 1 C3 1.99 3 2.98 3 4 C1.35 4 -0.3 4 -2 4 C-2 3.01 -2 2.02 -2 1 C-1.34 0.67 -0.68 0.34 0 0 Z " fill="#79C5F1" transform="translate(118,151)"/>
<path d="M0 0 C0.66 0.33 1.32 0.66 2 1 C2 2.98 2 4.96 2 7 C1.67 6.01 1.34 5.02 1 4 C-1.01508358 3.26676204 -1.01508358 3.26676204 -3 3 C-2.01 2.01 -1.02 1.02 0 0 Z " fill="#58A7D6" transform="translate(129,143)"/>
<path d="M0 0 C0.66 0 1.32 0 2 0 C1.67 1.65 1.34 3.3 1 5 C-0.65 5 -2.3 5 -4 5 C-4 4.34 -4 3.68 -4 3 C-2.68 3 -1.36 3 0 3 C0 2.01 0 1.02 0 0 Z " fill="#60A7D1" transform="translate(138,143)"/>
<path d="M0 0 C0.86625 0.556875 0.86625 0.556875 1.75 1.125 C1.75 3.105 1.75 5.085 1.75 7.125 C1.54375 6.50625 1.3375 5.8875 1.125 5.25 C-0.79775888 2.27846355 -2.91594527 1.99475341 -6.25 1.125 C-2.80384615 -1.09038462 -2.80384615 -1.09038462 0 0 Z " fill="#0D3A6B" transform="translate(139.25,139.875)"/>
<path d="M0 0 C0.66 0 1.32 0 2 0 C2 1.32 2 2.64 2 4 C3.65 4 5.3 4 7 4 C6.34 4.66 5.68 5.32 5 6 C2.375 5.625 2.375 5.625 0 5 C0 3.35 0 1.7 0 0 Z " fill="#23365C" transform="translate(113,135)"/>
<path d="M0 0 C0 0.66 0 1.32 0 2 C-1.32 2 -2.64 2 -4 2 C-4 2.99 -4 3.98 -4 5 C-4.99 4.67 -5.98 4.34 -7 4 C-6.67 3.01 -6.34 2.02 -6 1 C-4 0 -4 0 0 0 Z " fill="#1A3856" transform="translate(178,136)"/>
<path d="M0 0 C0.66 0 1.32 0 2 0 C1.01 2.97 0.02 5.94 -1 9 C-1.99 9 -2.98 9 -4 9 C-2.68 6.03 -1.36 3.06 0 0 Z " fill="#57942E" transform="translate(80,115)"/>
<path d="M0 0 C0.66 0 1.32 0 2 0 C1.67 2.97 1.34 5.94 1 9 C0.01 9 -0.98 9 -2 9 C-1.34 6.03 -0.68 3.06 0 0 Z " fill="#3F9ECD" transform="translate(155,116)"/>
<path d="M0 0 C1.65 0 3.3 0 5 0 C5 0.99 5 1.98 5 3 C3.68 3 2.36 3 1 3 C0.67 2.01 0.34 1.02 0 0 Z " fill="#C5DB77" transform="translate(111,91)"/>
<path d="M0 0 C1.32 1.65 2.64 3.3 4 5 C3.01 5.495 3.01 5.495 2 6 C1.34 6.99 0.68 7.98 0 9 C-1.125 3.375 -1.125 3.375 0 0 Z " fill="#E7F1D1" transform="translate(109,86)"/>
</svg>
