<?xml version="1.0" encoding="UTF-8"?>
<svg version="1.1" xmlns="http://www.w3.org/2000/svg" width="257" height="256">
<path d="M0 0 C84.81 0 169.62 0 257 0 C257 84.48 257 168.96 257 256 C172.19 256 87.38 256 0 256 C0 171.52 0 87.04 0 0 Z " fill="#FEFEFE" transform="translate(0,0)"/>
<path d="M0 0 C1.24824554 -0.0159874 2.49649109 -0.03197479 3.78256226 -0.04844666 C5.15142409 -0.0548232 6.52029081 -0.06021599 7.88916016 -0.06469727 C9.28919575 -0.07366149 10.68923034 -0.0827833 12.08926392 -0.09205627 C15.02649261 -0.10855914 17.96360715 -0.11624859 20.90087891 -0.11914062 C24.66297235 -0.12452331 28.42399139 -0.16219063 32.18578148 -0.20788479 C35.07860213 -0.23764481 37.97116387 -0.24486393 40.8641243 -0.24586678 C42.25082949 -0.25007198 43.63753524 -0.26251869 45.02408981 -0.28338432 C46.96509512 -0.31026578 48.90648759 -0.30237284 50.84765625 -0.29296875 C52.50406631 -0.30057472 52.50406631 -0.30057472 54.19393921 -0.30833435 C57.05322266 0.30639648 57.05322266 0.30639648 59.37564087 2.65586853 C61.23099088 5.58726484 62.04152936 8.05455619 62.80322266 11.43139648 C63.04556641 12.46522461 63.28791016 13.49905273 63.53759766 14.56420898 C64.05322266 17.30639648 64.05322266 17.30639648 64.05322266 20.30639648 C65.23295654 20.26712036 65.23295654 20.26712036 66.43652344 20.22705078 C70.01688482 20.12280172 73.59692646 20.05797898 77.17822266 19.99389648 C78.41572266 19.95200195 79.65322266 19.91010742 80.92822266 19.86694336 C91.20610532 19.72879978 91.20610532 19.72879978 94.79541016 22.63842773 C98.86473286 27.44698726 99.41794042 30.62082454 99.42822266 36.74389648 C99.45271484 37.50766602 99.47720703 38.27143555 99.50244141 39.05834961 C99.52126628 42.66331319 99.40984702 44.73632453 97.46728516 47.84155273 C94.24683874 49.79570711 91.75750453 49.40765802 88.05322266 49.30639648 C87.97539551 50.94874268 87.97539551 50.94874268 87.89599609 52.62426758 C87.35625424 63.43677382 86.47295226 74.17011177 85.30322266 84.93139648 C85.21807404 85.7243512 85.13292542 86.51730591 85.04519653 87.33428955 C84.40046554 93.32719362 83.73297311 99.31736955 83.05322266 105.30639648 C82.95056091 106.21139893 82.84789917 107.11640137 82.74212646 108.04882812 C82.11527425 113.54790522 81.4715459 119.04469038 80.80822754 124.53948975 C80.59842234 126.28524485 80.39174025 128.03137844 80.18835449 129.77789307 C79.90206402 132.22363003 79.60249564 134.66739034 79.29931641 137.11108398 C79.21812057 137.82411682 79.13692474 138.53714966 79.05326843 139.27178955 C78.17324419 146.1314918 76.6285037 152.76528538 70.99072266 157.24389648 C70.29849609 157.80979492 69.60626953 158.37569336 68.89306641 158.95874023 C65.24234726 161.63283387 62.13696857 161.46066641 57.76123047 161.4675293 C57.00979767 161.4724942 56.25836487 161.47745911 55.48416138 161.48257446 C52.99154756 161.49721056 50.49899744 161.50400143 48.00634766 161.50952148 C46.2748006 161.51527294 44.54325356 161.52103068 42.81170654 161.52679443 C39.1767141 161.53730936 35.5417438 161.54314841 31.90673828 161.54663086 C27.25509627 161.55210839 22.60374804 161.57611838 17.95219803 161.60460281 C14.37305863 161.62325544 10.7939895 161.62843625 7.2148056 161.62996674 C5.50043893 161.63298924 3.78607338 161.64100419 2.07175446 161.65415192 C-0.33145752 161.67126313 -2.73395836 161.66931973 -5.13720703 161.6628418 C-5.84185089 161.67205658 -6.54649475 161.68127136 -7.27249146 161.69076538 C-13.28937087 161.64012179 -17.93749865 159.74147387 -22.19677734 155.49389648 C-22.67630859 155.03370117 -23.15583984 154.57350586 -23.64990234 154.09936523 C-27.07770054 149.36033099 -27.45984236 143.44066394 -28.07592773 137.79760742 C-28.22025993 136.54754662 -28.22025993 136.54754662 -28.36750793 135.27223206 C-28.68266257 132.52907754 -28.98861818 129.78498153 -29.29443359 127.04077148 C-29.51283651 125.12267951 -29.73179356 123.20465057 -29.95127869 121.28668213 C-30.52710547 116.24089626 -31.09504121 111.19425177 -31.66143799 106.1473999 C-32.23651869 101.03706264 -32.819697 95.92765009 -33.40185547 90.81811523 C-36.98918877 59.27152484 -36.98918877 59.27152484 -37.94677734 49.30639648 C-38.85427734 49.38889648 -39.76177734 49.47139648 -40.69677734 49.55639648 C-43.94677734 49.30639648 -43.94677734 49.30639648 -46.12255859 47.78686523 C-48.61400583 44.39913719 -48.49843498 41.40860366 -48.38427734 37.36889648 C-48.39136719 36.66571289 -48.39845703 35.9625293 -48.40576172 35.23803711 C-48.35092982 30.73760345 -47.75291482 27.83709463 -44.94677734 24.30639648 C-41.12164119 20.64718511 -38.81987226 19.81591127 -33.55224609 19.91577148 C-32.35019531 19.92866211 -31.14814453 19.94155273 -29.90966797 19.95483398 C-28.66378906 19.98834961 -27.41791016 20.02186523 -26.13427734 20.05639648 C-24.8690625 20.07444336 -23.60384766 20.09249023 -22.30029297 20.11108398 C-19.181684 20.15815733 -16.06461761 20.22390554 -12.94677734 20.30639648 C-12.81980469 19.55946533 -12.69283203 18.81253418 -12.56201172 18.04296875 C-12.30387695 16.56654907 -12.30387695 16.56654907 -12.04052734 15.06030273 C-11.87230469 14.08649658 -11.70408203 13.11269043 -11.53076172 12.109375 C-9.9754499 4.64426839 -8.14390612 0.0785807 0 0 Z " fill="#A2DB78" transform="translate(102.94677734375,46.693603515625)"/>
<path d="M0 0 C1.24824554 -0.0159874 2.49649109 -0.03197479 3.78256226 -0.04844666 C5.15142409 -0.0548232 6.52029081 -0.06021599 7.88916016 -0.06469727 C9.28919575 -0.07366149 10.68923034 -0.0827833 12.08926392 -0.09205627 C15.02649261 -0.10855914 17.96360715 -0.11624859 20.90087891 -0.11914062 C24.66297235 -0.12452331 28.42399139 -0.16219063 32.18578148 -0.20788479 C35.07860213 -0.23764481 37.97116387 -0.24486393 40.8641243 -0.24586678 C42.25082949 -0.25007198 43.63753524 -0.26251869 45.02408981 -0.28338432 C46.96509512 -0.31026578 48.90648759 -0.30237284 50.84765625 -0.29296875 C52.50406631 -0.30057472 52.50406631 -0.30057472 54.19393921 -0.30833435 C57.05322266 0.30639648 57.05322266 0.30639648 59.37564087 2.65586853 C61.23099088 5.58726484 62.04152936 8.05455619 62.80322266 11.43139648 C63.04556641 12.46522461 63.28791016 13.49905273 63.53759766 14.56420898 C64.05322266 17.30639648 64.05322266 17.30639648 64.05322266 20.30639648 C65.23295654 20.26712036 65.23295654 20.26712036 66.43652344 20.22705078 C70.01688482 20.12280172 73.59692646 20.05797898 77.17822266 19.99389648 C78.41572266 19.95200195 79.65322266 19.91010742 80.92822266 19.86694336 C91.20610532 19.72879978 91.20610532 19.72879978 94.79541016 22.63842773 C98.86473286 27.44698726 99.41794042 30.62082454 99.42822266 36.74389648 C99.45271484 37.50766602 99.47720703 38.27143555 99.50244141 39.05834961 C99.52126628 42.66331319 99.40984702 44.73632453 97.46728516 47.84155273 C94.24683874 49.79570711 91.75750453 49.40765802 88.05322266 49.30639648 C87.97539551 50.94874268 87.97539551 50.94874268 87.89599609 52.62426758 C87.35625424 63.43677382 86.47295226 74.17011177 85.30322266 84.93139648 C85.21807404 85.7243512 85.13292542 86.51730591 85.04519653 87.33428955 C84.40046554 93.32719362 83.73297311 99.31736955 83.05322266 105.30639648 C82.95056091 106.21139893 82.84789917 107.11640137 82.74212646 108.04882812 C82.11527425 113.54790522 81.4715459 119.04469038 80.80822754 124.53948975 C80.59842234 126.28524485 80.39174025 128.03137844 80.18835449 129.77789307 C79.90206402 132.22363003 79.60249564 134.66739034 79.29931641 137.11108398 C79.21812057 137.82411682 79.13692474 138.53714966 79.05326843 139.27178955 C78.17324419 146.1314918 76.6285037 152.76528538 70.99072266 157.24389648 C70.29849609 157.80979492 69.60626953 158.37569336 68.89306641 158.95874023 C65.24234726 161.63283387 62.13696857 161.46066641 57.76123047 161.4675293 C57.00979767 161.4724942 56.25836487 161.47745911 55.48416138 161.48257446 C52.99154756 161.49721056 50.49899744 161.50400143 48.00634766 161.50952148 C46.2748006 161.51527294 44.54325356 161.52103068 42.81170654 161.52679443 C39.1767141 161.53730936 35.5417438 161.54314841 31.90673828 161.54663086 C27.25509627 161.55210839 22.60374804 161.57611838 17.95219803 161.60460281 C14.37305863 161.62325544 10.7939895 161.62843625 7.2148056 161.62996674 C5.50043893 161.63298924 3.78607338 161.64100419 2.07175446 161.65415192 C-0.33145752 161.67126313 -2.73395836 161.66931973 -5.13720703 161.6628418 C-5.84185089 161.67205658 -6.54649475 161.68127136 -7.27249146 161.69076538 C-13.28937087 161.64012179 -17.93749865 159.74147387 -22.19677734 155.49389648 C-22.67630859 155.03370117 -23.15583984 154.57350586 -23.64990234 154.09936523 C-27.07770054 149.36033099 -27.45984236 143.44066394 -28.07592773 137.79760742 C-28.22025993 136.54754662 -28.22025993 136.54754662 -28.36750793 135.27223206 C-28.68266257 132.52907754 -28.98861818 129.78498153 -29.29443359 127.04077148 C-29.51283651 125.12267951 -29.73179356 123.20465057 -29.95127869 121.28668213 C-30.52710547 116.24089626 -31.09504121 111.19425177 -31.66143799 106.1473999 C-32.23651869 101.03706264 -32.819697 95.92765009 -33.40185547 90.81811523 C-36.98918877 59.27152484 -36.98918877 59.27152484 -37.94677734 49.30639648 C-38.85427734 49.38889648 -39.76177734 49.47139648 -40.69677734 49.55639648 C-43.94677734 49.30639648 -43.94677734 49.30639648 -46.12255859 47.78686523 C-48.61400583 44.39913719 -48.49843498 41.40860366 -48.38427734 37.36889648 C-48.39136719 36.66571289 -48.39845703 35.9625293 -48.40576172 35.23803711 C-48.35092982 30.73760345 -47.75291482 27.83709463 -44.94677734 24.30639648 C-41.12164119 20.64718511 -38.81987226 19.81591127 -33.55224609 19.91577148 C-32.35019531 19.92866211 -31.14814453 19.94155273 -29.90966797 19.95483398 C-28.66378906 19.98834961 -27.41791016 20.02186523 -26.13427734 20.05639648 C-24.8690625 20.07444336 -23.60384766 20.09249023 -22.30029297 20.11108398 C-19.181684 20.15815733 -16.06461761 20.22390554 -12.94677734 20.30639648 C-12.81980469 19.55946533 -12.69283203 18.81253418 -12.56201172 18.04296875 C-12.30387695 16.56654907 -12.30387695 16.56654907 -12.04052734 15.06030273 C-11.87230469 14.08649658 -11.70408203 13.11269043 -11.53076172 12.109375 C-9.9754499 4.64426839 -8.14390612 0.0785807 0 0 Z M-32.94677734 49.30639648 C-29.94801667 80.06939653 -29.94801667 80.06939653 -26.32177734 110.74389648 C-26.01264507 113.14310641 -25.70511584 115.54251453 -25.39849854 117.94204712 C-25.19976828 119.48875565 -24.99848603 121.03513891 -24.79437256 122.58114624 C-24.29670652 126.38165074 -23.85128224 130.17787651 -23.49462891 133.99438477 C-23.4190274 134.75622574 -23.3434259 135.51806671 -23.26553345 136.30299377 C-23.1261696 137.73136065 -22.99937611 139.16104207 -22.88851929 140.59190369 C-22.40650799 145.39638242 -21.25355737 149.71985183 -17.94677734 153.30639648 C-12.96355895 156.69993255 -9.71849719 157.80956678 -3.57788086 157.83984375 C-2.52760712 157.85276711 -2.52760712 157.85276711 -1.45611572 157.86595154 C0.83774747 157.88848738 3.1303765 157.8818962 5.42431641 157.87280273 C7.0318284 157.87804406 8.63933731 157.8843224 10.24684143 157.8915863 C13.60831217 157.90196776 16.96935899 157.89746216 20.33081055 157.8828125 C24.62263762 157.86563218 28.91312488 157.88912113 33.20480251 157.9243021 C36.52245325 157.94634245 39.8397867 157.94481866 43.15748787 157.93653679 C44.73901908 157.9357208 46.32057442 157.94251634 47.90203667 157.95730782 C58.91710423 158.27913127 58.91710423 158.27913127 68.65881348 153.7562561 C73.4531223 148.77129555 73.81022954 142.69169041 74.54931641 136.13061523 C74.67092636 135.1280217 74.79253632 134.12542816 74.91783142 133.092453 C75.30908015 129.83179618 75.6826466 126.56946311 76.05322266 123.30639648 C76.17932922 122.21764221 76.30543579 121.12888794 76.43536377 120.00714111 C77.22293997 113.20664405 77.98524519 106.40359952 78.7331543 99.59863281 C79.11659518 96.11096029 79.50359001 92.62369566 79.89111328 89.13647461 C80.14457574 86.8454819 80.39783776 84.55446701 80.65087891 82.26342773 C80.76238785 81.25762161 80.87389679 80.25181549 80.98878479 79.2155304 C82.08181482 69.25180535 83.05567352 59.28188781 84.05322266 49.30639648 C45.44322266 49.30639648 6.83322266 49.30639648 -32.94677734 49.30639648 Z " fill="#A1DA77" transform="translate(102.94677734375,46.693603515625)"/>
<path d="M0 0 C38.61 0 77.22 0 117 0 C111.39952907 53.76452092 111.39952907 53.76452092 108.38916016 76.85839844 C108.03358971 79.72883791 107.725939 82.5975973 107.44921875 85.4765625 C107.37018311 86.27070557 107.29114746 87.06484863 107.2097168 87.88305664 C107.02252891 89.82837239 106.85375117 91.77543946 106.6875 93.72265625 C105.49087235 99.42703466 103.78791318 102.81846104 98.86534119 106.0715332 C95.08056431 108.17930332 91.99273559 108.51194177 87.63110352 108.53344727 C86.58082977 108.54637062 86.58082977 108.54637062 85.50933838 108.55955505 C83.21547518 108.5820909 80.92284616 108.57549972 78.62890625 108.56640625 C77.02139426 108.57164758 75.41388535 108.57792592 73.80638123 108.58518982 C70.44491049 108.59557127 67.08386366 108.59106568 63.72241211 108.57641602 C59.43058504 108.5592357 55.14009778 108.58272464 50.84842014 108.61790562 C47.5307694 108.63994597 44.21343596 108.63842217 40.89573479 108.6301403 C39.31420358 108.62932432 37.73264824 108.63611986 36.15118599 108.65091133 C20.88410088 108.77182655 20.88410088 108.77182655 15.39453125 104.44841003 C10.50203004 99.36688329 10.24114821 93.14328694 9.53515625 86.453125 C9.41693512 85.42081253 9.29871399 84.38850006 9.1769104 83.3249054 C8.79482567 79.96770421 8.42857397 76.60898124 8.0625 73.25 C7.80230034 70.93729322 7.54098248 68.62471198 7.27856445 66.31225586 C6.75594121 61.69747991 6.23869578 57.08215158 5.72558594 52.46630859 C5.09374285 46.80399045 4.43564438 41.14526345 3.7578125 35.48828125 C3.66461227 34.70917389 3.57141205 33.93006653 3.47538757 33.12734985 C3.13190247 30.26003108 2.78761256 27.39281094 2.44192505 24.52575684 C2.21316816 22.6228819 1.98739045 20.71964954 1.76171875 18.81640625 C1.63756592 17.77943604 1.51341309 16.74246582 1.38549805 15.67407227 C0.83817006 10.45764485 0.43557875 5.226945 0 0 Z M21 11 C18.53872609 14.69191087 18.73582568 16.55469337 18.70947266 20.96240234 C18.70275543 21.66681961 18.69603821 22.37123688 18.68911743 23.09700012 C18.6701129 25.42671759 18.66621197 27.75614733 18.6640625 30.0859375 C18.65763596 31.7063509 18.6509077 33.32676313 18.64389038 34.94717407 C18.63191127 38.34501841 18.62821017 41.74276103 18.62939453 45.140625 C18.62959769 49.4909279 18.60230231 53.84057727 18.56785011 58.19072533 C18.54559217 61.5382282 18.54155665 64.88557356 18.54261398 68.23314285 C18.54025609 69.83669918 18.53142189 71.44025972 18.51594925 73.04374313 C18.49631179 75.28922772 18.50211716 77.53330038 18.51416016 79.77880859 C18.51131012 81.05549408 18.50846008 82.33217957 18.50552368 83.64755249 C19.08464393 87.57386838 20.23306477 89.21121535 23 92 C25.78733895 93.39366947 28.08771724 93.14266411 31.20629883 93.16113281 C33.16391899 93.17554413 33.16391899 93.17554413 35.16108704 93.19024658 C36.59306667 93.19509481 38.02504832 93.19937358 39.45703125 93.203125 C40.92193097 93.20887694 42.38683067 93.21463467 43.85173035 93.22039795 C46.9259781 93.23090971 50.00019969 93.23675094 53.07446289 93.24023438 C57.00878489 93.24571379 60.94275986 93.26972889 64.87697315 93.29820633 C67.90448506 93.31685668 70.93191388 93.32203962 73.95947838 93.32357025 C75.40952129 93.32659287 76.85956287 93.33460826 78.30954933 93.34775543 C80.34146881 93.36486099 82.37353139 93.36108435 84.40551758 93.35644531 C85.56086502 93.36009094 86.71621246 93.36373657 87.90657043 93.36749268 C91.40460591 92.9519337 93.2333963 92.16008029 96 90 C98.49956221 86.61009887 98.25935366 83.21779616 98.2746582 79.10766602 C98.2823246 78.08008179 98.2823246 78.08008179 98.29014587 77.03173828 C98.30401972 74.7723715 98.30308683 72.51331051 98.30078125 70.25390625 C98.30466938 68.67976264 98.3090043 67.10562009 98.31376648 65.53147888 C98.32122391 62.23376055 98.32094088 58.9361493 98.31567383 55.63842773 C98.30987958 51.41716791 98.32681111 47.19634692 98.3500185 42.97515965 C98.36476639 39.72459867 98.36562612 36.47414312 98.36250877 33.22355461 C98.36302145 31.66746082 98.36824915 30.11136104 98.37832069 28.55529976 C98.39068876 26.37715446 98.38389211 24.19986068 98.37231445 22.02172852 C98.37294388 20.78358902 98.3735733 19.54544952 98.3742218 18.26979065 C97.95952941 14.64638521 97.30393607 12.81502677 95 10 C91.27611109 7.89957375 87.96846874 7.74319705 83.74438477 7.7253418 C82.5028212 7.71580978 81.26125763 7.70627777 79.98207092 7.69645691 C78.63518241 7.69671836 77.28829388 7.69765551 75.94140625 7.69921875 C74.55044935 7.69532821 73.15949363 7.6909928 71.76853943 7.68623352 C68.85761661 7.67878572 65.94681511 7.67905212 63.03588867 7.68432617 C59.31582147 7.69011972 55.59625233 7.67318615 51.87626743 7.6499815 C49.00482812 7.63521033 46.13350785 7.63437701 43.26203728 7.63749123 C41.89098054 7.63697974 40.51991684 7.63177443 39.14889717 7.62167931 C37.22764042 7.60926758 35.30628255 7.61807114 33.38500977 7.62768555 C32.29422623 7.62705612 31.20344269 7.6264267 30.0796051 7.6257782 C26.47302922 8.06403547 24.09178409 9.11241378 21 11 Z " fill="#F8FCFC" transform="translate(70,96)"/>
<path d="M0 0 C1.07314453 0.00322266 2.14628906 0.00644531 3.25195312 0.00976562 C4.37150391 0.01814453 5.49105469 0.02652344 6.64453125 0.03515625 C8.34125977 0.04192383 8.34125977 0.04192383 10.07226562 0.04882812 C12.86724052 0.06062127 15.66210945 0.07707975 18.45703125 0.09765625 C18.78703125 1.08765625 19.11703125 2.07765625 19.45703125 3.09765625 C20.67390625 2.87078125 21.89078125 2.64390625 23.14453125 2.41015625 C26.27619842 2.01661931 27.33617533 2.0451102 30.33203125 3.34765625 C33.22237787 5.7279417 34.37583587 7.34284673 34.77929688 11.09350586 C34.8544584 14.36587276 34.91935997 17.63628264 34.9375 20.90942383 C34.9566894 22.99795039 35.01861352 25.08233915 35.08203125 27.16992188 C35.22344018 36.3676681 33.42717021 43.18985032 28.45703125 51.09765625 C29.07578125 51.36578125 29.69453125 51.63390625 30.33203125 51.91015625 C32.45703125 53.09765625 32.45703125 53.09765625 34.45703125 56.09765625 C34.92500708 60.30943868 34.9226892 62.38364739 32.58203125 65.97265625 C29.25403573 69.30065177 27.08671668 69.232373 22.4296875 69.328125 C20.45703125 69.09765625 20.45703125 69.09765625 17.45703125 67.09765625 C19.95703125 68.47265625 19.95703125 68.47265625 22.45703125 70.09765625 C22.45703125 70.75765625 22.45703125 71.41765625 22.45703125 72.09765625 C18.18621211 72.1266306 13.91541816 72.14444621 9.64453125 72.16015625 C7.82211914 72.17272461 7.82211914 72.17272461 5.96289062 72.18554688 C4.21782227 72.19038086 4.21782227 72.19038086 2.4375 72.1953125 C1.36395264 72.20054932 0.29040527 72.20578613 -0.81567383 72.21118164 C-3.54296875 72.09765625 -3.54296875 72.09765625 -6.54296875 71.09765625 C-6.54296875 70.43765625 -6.54296875 69.77765625 -6.54296875 69.09765625 C-7.20296875 69.09765625 -7.86296875 69.09765625 -8.54296875 69.09765625 C-8.54296875 46.65765625 -8.54296875 24.21765625 -8.54296875 1.09765625 C-5.42453625 0.05817875 -3.26821289 -0.01729213 0 0 Z " fill="#A2DB7C" transform="translate(103.54296875,110.90234375)"/>
<path d="M0 0 C0.99 0.66 1.98 1.32 3 2 C3 2.99 3 3.98 3 5 C2.360625 5.28875 1.72125 5.5775 1.0625 5.875 C-1.15206079 6.82823451 -1.15206079 6.82823451 -2 9 C-2.33 13.95 -2.66 18.9 -3 24 C42.21 24 87.42 24 134 24 C133.67 18.39 133.34 12.78 133 7 C131.35 6.34 129.7 5.68 128 5 C127.67 4.67 127.34 4.34 127 4 C125.36743242 3.84285346 123.72864662 3.74914586 122.08984375 3.68359375 C121.10048828 3.64169922 120.11113281 3.59980469 119.09179688 3.55664062 C118.05087891 3.51732422 117.00996094 3.47800781 115.9375 3.4375 C114.37032227 3.37272461 114.37032227 3.37272461 112.77148438 3.30664062 C110.18113116 3.20018775 107.59067814 3.0981724 105 3 C105 2.67 105 2.34 105 2 C105.71655762 1.97494385 106.43311523 1.9498877 107.17138672 1.92407227 C110.40611514 1.80830249 113.64053841 1.68549031 116.875 1.5625 C118.00292969 1.52318359 119.13085938 1.48386719 120.29296875 1.44335938 C121.90751953 1.38051758 121.90751953 1.38051758 123.5546875 1.31640625 C125.04718018 1.26141968 125.04718018 1.26141968 126.56982422 1.20532227 C129.00779501 1.15040468 129.00779501 1.15040468 131 0 C136.75 4.625 136.75 4.625 139 8 C139.24811058 10.85904164 139.37019957 13.57884378 139.375 16.4375 C139.39949219 17.20126953 139.42398438 17.96503906 139.44921875 18.75195312 C139.46804363 22.35691671 139.35662437 24.42992804 137.4140625 27.53515625 C134.19361609 29.48931063 131.70428188 29.10126153 128 29 C127.92217285 30.64234619 127.92217285 30.64234619 127.84277344 32.31787109 C127.30303159 43.13037734 126.4197296 53.86371529 125.25 64.625 C125.16485138 65.41795471 125.07970276 66.21090942 124.99197388 67.02789307 C124.34724288 73.02079714 123.67975045 79.01097306 123 85 C122.89733826 85.90500244 122.79467651 86.81000488 122.68890381 87.74243164 C122.06205159 93.24150874 121.41832324 98.7382939 120.75500488 104.23309326 C120.54519968 105.97884837 120.33851759 107.72498196 120.13513184 109.47149658 C119.84884136 111.91723354 119.54927298 114.36099386 119.24609375 116.8046875 C119.16489792 117.51772034 119.08370209 118.23075317 119.00004578 118.96539307 C118.12002153 125.82509531 116.57528104 132.45888889 110.9375 136.9375 C110.24527344 137.50339844 109.55304688 138.06929687 108.83984375 138.65234375 C105.18912461 141.32643739 102.08374591 141.15426993 97.70800781 141.16113281 C96.95657501 141.16609772 96.20514221 141.17106262 95.43093872 141.17617798 C92.9383249 141.19081408 90.44577478 141.19760494 87.953125 141.203125 C86.22157794 141.20887646 84.4900309 141.21463419 82.75848389 141.22039795 C79.12349144 141.23091287 75.48852114 141.23675192 71.85351562 141.24023438 C67.20187361 141.24571191 62.55052539 141.26972189 57.89897537 141.29820633 C54.31983597 141.31685896 50.74076685 141.32203976 47.16158295 141.32357025 C45.44721627 141.32659275 43.73285072 141.33460771 42.0185318 141.34775543 C39.61531983 141.36486665 37.21281898 141.36292324 34.80957031 141.35644531 C34.10492645 141.3656601 33.40028259 141.37487488 32.67428589 141.3843689 C26.65740647 141.33372531 22.0092787 139.43507738 17.75 135.1875 C17.27046875 134.72730469 16.7909375 134.26710937 16.296875 133.79296875 C12.86907681 129.0539345 12.48693499 123.13426746 11.87084961 117.49121094 C11.72651741 116.24115013 11.72651741 116.24115013 11.57926941 114.96583557 C11.26411478 112.22268106 10.95815916 109.47858504 10.65234375 106.734375 C10.43394083 104.81628303 10.21498378 102.89825408 9.99549866 100.98028564 C9.41967187 95.93449978 8.85173613 90.88785528 8.28533936 85.84100342 C7.71025865 80.73066616 7.12708035 75.6212536 6.54492188 70.51171875 C2.95758857 38.96512835 2.95758857 38.96512835 2 29 C1.0925 29.0825 0.185 29.165 -0.75 29.25 C-4 29 -4 29 -6.17578125 27.48046875 C-8.66722849 24.0927407 -8.55165763 21.10220717 -8.4375 17.0625 C-8.44458984 16.35931641 -8.45167969 15.65613281 -8.45898438 14.93164062 C-8.40433047 10.44581606 -7.73217604 7.56483921 -5 4 C-2.3125 1.6875 -2.3125 1.6875 0 0 Z M7 29 C9.99876067 59.76300005 9.99876067 59.76300005 13.625 90.4375 C13.93413227 92.83670993 14.24166151 95.23611805 14.54827881 97.63565063 C14.74700907 99.18235916 14.94829132 100.72874242 15.15240479 102.27474976 C15.65007083 106.07525425 16.0954951 109.87148003 16.45214844 113.68798828 C16.52774994 114.44982925 16.60335144 115.21167023 16.6812439 115.99659729 C16.82060775 117.42496416 16.94740123 118.85464558 17.05825806 120.2855072 C17.54026935 125.08998593 18.69321997 129.41345534 22 133 C26.98321839 136.39353606 30.22828015 137.5031703 36.36889648 137.53344727 C37.41917023 137.54637062 37.41917023 137.54637062 38.49066162 137.55955505 C40.78452482 137.5820909 43.07715384 137.57549972 45.37109375 137.56640625 C46.97860574 137.57164758 48.58611465 137.57792592 50.19361877 137.58518982 C53.55508951 137.59557127 56.91613634 137.59106568 60.27758789 137.57641602 C64.56941496 137.5592357 68.85990222 137.58272464 73.15157986 137.61790562 C76.4692306 137.63994597 79.78656404 137.63842217 83.10426521 137.6301403 C84.68579642 137.62932432 86.26735176 137.63611986 87.84881401 137.65091133 C98.86388157 137.97273479 98.86388157 137.97273479 108.60559082 133.44985962 C113.39989964 128.46489906 113.75700689 122.38529393 114.49609375 115.82421875 C114.6177037 114.82162521 114.73931366 113.81903168 114.86460876 112.78605652 C115.2558575 109.5253997 115.62942394 106.26306663 116 103 C116.12610657 101.91124573 116.25221313 100.82249146 116.38214111 99.70074463 C117.16971732 92.90024757 117.93202253 86.09720304 118.67993164 79.29223633 C119.06337252 75.8045638 119.45036736 72.31729918 119.83789062 68.83007812 C120.09135308 66.53908542 120.3446151 64.24807053 120.59765625 61.95703125 C120.70916519 60.95122513 120.82067413 59.94541901 120.93556213 58.90913391 C122.02859217 48.94540887 123.00245087 38.97549133 124 29 C85.39 29 46.78 29 7 29 Z " fill="#254E51" transform="translate(63,67)"/>
<path d="M0 0 C1.24824554 -0.0159874 2.49649109 -0.03197479 3.78256226 -0.04844666 C5.15142409 -0.0548232 6.52029081 -0.06021599 7.88916016 -0.06469727 C9.28919575 -0.07366149 10.68923034 -0.0827833 12.08926392 -0.09205627 C15.02649261 -0.10855914 17.96360715 -0.11624859 20.90087891 -0.11914062 C24.66297235 -0.12452331 28.42399139 -0.16219063 32.18578148 -0.20788479 C35.07860213 -0.23764481 37.97116387 -0.24486393 40.8641243 -0.24586678 C42.25082949 -0.25007198 43.63753524 -0.26251869 45.02408981 -0.28338432 C46.96509512 -0.31026578 48.90648759 -0.30237284 50.84765625 -0.29296875 C52.50406631 -0.30057472 52.50406631 -0.30057472 54.19393921 -0.30833435 C57.05322266 0.30639648 57.05322266 0.30639648 59.37564087 2.65586853 C61.23099088 5.58726484 62.04152936 8.05455619 62.80322266 11.43139648 C63.04556641 12.46522461 63.28791016 13.49905273 63.53759766 14.56420898 C64.05322266 17.30639648 64.05322266 17.30639648 64.05322266 20.30639648 C72.63322266 20.30639648 81.21322266 20.30639648 90.05322266 20.30639648 C89.05322266 21.30639648 88.05322266 22.30639648 87.05322266 23.30639648 C87.05322266 23.63639648 87.05322266 23.96639648 87.05322266 24.30639648 C71.06784848 24.37643698 55.08252398 24.42936025 39.0970335 24.461833 C31.67490705 24.47731055 24.25287586 24.49841689 16.83081055 24.53271484 C10.36272027 24.56259019 3.89469898 24.58196503 -2.57345837 24.58866197 C-5.99922199 24.59257744 -9.42478823 24.60179742 -12.85048866 24.62358665 C-16.6720923 24.64769751 -20.49350176 24.64836768 -24.31518555 24.64697266 C-25.45454056 24.65775848 -26.59389557 24.66854431 -27.76777649 24.67965698 C-29.3263739 24.67347099 -29.3263739 24.67347099 -30.91645813 24.66716003 C-32.27287651 24.6713081 -32.27287651 24.6713081 -33.65669727 24.67553997 C-36.38600484 24.23559635 -37.28189662 23.46886776 -38.94677734 21.30639648 C-38.94677734 20.97639648 -38.94677734 20.64639648 -38.94677734 20.30639648 C-30.36677734 20.30639648 -21.78677734 20.30639648 -12.94677734 20.30639648 C-12.28677734 16.67639648 -11.62677734 13.04639648 -10.94677734 9.30639648 C-8.42279617 2.47061414 -7.40411005 0.0714424 0 0 Z " fill="#1F4744" transform="translate(102.94677734375,46.693603515625)"/>
<path d="M0 0 C1.24171463 -0.00960754 2.48342926 -0.01921509 3.76277161 -0.02911377 C5.1200848 -0.03396225 6.47740013 -0.03824096 7.8347168 -0.04199219 C9.2285309 -0.04774682 10.62234498 -0.05350452 12.01615906 -0.05926514 C14.9389991 -0.06976681 17.86181172 -0.07561471 20.78466797 -0.07910156 C24.52045326 -0.08458015 28.25587296 -0.10859765 31.99154377 -0.13707352 C34.87154684 -0.15574705 37.75146274 -0.16090802 40.63152122 -0.16243744 C42.0081704 -0.16545462 43.38481838 -0.17345151 44.76140785 -0.18662262 C46.69242704 -0.20377747 48.62359767 -0.19994447 50.5546875 -0.1953125 C51.65150345 -0.19895813 52.7483194 -0.20260376 53.87837219 -0.20635986 C57.52308188 0.22667495 59.87687697 1.19834676 62.97143555 3.16113281 C65.52851517 6.47370148 65.2368149 9.96591474 65.26196289 14.03759766 C65.26868011 14.72104752 65.27539734 15.40449738 65.28231812 16.10865784 C65.30128233 18.36320306 65.30522148 20.61745034 65.30737305 22.87207031 C65.31380219 24.44381837 65.32053064 26.01556523 65.32754517 27.58731079 C65.33951404 30.88082656 65.34322641 34.17423746 65.34204102 37.46777344 C65.34183787 41.68007452 65.36913642 45.89170059 65.40358543 50.10384178 C65.42586586 53.35015935 65.42987821 56.59631477 65.42882156 59.84270096 C65.43117594 61.39519196 65.43999035 62.94768754 65.4554863 64.500103 C65.47517033 66.67583701 65.46930048 68.85011955 65.45727539 71.02587891 C65.46012543 72.26179779 65.46297546 73.49771667 65.46591187 74.77108765 C64.87277081 78.83756141 63.57025285 81.00883746 60.97143555 84.16113281 C57.65540384 85.26647671 55.14518574 85.30824837 51.65161133 85.33813477 C50.34660675 85.35097 49.04160217 85.36380524 47.697052 85.37702942 C46.27028788 85.38519635 44.84351946 85.39264017 43.41674805 85.39941406 C42.33801233 85.40552735 42.33801233 85.40552735 41.23748398 85.41176414 C37.43216999 85.43260465 33.62689187 85.44691597 29.8215332 85.45629883 C25.89498357 85.46736897 21.96899974 85.5017808 18.04265022 85.54147053 C15.01942908 85.56763208 11.99634302 85.57599012 8.97301865 85.57958031 C7.52574714 85.58444625 6.07848166 85.59606063 4.63132095 85.6146183 C2.60436942 85.63899872 0.57714194 85.63562602 -1.44995117 85.63110352 C-3.17844803 85.63990288 -3.17844803 85.63990288 -4.94186401 85.64888 C-8.68967532 85.0566669 -10.33766908 83.78234623 -13.02856445 81.16113281 C-14.49745465 78.22335241 -14.18841125 75.59227669 -14.22143555 72.31225586 C-14.22961304 71.60798462 -14.23779053 70.90371338 -14.24621582 70.17810059 C-14.27106632 67.84302624 -14.28758499 65.50801268 -14.30200195 63.17285156 C-14.30732563 62.37554941 -14.31264931 61.57824726 -14.31813431 60.75678444 C-14.34486465 56.53651516 -14.36423971 52.31627545 -14.37866211 48.09594727 C-14.3953083 43.73769059 -14.44008524 39.38019036 -14.49103355 35.02221966 C-14.52469661 31.67044714 -14.53623843 28.31885438 -14.54188919 24.96692848 C-14.54860455 23.36054517 -14.56383423 21.75417381 -14.58778 20.14795494 C-14.61941657 17.89740827 -14.61947198 15.64890419 -14.61206055 13.39819336 C-14.6201474 12.11849167 -14.62823425 10.83878998 -14.63656616 9.52030945 C-13.86686987 5.26777895 -12.36613862 3.81779482 -9.02856445 1.16113281 C-5.78932461 0.0813862 -3.40810922 0.02126276 0 0 Z M-9.02856445 7.16113281 C-9.48327127 10.21917832 -9.48327127 10.21917832 -9.40087891 13.87402344 C-9.40452957 14.56360641 -9.40818024 15.25318939 -9.41194153 15.96366882 C-9.42006325 18.24848885 -9.40642427 20.53260323 -9.3918457 22.81738281 C-9.39132729 24.40157063 -9.39184427 25.98575911 -9.39335632 27.56994629 C-9.39326653 30.89226874 -9.3828224 34.2143489 -9.36474609 37.53662109 C-9.34205852 41.80076522 -9.34151398 46.06455512 -9.34826374 50.32874298 C-9.35160112 53.60063846 -9.34497803 56.87245279 -9.33513451 60.14433289 C-9.33127821 61.71684851 -9.33013606 63.28937315 -9.33172035 64.8618927 C-9.33209015 67.05751828 -9.3194953 69.25268532 -9.30322266 71.44824219 C-9.29861526 72.69907593 -9.29400787 73.94990967 -9.28926086 75.23864746 C-9.33246556 78.2848871 -9.33246556 78.2848871 -7.02856445 80.16113281 C-4.20961698 80.46869794 -4.20961698 80.46869794 -0.86645508 80.41992188 C0.42828735 80.4262262 1.72302979 80.43253052 3.05700684 80.43902588 C4.47640112 80.43544621 5.89579416 80.43134427 7.31518555 80.42675781 C8.76485255 80.42810451 10.21451912 80.43004507 11.66418457 80.43255615 C14.7039825 80.43550723 17.74366298 80.43121038 20.78344727 80.421875 C24.68437803 80.41048037 28.58503362 80.41703994 32.48595428 80.42901993 C35.47989992 80.43623903 38.47378007 80.43395039 41.46772766 80.42876434 C42.90627576 80.42742798 44.34482976 80.42907511 45.78337097 80.43372345 C47.79202159 80.43878921 49.80069298 80.42970225 51.80932617 80.41992188 C52.95357056 80.41833069 54.09781494 80.4167395 55.2767334 80.4151001 C58.1217793 80.43588141 58.1217793 80.43588141 59.97143555 78.16113281 C60.28646121 75.09841918 60.28646121 75.09841918 60.24609375 71.44824219 C60.25376015 70.41386772 60.25376015 70.41386772 60.26158142 69.3585968 C60.27550792 67.07393776 60.27451859 64.78957931 60.2722168 62.50488281 C60.27610172 60.92069384 60.28043597 59.33650591 60.28520203 57.75231934 C60.29267056 54.43006007 60.29236817 51.10790706 60.28710938 47.78564453 C60.28131022 43.52143541 60.29825311 39.25766001 60.32145405 34.99352264 C60.33616155 31.72163334 60.33706725 28.44984924 60.33394432 25.17793274 C60.33445892 23.60540405 60.33972256 22.03286969 60.34975624 20.46037292 C60.36204779 18.26463338 60.35537421 16.06974856 60.34375 13.87402344 C60.34437943 12.6231897 60.34500885 11.37235596 60.34565735 10.08361816 C60.22216415 9.119198 60.09867096 8.15477783 59.97143555 7.16113281 C56.46321097 4.82231643 55.04443233 4.90832674 50.89526367 4.90234375 C49.64386597 4.89603943 48.39246826 4.88973511 47.10314941 4.88323975 C45.7363267 4.88681954 44.36950526 4.89092151 43.00268555 4.89550781 C41.60168388 4.89416053 40.20068268 4.89221947 38.79968262 4.88970947 C35.86421251 4.88676118 32.92886416 4.8910463 29.9934082 4.90039062 C26.2304846 4.9117851 22.4678463 4.90522404 18.70493317 4.8932457 C15.81217295 4.88601909 12.91948039 4.88831869 10.02671814 4.89350128 C8.63923611 4.89483556 7.25174793 4.89319779 5.86427307 4.88854218 C3.92538571 4.88346411 1.98647683 4.89257607 0.04760742 4.90234375 C-1.60760925 4.90473053 -1.60760925 4.90473053 -3.29626465 4.90716553 C-6.24637537 4.96305902 -6.24637537 4.96305902 -9.02856445 7.16113281 Z " fill="#2A5550" transform="translate(103.028564453125,103.8388671875)"/>
<path d="M0 0 C20.13 0 40.26 0 61 0 C64 12 64 12 64 15 C41.89 15 19.78 15 -3 15 C-2 8 -2 8 0 0 Z " fill="#FBAE6D" transform="translate(98,52)"/>
<path d="M0 0 C4.0240603 2.1238096 6.54738566 4.14589176 9 8 C9.56952982 10.87119834 9.5601287 13.64375284 9.5 16.5625 C9.52320313 17.69461914 9.52320313 17.69461914 9.546875 18.84960938 C9.52269364 22.28033997 9.25024252 24.60316933 7.40625 27.52734375 C4.19078365 29.49525092 1.70620676 29.10183965 -2 29 C-2.05188477 30.09489746 -2.10376953 31.18979492 -2.15722656 32.31787109 C-2.69696841 43.13037734 -3.5802704 53.86371529 -4.75 64.625 C-4.83514862 65.41795471 -4.92029724 66.21090942 -5.00802612 67.02789307 C-5.65275712 73.02079714 -6.32024955 79.01097306 -7 85 C-7.15399261 86.35750366 -7.15399261 86.35750366 -7.31109619 87.74243164 C-7.93794841 93.24150874 -8.58167676 98.7382939 -9.24499512 104.23309326 C-9.45480032 105.97884837 -9.66148241 107.72498196 -9.86486816 109.47149658 C-10.15115864 111.91723354 -10.45072702 114.36099386 -10.75390625 116.8046875 C-10.83510208 117.51772034 -10.91629791 118.23075317 -10.99995422 118.96539307 C-11.87157274 125.75957351 -13.4181075 132.43511648 -18.9375 136.9375 C-19.60652344 137.50339844 -20.27554688 138.06929687 -20.96484375 138.65234375 C-24.1234223 140.74391688 -25.98640972 141.1741589 -29.74575806 140.5282135 C-32.94572262 140.00881005 -35.95011017 139.84250892 -39.18896484 139.79467773 C-40.38975677 139.77473251 -41.59054871 139.75478729 -42.82772827 139.73423767 C-44.10918732 139.71752518 -45.39064636 139.70081268 -46.7109375 139.68359375 C-48.04758304 139.66299691 -49.38422246 139.64199976 -50.72085571 139.62062073 C-54.22242247 139.56568174 -57.72404525 139.51614944 -61.22570801 139.46777344 C-64.80547005 139.41735139 -68.38515172 139.36177389 -71.96484375 139.30664062 C-78.97649271 139.1994042 -85.98821441 139.09788402 -93 139 C-93 138.67 -93 138.34 -93 138 C-71.55 138 -50.1 138 -28 138 C-28 137.34 -28 136.68 -28 136 C-26.3603125 135.195625 -26.3603125 135.195625 -24.6875 134.375 C-20.75113674 132.44395387 -19.66967246 129.99977476 -18 126 C-17.27932171 122.63480138 -16.88913144 119.24998843 -16.50390625 115.83203125 C-16.32149132 114.3287603 -16.32149132 114.3287603 -16.13539124 112.79512024 C-15.7438173 109.53147089 -15.37020571 106.26613793 -15 103 C-14.87389343 101.90653259 -14.74778687 100.81306519 -14.61785889 99.6864624 C-13.69673846 91.68980176 -12.81341292 83.68921884 -11.9375 75.6875 C-11.67924764 73.34307569 -11.42078471 70.99867456 -11.16210938 68.65429688 C-11.03575104 67.50792755 -10.9093927 66.36155823 -10.77920532 65.18045044 C-10.53080615 62.92707627 -10.28225426 60.67371892 -10.03353882 58.42037964 C-9.48179733 53.41353359 -8.93515612 48.4063379 -8.40673828 43.39697266 C-8.31662979 42.55423294 -8.2265213 41.71149323 -8.13368225 40.84321594 C-7.96905937 39.30138862 -7.80742123 37.75923836 -7.6493988 36.21672058 C-7.11244677 31.22489354 -7.11244677 31.22489354 -6 29 C-44.61 29 -83.22 29 -123 29 C-123 28.67 -123 28.34 -123 28 C-85.05 28 -47.1 28 -8 28 C-7.505 26.515 -7.505 26.515 -7 25 C-3.7 24.67 -0.4 24.34 3 24 C3 18.39 3 12.78 3 7 C1.35 6.34 -0.3 5.68 -2 5 C-2.495 4.505 -2.495 4.505 -3 4 C-4.63256758 3.84285346 -6.27135338 3.74914586 -7.91015625 3.68359375 C-8.89951172 3.64169922 -9.88886719 3.59980469 -10.90820312 3.55664062 C-11.94912109 3.51732422 -12.99003906 3.47800781 -14.0625 3.4375 C-15.62967773 3.37272461 -15.62967773 3.37272461 -17.22851562 3.30664062 C-19.81886884 3.20018775 -22.40932186 3.0981724 -25 3 C-25 2.67 -25 2.34 -25 2 C-24.27820557 1.97494385 -23.55641113 1.9498877 -22.81274414 1.92407227 C-19.562465 1.80848698 -16.31250312 1.68559226 -13.0625 1.5625 C-11.92619141 1.52318359 -10.78988281 1.48386719 -9.61914062 1.44335938 C-7.99975586 1.38051758 -7.99975586 1.38051758 -6.34765625 1.31640625 C-5.34742432 1.27974854 -4.34719238 1.24309082 -3.31665039 1.20532227 C-1.03930812 1.25328159 -1.03930812 1.25328159 0 0 Z " fill="#31575B" transform="translate(193,67)"/>
<path d="M0 0 C3.92285028 3.93564317 4.50428538 6.60891782 4.49609375 12.09375 C4.49754898 12.76289429 4.49900421 13.43203857 4.50050354 14.12145996 C4.49885048 15.53007379 4.48735552 16.93870679 4.46655273 18.34716797 C4.43758164 20.4939505 4.44595651 22.63826189 4.45898438 24.78515625 C4.40629723 36.38749198 4.40629723 36.38749198 1 41 C-1.6740203 43.10101595 -3.04284685 42.99846976 -6.5 42.875 C-10.29736911 41.92565772 -11.61471502 41.02747709 -14 38 C-16.19062416 33.61875169 -15.26832802 27.74668656 -15.29516602 22.87915039 C-15.31235449 20.70589761 -15.35623807 18.53417654 -15.40039062 16.36132812 C-15.41052026 14.9739695 -15.41903552 13.58659796 -15.42578125 12.19921875 C-15.44036377 10.93940186 -15.45494629 9.67958496 -15.4699707 8.3815918 C-14.9171494 4.40386301 -13.84672369 2.78304147 -11 0 C-7.25347994 -1.24884002 -3.71101175 -1.35334402 0 0 Z " fill="#204845" transform="translate(134,114)"/>
<path d="M0 0 C8.11052242 -0.06963245 16.22091911 -0.12287815 24.33166695 -0.15543652 C28.09817214 -0.17106606 31.86447221 -0.19225424 35.63085938 -0.22631836 C39.26835002 -0.25900935 42.90564385 -0.2768734 46.54327011 -0.28463173 C47.92830374 -0.29015785 49.31332709 -0.30094905 50.69827652 -0.31719017 C52.64395821 -0.33909128 54.58983961 -0.34022648 56.53564453 -0.34057617 C57.64150909 -0.34723801 58.74737366 -0.35389984 59.88674927 -0.36076355 C63.54640506 0.06331743 65.8954599 1.02759805 69 3 C71.55707963 6.31256866 71.26537935 9.80478193 71.29052734 13.87646484 C71.29724457 14.5599147 71.30396179 15.24336456 71.31088257 15.94752502 C71.32984679 18.20207025 71.33378594 20.45631752 71.3359375 22.7109375 C71.34236665 24.28268556 71.3490951 25.85443242 71.35610962 27.42617798 C71.3680785 30.71969374 71.37179086 34.01310465 71.37060547 37.30664062 C71.37040232 41.51894171 71.39770088 45.73056778 71.43214989 49.94270897 C71.45443032 53.18902653 71.45844267 56.43518196 71.45738602 59.68156815 C71.45974039 61.23405915 71.46855481 62.78655473 71.48405075 64.33897018 C71.50373478 66.51470419 71.49786493 68.68898674 71.48583984 70.86474609 C71.48868988 72.10066498 71.49153992 73.33658386 71.49447632 74.60995483 C70.90993655 78.61745961 69.44992343 80.82315827 67 84 C65.515 83.505 65.515 83.505 64 83 C64.495 81.515 64.495 81.515 65 80 C65.66 80 66.32 80 67 80 C66.67 79.34 66.34 78.68 66 78 C65.89955284 75.76941935 65.86438041 73.535811 65.8581543 71.30297852 C65.85467987 70.61500183 65.85120544 69.92702515 65.84762573 69.21820068 C65.84026811 67.72258375 65.83492276 66.22695588 65.83133507 64.73132515 C65.8241776 62.3653028 65.8085175 59.9994888 65.78999329 57.63352966 C65.73748333 50.90602441 65.68952272 44.17863361 65.67407227 37.45092773 C65.66400553 33.3376005 65.63471681 29.22479752 65.59275246 25.11167717 C65.58042012 23.54281512 65.57532528 21.97387911 65.57755089 20.40497017 C65.57989713 18.21154706 65.55779359 16.01963523 65.5300293 13.82641602 C65.52416306 12.57780289 65.51829681 11.32918976 65.51225281 10.04273987 C65.27193187 6.96530157 65.27193187 6.96530157 63.30506897 5.10037231 C60.55757329 3.78879847 58.6313337 3.60316979 55.58886719 3.56762695 C54.50804871 3.54783279 53.42723022 3.52803864 52.31365967 3.50764465 C50.57285126 3.49805977 50.57285126 3.49805977 48.796875 3.48828125 C47.60394836 3.47033005 46.41102173 3.45237885 45.1819458 3.43388367 C41.37133317 3.37969629 37.56084641 3.3458569 33.75 3.3125 C31.16664912 3.27933449 28.58331487 3.24484555 26 3.20898438 C19.66677953 3.12396478 13.33354294 3.05565042 7 3 C7 2.67 7 2.34 7 2 C4.69 1.67 2.38 1.34 0 1 C0 0.67 0 0.34 0 0 Z " fill="#2F575D" transform="translate(97,104)"/>
<path d="M0 0 C1.25139771 -0.00630432 2.50279541 -0.01260864 3.79211426 -0.019104 C5.15893698 -0.01552421 6.52575841 -0.01142224 7.89257812 -0.00683594 C9.29357979 -0.00818322 10.69458099 -0.01012428 12.09558105 -0.01263428 C15.03105116 -0.01558257 17.96639952 -0.01129745 20.90185547 -0.00195312 C24.66477907 0.00944135 28.42741737 0.00288029 32.19033051 -0.00909805 C35.08309072 -0.01632466 37.97578328 -0.01402506 40.86854553 -0.00884247 C42.25602756 -0.00750819 43.64351574 -0.00914596 45.0309906 -0.01380157 C46.96987796 -0.01887964 48.90878685 -0.00976768 50.84765625 0 C51.95113403 0.00159119 53.05461182 0.00318237 54.19152832 0.00482178 C56.92382812 0.25878906 56.92382812 0.25878906 59.92382812 2.25878906 C60.29804993 5.18127441 60.29804993 5.18127441 60.29614258 8.97167969 C60.29979324 9.66126266 60.30344391 10.35084564 60.3072052 11.06132507 C60.31532692 13.3461451 60.30168794 15.63025948 60.28710938 17.91503906 C60.28659096 19.49922688 60.28710794 21.08341536 60.28862 22.66760254 C60.2885302 25.98992499 60.27808607 29.31200515 60.26000977 32.63427734 C60.2373222 36.89842147 60.23677765 41.16221137 60.24352741 45.42639923 C60.24686479 48.69829471 60.2402417 51.97010904 60.23039818 55.24198914 C60.22654188 56.81450476 60.22539974 58.3870294 60.22698402 59.95954895 C60.22735383 62.15517453 60.21475898 64.35034157 60.19848633 66.54589844 C60.19157524 68.42214905 60.19157524 68.42214905 60.18452454 70.33630371 C59.92382812 73.25878906 59.92382812 73.25878906 57.92382812 75.25878906 C55.22912598 75.51275635 55.22912598 75.51275635 51.76171875 75.51757812 C50.46697632 75.52388245 49.17223389 75.53018677 47.83825684 75.53668213 C46.41886256 75.53310246 44.99946951 75.52900052 43.58007812 75.52441406 C42.13041112 75.52576076 40.68074456 75.52770132 39.2310791 75.5302124 C36.19128117 75.53316348 33.1516007 75.52886663 30.11181641 75.51953125 C26.21088564 75.50813662 22.31023005 75.51469619 18.40930939 75.52667618 C15.41536375 75.53389528 12.4214836 75.53160664 9.42753601 75.52642059 C7.98898791 75.52508423 6.55043391 75.52673136 5.1118927 75.5313797 C3.10324209 75.53644546 1.09457069 75.5273585 -0.9140625 75.51757812 C-2.63042908 75.51519135 -2.63042908 75.51519135 -4.38146973 75.51275635 C-7.07617188 75.25878906 -7.07617188 75.25878906 -9.07617188 73.25878906 C-9.33686829 70.33630371 -9.33686829 70.33630371 -9.35083008 66.54589844 C-9.35594101 65.85631546 -9.36105194 65.16673248 -9.36631775 64.45625305 C-9.38024424 62.17159401 -9.37925492 59.88723556 -9.37695312 57.60253906 C-9.38083805 56.01835009 -9.38517229 54.43416216 -9.38993835 52.84997559 C-9.39740689 49.52771632 -9.3971045 46.20556331 -9.3918457 42.88330078 C-9.38604655 38.61909166 -9.40298944 34.35531626 -9.42619038 30.09117889 C-9.44089788 26.81928959 -9.44180358 23.54750549 -9.43868065 20.27558899 C-9.43919525 18.7030603 -9.44445889 17.13052594 -9.45449257 15.55802917 C-9.46678411 13.36228963 -9.46011054 11.16740481 -9.44848633 8.97167969 C-9.44911575 7.72084595 -9.44974518 6.47001221 -9.45039368 5.18127441 C-9.32690048 4.21685425 -9.20340729 3.25243408 -9.07617188 2.25878906 C-5.5679473 -0.08002732 -4.14916866 0.00598299 0 0 Z M-8.07617188 3.25878906 C-8.07617188 25.69878906 -8.07617188 48.13878906 -8.07617188 71.25878906 C-7.41617188 71.25878906 -6.75617188 71.25878906 -6.07617188 71.25878906 C-6.07617188 71.91878906 -6.07617188 72.57878906 -6.07617188 73.25878906 C-2.8386551 74.33796132 -0.49865416 74.37304507 2.90429688 74.35644531 C4.64936523 74.35161133 4.64936523 74.35161133 6.4296875 74.34667969 C8.25209961 74.33411133 8.25209961 74.33411133 10.11132812 74.32128906 C11.95114258 74.31452148 11.95114258 74.31452148 13.828125 74.30761719 C16.86007481 74.29581972 19.89192718 74.27935827 22.92382812 74.25878906 C22.92382812 73.59878906 22.92382812 72.93878906 22.92382812 72.25878906 C20.46056101 70.61412167 20.46056101 70.61412167 17.92382812 69.25878906 C21.60880608 71.71544103 24.64354599 71.95965397 28.92382812 71.25878906 C31.73386273 69.46514995 33.4332328 68.23997971 34.92382812 65.25878906 C35.46289844 60.66240624 35.46289844 60.66240624 33.80664062 56.46582031 C32.57848885 55.00522173 31.25645711 53.62473378 29.92382812 52.25878906 C32.36132812 52.88378906 32.36132812 52.88378906 34.92382812 54.25878906 C35.67382812 56.88378906 35.67382812 56.88378906 35.92382812 60.25878906 C36.10490898 61.71793336 36.29251068 63.17628189 36.48632812 64.63378906 C36.63070312 65.83003906 36.77507812 67.02628906 36.92382812 68.25878906 C34.94382812 68.75378906 34.94382812 68.75378906 32.92382812 69.25878906 C32.59382813 70.90878906 32.26382813 72.55878906 31.92382812 74.25878906 C36.04869651 74.34555814 40.17333197 74.39910201 44.29882812 74.44628906 C46.06226563 74.48399414 46.06226563 74.48399414 47.86132812 74.52246094 C48.9828125 74.53212891 50.10429687 74.54179687 51.25976562 74.55175781 C52.29665527 74.56746826 53.33354492 74.58317871 54.40185547 74.59936523 C55.23410645 74.4869751 56.06635742 74.37458496 56.92382812 74.25878906 C59.34002443 70.6344946 59.16681746 68.98740544 59.15087891 64.67602539 C59.15117096 64.01234451 59.15146301 63.34866364 59.15176392 62.66487122 C59.15037169 60.47338745 59.13481591 58.28224461 59.11914062 56.09082031 C59.1154101 54.5705331 59.11256332 53.05024348 59.11056519 51.529953 C59.10293178 47.53009392 59.08328587 43.53038027 59.06115723 39.53057861 C59.04069246 35.44846565 59.03156212 31.36632917 59.02148438 27.28417969 C59.00003965 19.27564944 58.96590729 11.26723734 58.92382812 3.25878906 C56.20981519 1.90178259 54.07536496 2.14640296 51.04101562 2.16113281 C49.29111328 2.1659668 49.29111328 2.1659668 47.50585938 2.17089844 C46.28253906 2.17927734 45.05921875 2.18765625 43.79882812 2.19628906 C42.56777344 2.20080078 41.33671875 2.2053125 40.06835938 2.20996094 C37.02013421 2.22177576 33.97200499 2.23824879 30.92382812 2.25878906 C32.29366315 5.41994682 32.91289192 6.25149826 35.92382812 8.25878906 C36.29614258 11.34399414 36.29614258 11.34399414 36.28710938 15.27832031 C36.28785713 16.32169807 36.28785713 16.32169807 36.28862 17.38615417 C36.28627784 18.85976004 36.27654087 20.33336977 36.26000977 21.80688477 C36.23652683 24.05228913 36.23943349 26.29649713 36.24609375 28.54199219 C36.19938156 40.53612393 36.19938156 40.53612393 33.92382812 45.25878906 C34.08391357 44.7430835 34.24399902 44.22737793 34.40893555 43.69604492 C35.49238227 38.56752492 35.18983694 33.21452939 35.21899414 27.98706055 C35.2305366 26.54490363 35.25102451 25.10279018 35.28051758 23.66088867 C35.32325682 21.56953113 35.33936705 19.47943563 35.34960938 17.38769531 C35.36419189 16.14060791 35.37877441 14.89352051 35.39379883 13.60864258 C34.84146096 9.67169301 33.7065806 8.04186496 30.92382812 5.25878906 C27.21281637 3.90544505 23.67034818 4.00994904 19.92382812 5.25878906 C19.59382813 4.26878906 19.26382813 3.27878906 18.92382812 2.25878906 C14.98634354 2.2298009 11.04888634 2.21199442 7.11132812 2.19628906 C5.99177734 2.18791016 4.87222656 2.17953125 3.71875 2.17089844 C2.64560547 2.16767578 1.57246094 2.16445312 0.46679688 2.16113281 C-0.52296143 2.155896 -1.51271973 2.15065918 -2.5324707 2.14526367 C-5.20009922 2.14808947 -5.20009922 2.14808947 -8.07617188 3.25878906 Z " fill="#9FD593" transform="translate(103.076171875,108.7412109375)"/>
<path d="M0 0 C1.04729279 -0.00571014 2.09458557 -0.01142029 3.1736145 -0.01730347 C4.32741104 -0.01842133 5.48120758 -0.01953918 6.66996765 -0.02069092 C7.88142456 -0.02565582 9.09288147 -0.03062073 10.34104919 -0.03573608 C13.66968884 -0.04785806 16.99826554 -0.05530649 20.32691979 -0.05974674 C22.40643794 -0.06267677 24.48595056 -0.06678147 26.56546593 -0.07125092 C33.071479 -0.08492848 39.57747947 -0.0945935 46.08350593 -0.09845281 C53.59415243 -0.10293243 61.10461684 -0.12047464 68.61520797 -0.1494534 C74.41995311 -0.17107284 80.22464703 -0.18115725 86.029432 -0.18249393 C89.49657352 -0.1835419 92.96354394 -0.18944773 96.43064308 -0.20731354 C100.29954013 -0.22686139 104.16820988 -0.22250418 108.03715515 -0.21600342 C109.184879 -0.2252182 110.33260284 -0.23443298 111.5151062 -0.243927 C112.57085846 -0.23835785 113.62661072 -0.2327887 114.71435547 -0.22705078 C115.62894185 -0.22851734 116.54352823 -0.2299839 117.48582935 -0.2314949 C120.60814794 0.22181697 122.49974574 1.30934307 125.0476532 3.14044189 C127.58624423 8.21762397 126.0476532 14.46397977 126.0476532 20.14044189 C80.8376532 20.14044189 35.6276532 20.14044189 -10.9523468 20.14044189 C-10.9523468 5.14044189 -10.9523468 5.14044189 -6.9523468 1.14044189 C-4.46187987 -0.10479157 -2.78720173 0.00907651 0 0 Z M-8.9523468 4.14044189 C-10.39699545 9.23185221 -10.39699545 9.23185221 -9.9523468 19.14044189 C34.5976532 19.14044189 79.1476532 19.14044189 125.0476532 19.14044189 C125.0476532 15.18044189 125.0476532 11.22044189 125.0476532 7.14044189 C124.0576532 6.48044189 123.0676532 5.82044189 122.0476532 5.14044189 C121.7176532 4.15044189 121.3876532 3.16044189 121.0476532 2.14044189 C104.68838576 2.09373211 88.32913993 2.05845808 71.96982193 2.03681755 C64.37399823 2.02650265 56.77821594 2.01243823 49.18241882 1.98956299 C42.56233211 1.96963565 35.9422754 1.95672701 29.32215953 1.9522649 C25.81648848 1.94965641 22.31090326 1.94352088 18.8052597 1.92898178 C14.89287704 1.91288723 10.98057853 1.91246179 7.06816101 1.91339111 C5.32244308 1.90260529 5.32244308 1.90260529 3.54145813 1.89160156 C1.94293503 1.89572556 1.94293503 1.89572556 0.31211853 1.89993286 C-1.0761017 1.89716748 -1.0761017 1.89716748 -2.49236679 1.89434624 C-5.17242916 2.16245887 -6.7569793 2.57640699 -8.9523468 4.14044189 Z " fill="#9AD195" transform="translate(70.95234680175781,70.85955810546875)"/>
<path d="M0 0 C2.75329021 1.79562405 4.52627461 3.05254922 6 6 C6.39447548 10.18144011 6.45035186 12.30946048 4.125 15.875 C1.22628658 18.77371342 0.37180992 18.95733329 -3.8125 19.4375 C-7.5201344 19.38347254 -7.95596336 19.03761463 -11 16.4375 C-13.31814592 12.45318669 -13.74130123 10.53017418 -13 6 C-9.30920537 0.34078157 -6.6962915 -0.56748233 0 0 Z " fill="#39554A" transform="translate(132,161)"/>
<path d="M0 0 C2.5 0.25 2.5 0.25 4.5 2.25 C4.75878906 5.19921875 4.75878906 5.19921875 4.765625 8.9375 C4.76753845 9.59580811 4.7694519 10.25411621 4.77142334 10.93237305 C4.7727845 12.3243854 4.76909283 13.71641047 4.76074219 15.10839844 C4.750041 17.24182589 4.76063906 19.37441131 4.7734375 21.5078125 C4.77211589 22.85937686 4.76955347 24.2109407 4.765625 25.5625 C4.76336914 26.79613281 4.76111328 28.02976563 4.75878906 29.30078125 C4.5 32.25 4.5 32.25 2.5 34.25 C-3.06818182 33.68181818 -3.06818182 33.68181818 -4.5 32.25 C-4.71809756 27.99251574 -4.68579161 23.72954276 -4.68530273 19.46704102 C-4.68748743 17.32483 -4.70563512 15.18313529 -4.72460938 13.04101562 C-4.72754359 11.6848976 -4.7295282 10.32877712 -4.73046875 8.97265625 C-4.73457764 7.73265869 -4.73868652 6.49266113 -4.74291992 5.21508789 C-4.43571099 1.46528636 -3.81438638 0.38143864 0 0 Z " fill="#F0B378" transform="translate(128.5,117.75)"/>
<path d="M0 0 C3.38721604 1.12907201 4.51444325 2.51444325 7 5 C10.61297016 7.38253045 13.89848598 7.27481192 18.15527344 7.31884766 C18.86786819 7.32889328 19.58046295 7.3389389 20.31465149 7.34928894 C22.66288469 7.38010465 25.01100395 7.39715135 27.359375 7.4140625 C28.99034606 7.43277547 30.62130745 7.45234898 32.2522583 7.4727478 C36.53967589 7.52406147 40.82712487 7.56369124 45.11468506 7.60089111 C49.49190022 7.64093558 53.86898491 7.6920259 58.24609375 7.7421875 C66.83064002 7.83893772 75.41525089 7.92334534 84 8 C84 8.33 84 8.66 84 9 C82.35 9.33 80.7 9.66 79 10 C81.97 10.495 81.97 10.495 85 11 C85 11.33 85 11.66 85 12 C75.19450078 12.06958022 65.38906052 12.12285201 55.58336449 12.15543652 C51.02993408 12.17107726 46.47667288 12.1922864 41.92333984 12.22631836 C37.52724169 12.25896866 33.13130605 12.27686499 28.73509598 12.28463173 C27.0597948 12.29016507 25.38450228 12.30097039 23.70927048 12.31719017 C21.35855801 12.33904018 19.0085129 12.34196382 16.65771484 12.34057617 C15.62408813 12.35675491 15.62408813 12.35675491 14.56958008 12.3732605 C8.45000238 12.33429775 4.63785866 10.45983054 0.125 6.4375 C-2 4 -2 4 -2 2 C-1.34 2 -0.68 2 0 2 C0 1.34 0 0.68 0 0 Z " fill="#1C414B" transform="translate(81,196)"/>
<path d="M0 0 C2.87776129 5.22260383 3.61178782 10.09649751 4 16 C2.68 16.33 1.36 16.66 0 17 C-0.50692692 15.4188708 -1.00526443 13.83498617 -1.5 12.25 C-1.7784375 11.36828125 -2.056875 10.4865625 -2.34375 9.578125 C-3 7 -3 7 -3 3 C-22.8 3 -42.6 3 -63 3 C-62.01 2.34 -61.02 1.68 -60 1 C-60.66 0.34 -61.32 -0.32 -62 -1 C-54.50706695 -1.17715157 -47.01395658 -1.34309386 -39.52046585 -1.49477577 C-36.04083763 -1.56556111 -32.56138073 -1.64018807 -29.08203125 -1.72363281 C-25.08091688 -1.81942179 -21.07962341 -1.89843157 -17.078125 -1.9765625 C-15.83009094 -2.00875885 -14.58205688 -2.0409552 -13.29620361 -2.0741272 C-12.13530212 -2.09429901 -10.97440063 -2.11447083 -9.77832031 -2.13525391 C-8.24609833 -2.16856308 -8.24609833 -2.16856308 -6.68292236 -2.20254517 C-3.8772669 -1.99073436 -2.31833975 -1.57223492 0 0 Z " fill="#3C5754" transform="translate(162,49)"/>
<path d="M0 0 C1.47726563 0.05414063 1.47726563 0.05414063 2.984375 0.109375 C3.73203125 0.15578125 4.4796875 0.2021875 5.25 0.25 C5.25 0.58 5.25 0.91 5.25 1.25 C5.9073262 1.25808685 6.5646524 1.26617371 7.24189758 1.27450562 C14.07121433 1.36043124 20.90023679 1.45992949 27.72924805 1.56738281 C30.27932806 1.60571278 32.82946289 1.64055848 35.37963867 1.671875 C39.04105243 1.71743799 42.7020875 1.77544738 46.36328125 1.8359375 C48.07902092 1.85326431 48.07902092 1.85326431 49.829422 1.87094116 C51.42073189 1.9007457 51.42073189 1.9007457 53.04418945 1.93115234 C54.44650566 1.95113785 54.44650566 1.95113785 55.87715149 1.9715271 C58.25 2.25 58.25 2.25 61.25 4.25 C60.45708557 4.25808685 59.66417114 4.26617371 58.847229 4.27450562 C51.37252853 4.35246606 43.89802285 4.43976099 36.42355728 4.53752708 C32.58091081 4.58746005 28.73829143 4.63379023 24.89550781 4.671875 C21.18658312 4.7087659 17.47788671 4.75513596 13.76915741 4.80806351 C12.35463213 4.82658729 10.94005795 4.84170272 9.52545929 4.85334396 C7.54324238 4.87024013 5.56115208 4.90040923 3.57910156 4.93115234 C2.45103088 4.94447601 1.32296021 4.95779968 0.16070557 4.9715271 C-3.05608444 5.10304372 -3.05608444 5.10304372 -6.75 7.25 C-7.08 30.02 -7.41 52.79 -7.75 76.25 C-8.08 76.25 -8.41 76.25 -8.75 76.25 C-8.97337672 66.93184978 -9.17486365 57.61355849 -9.34840012 48.29434586 C-9.42966822 43.96706973 -9.51847604 39.64022225 -9.62451172 35.31347656 C-9.72656115 31.13807005 -9.80880891 26.96270012 -9.87732697 22.78661346 C-9.90695165 21.19326832 -9.94371572 19.60003943 -9.9877243 18.00702667 C-10.04814748 15.77573059 -10.08318677 13.5453702 -10.11230469 11.31347656 C-10.13895203 10.04328674 -10.16559937 8.77309692 -10.1930542 7.4644165 C-9.75 4.25 -9.75 4.25 -7.90216064 1.83294678 C-5.104825 -0.22453599 -3.43286247 -0.16346964 0 0 Z " fill="#19483E" transform="translate(99.75,104.75)"/>
<path d="M0 0 C20.13 0 40.26 0 61 0 C64 12 64 12 64 15 C41.89 15 19.78 15 -3 15 C-2 8 -2 8 0 0 Z M1.22566223 2.52838135 C-0.53993638 5.74756637 -0.53993638 5.74756637 -1 13 C19.46 13 39.92 13 61 13 C61 10.03 61 7.06 61 4 C60.34 4 59.68 4 59 4 C58.505 2.515 58.505 2.515 58 1 C50.22219941 0.89875779 42.44456807 0.82860092 34.66625977 0.78027344 C32.01905975 0.76013152 29.37190437 0.73281645 26.72485352 0.69824219 C22.92453005 0.64983949 19.12479369 0.6270567 15.32421875 0.609375 C14.13664474 0.58872986 12.94907074 0.56808472 11.72550964 0.54681396 C10.62459488 0.54651184 9.52368011 0.54620972 8.3894043 0.54589844 C7.41899704 0.53701599 6.44858978 0.52813354 5.44877625 0.51898193 C2.93214773 0.80377907 2.93214773 0.80377907 1.22566223 2.52838135 Z " fill="#B79D7C" transform="translate(98,52)"/>
<path d="M0 0 C1.14088074 0.00007553 2.28176147 0.00015106 3.45721436 0.00022888 C4.68337463 0.00539017 5.90953491 0.01055145 7.17285156 0.01586914 C8.43236633 0.01728409 9.6918811 0.01869904 10.98956299 0.02015686 C14.33012775 0.02480466 17.67062378 0.03378258 21.01116943 0.04486084 C24.42313037 0.05510941 27.83509841 0.05966185 31.24707031 0.06469727 C37.93589136 0.07572576 44.62467999 0.0924635 51.31347656 0.11352539 C51.31347656 0.77352539 51.31347656 1.43352539 51.31347656 2.11352539 C52.30347656 2.44352539 53.29347656 2.77352539 54.31347656 3.11352539 C32.53347656 3.11352539 10.75347656 3.11352539 -11.68652344 3.11352539 C-8.26475213 -0.30824592 -4.67183855 -0.01033593 0 0 Z " fill="#30525C" transform="translate(106.6865234375,185.886474609375)"/>
<path d="M0 0 C0.99 0.66 1.98 1.32 3 2 C3 2.99 3 3.98 3 5 C2.360625 5.28875 1.72125 5.5775 1.0625 5.875 C-1.15206079 6.82823451 -1.15206079 6.82823451 -2 9 C-2.2322646 11.71262116 -2.41936235 14.40773126 -2.5625 17.125 C-2.60568359 17.87910156 -2.64886719 18.63320312 -2.69335938 19.41015625 C-2.7994832 21.27321888 -2.90025001 23.13658524 -3 25 C-0.69 25 1.62 25 4 25 C2.68 25.33 1.36 25.66 0 26 C0 26.66 0 27.32 0 28 C0.99 28 1.98 28 3 28 C3 29.65 3 31.3 3 33 C2.67 31.68 2.34 30.36 2 29 C1.0925 29.0825 0.185 29.165 -0.75 29.25 C-4 29 -4 29 -6.17578125 27.48046875 C-8.66722849 24.0927407 -8.55165763 21.10220717 -8.4375 17.0625 C-8.44458984 16.35931641 -8.45167969 15.65613281 -8.45898438 14.93164062 C-8.40433047 10.44581606 -7.73217604 7.56483921 -5 4 C-2.3125 1.6875 -2.3125 1.6875 0 0 Z " fill="#265154" transform="translate(63,67)"/>
<path d="M0 0 C0.99 0.495 0.99 0.495 2 1 C4.04691788 1.09669929 6.09704002 1.12796596 8.14624023 1.12939453 C10.08351234 1.13412277 10.08351234 1.13412277 12.05992126 1.13894653 C13.47614577 1.13715651 14.89236997 1.1351055 16.30859375 1.1328125 C17.75586463 1.13348591 19.20313539 1.13445625 20.65040588 1.13571167 C23.68597489 1.13718735 26.72151449 1.13503856 29.75708008 1.13037109 C33.64887303 1.12467896 37.54059694 1.12795035 41.43238735 1.13394356 C44.42206848 1.13755701 47.41173325 1.13640688 50.40141487 1.13381577 C51.83634512 1.1331484 53.27127685 1.13396827 54.70620537 1.13629532 C56.71225837 1.13883406 58.71831657 1.13427871 60.72436523 1.12939453 C61.86638901 1.12859894 63.00841278 1.12780334 64.18504333 1.12698364 C67.08097448 1.12476104 67.08097448 1.12476104 70 0 C69.34 1.98 68.68 3.96 68 6 C66.68 6 65.36 6 64 6 C64 5.34 64 4.68 64 4 C56.67165953 4.10778985 49.34341143 4.22048007 42.01524162 4.33933926 C38.61208036 4.39438466 35.20891027 4.44777398 31.80566406 4.49731445 C27.88858668 4.55440857 23.97164573 4.61882119 20.0546875 4.68359375 C18.23093094 4.70866249 18.23093094 4.70866249 16.37033081 4.73423767 C15.22960114 4.75418289 14.08887146 4.77412811 12.91357422 4.79467773 C11.41466141 4.81799416 11.41466141 4.81799416 9.88546753 4.84178162 C6.86374398 5.0074713 3.97368154 5.44925498 1 6 C1.33 5.34 1.66 4.68 2 4 C1.34 3.67 0.68 3.34 0 3 C0 2.01 0 1.02 0 0 Z " fill="#1F4F3D" transform="translate(94,182)"/>
<path d="M0 0 C2.5625 2.25 2.5625 2.25 4 5 C3.75 7.8125 3.75 7.8125 3 10 C2.34 9.67 1.68 9.34 1 9 C0.67 17.58 0.34 26.16 0 35 C-0.33 35 -0.66 35 -1 35 C-1.02505615 34.12674072 -1.0501123 33.25348145 -1.07592773 32.35375977 C-1.17087709 29.12397448 -1.27012029 25.89435846 -1.37231445 22.66479492 C-1.41571434 21.26510801 -1.45738564 19.86536641 -1.49731445 18.46557617 C-1.55489445 16.45738505 -1.61914 14.44938851 -1.68359375 12.44140625 C-1.72025146 11.23170166 -1.75690918 10.02199707 -1.79467773 8.77563477 C-1.68938266 6.09294544 -1.68938266 6.09294544 -3 5 C-5.5 4.83333333 -5.5 4.83333333 -8 5 C-9.85965075 6.85965075 -9.24087549 9.94889119 -9.31640625 12.44140625 C-9.35830078 13.74658203 -9.40019531 15.05175781 -9.44335938 16.39648438 C-9.48317608 17.7851533 -9.52288825 19.17382522 -9.5625 20.5625 C-9.60567989 21.95509183 -9.649294 23.34767028 -9.69335938 24.74023438 C-9.79985876 28.16004801 -9.90186923 31.57993763 -10 35 C-10.33 35 -10.66 35 -11 35 C-11 23.45 -11 11.9 -11 0 C-7.15485909 -1.28171364 -3.84705406 -1.12785119 0 0 Z " fill="#5E6C53" transform="translate(134,114)"/>
<path d="M0 0 C19.8 0 39.6 0 60 0 C60 0.33 60 0.66 60 1 C41.52 1.33 23.04 1.66 4 2 C22.48 2.33 40.96 2.66 60 3 C60 3.33 60 3.66 60 4 C40.2 4.33 20.4 4.66 0 5 C0 3.35 0 1.7 0 0 Z " fill="#25413E" transform="translate(98,47)"/>
<path d="M0 0 C19.14 0.33 38.28 0.66 58 1 C58.495 1.99 58.495 1.99 59 3 C51.60267133 3.02314716 44.20535045 3.04092723 36.80799294 3.05181217 C33.37328438 3.05703579 29.93860057 3.06412401 26.50390625 3.07543945 C22.55729465 3.08836035 18.61069316 3.09323252 14.6640625 3.09765625 C13.42757965 3.10281754 12.1910968 3.10797882 10.91714478 3.11329651 C9.20559708 3.11340981 9.20559708 3.11340981 7.45947266 3.11352539 C6.451315 3.115746 5.44315735 3.11796661 4.40444946 3.12025452 C2 3 2 3 0 2 C0 1.34 0 0.68 0 0 Z " fill="#E6F7F4" transform="translate(98,44)"/>
<path d="M0 0 C0.66 0.33 1.32 0.66 2 1 C1.34 3.97 0.68 6.94 0 10 C-0.78648926 10.0093457 -1.57297852 10.01869141 -2.38330078 10.02832031 C-5.96449238 10.08217282 -9.54439883 10.16579363 -13.125 10.25 C-14.3625 10.26417969 -15.6 10.27835938 -16.875 10.29296875 C-25.73814458 10.46883813 -25.73814458 10.46883813 -33 15 C-33.33 14.01 -33.66 13.02 -34 12 C-33.34 12 -32.68 12 -32 12 C-32 11.34 -32 10.68 -32 10 C-25.23217925 7.01419673 -18.40903065 6.77208273 -11.125 6.4375 C-9.80628906 6.37272461 -9.80628906 6.37272461 -8.4609375 6.30664062 C-6.30744203 6.20130661 -4.15373936 6.10022351 -2 6 C-2 5.01 -2 4.02 -2 3 C-1.34 3 -0.68 3 0 3 C0 2.01 0 1.02 0 0 Z " fill="#D3E3E5" transform="translate(90,57)"/>
<path d="M0 0 C0.33 0.66 0.66 1.32 1 2 C1.66 2 2.32 2 3 2 C4.17469444 4.34938888 4.20034889 5.95073205 4.31640625 8.5703125 C4.35830078 9.46621094 4.40019531 10.36210937 4.44335938 11.28515625 C4.48267578 12.22230469 4.52199219 13.15945312 4.5625 14.125 C4.60568359 15.06988281 4.64886719 16.01476562 4.69335938 16.98828125 C4.79959072 19.32537092 4.90163176 21.6625683 5 24 C4.01 24 3.02 24 2 24 C1.67 24.66 1.34 25.32 1 26 C-0.35601573 17.70651092 -1.70351196 9.42578277 -1 1 C-0.67 0.67 -0.34 0.34 0 0 Z " fill="#204A4F" transform="translate(70,120)"/>
<path d="M0 0 C20.13 0 40.26 0 61 0 C61 1.32 61 2.64 61 4 C60.34 4 59.68 4 59 4 C58.505 3.01 58.505 3.01 58 2 C39.85 2 21.7 2 3 2 C0.54497573 7.47983238 0.54497573 7.47983238 -1 13 C-1.66 13 -2.32 13 -3 13 C-2.01 8.71 -1.02 4.42 0 0 Z " fill="#E0BB88" transform="translate(98,52)"/>
<path d="M0 0 C1.32 0.99 2.64 1.98 4 3 C3.01 3.495 3.01 3.495 2 4 C1.67 26.77 1.34 49.54 1 73 C0.67 73 0.34 73 0 73 C-0.15358875 63.62972315 -0.30177045 54.25938123 -0.4429636 44.88890934 C-0.50869018 40.53827786 -0.57631063 36.18769267 -0.64819336 31.8371582 C-0.71743764 27.64215862 -0.78179327 23.44711043 -0.84269524 19.25198174 C-0.86685387 17.6479054 -0.89280286 16.04385505 -0.92053413 14.4398365 C-0.95894257 12.20089917 -0.99110248 9.96195574 -1.02172852 7.72290039 C-1.04171402 6.44604874 -1.06169952 5.16919708 -1.08229065 3.85365295 C-1 1 -1 1 0 0 Z " fill="#1D4A53" transform="translate(91,108)"/>
<path d="M0 0 C0.2358396 5.77807024 -0.13216954 10.51324804 -2 16 C-2.99 16 -3.98 16 -5 16 C-5.33 16.99 -5.66 17.98 -6 19 C-6.66 19 -7.32 19 -8 19 C-7.40883026 16.39225124 -6.802778 13.7895666 -6.1875 11.1875 C-6.02185547 10.44951172 -5.85621094 9.71152344 -5.68554688 8.95117188 C-3.53888575 0 -3.53888575 0 0 0 Z " fill="#314C47" transform="translate(98,47)"/>
<path d="M0 0 C2.5 1.1875 2.5 1.1875 5 3 C5.4375 5.5625 5.4375 5.5625 5 8 C3 10 3 10 -0.125 10.125 C-1.548125 10.063125 -1.548125 10.063125 -3 10 C-3.33 7.69 -3.66 5.38 -4 3 C-2.68 2.01 -1.36 1.02 0 0 Z " fill="#E1B686" transform="translate(128,165)"/>
<path d="M0 0 C0.99 0 1.98 0 3 0 C3.35671933 3.83473284 3.29771416 5.55342875 1.125 8.8125 C-1.81196533 11.83584667 -2.55257098 11.96391701 -6.875 12.3125 C-10.17076982 12.29452307 -10.79735774 12.16211381 -13.5 10 C-13.995 9.34 -14.49 8.68 -15 8 C-14.34 6.68 -13.68 5.36 -13 4 C-12.814375 4.9590625 -12.814375 4.9590625 -12.625 5.9375 C-12.315625 6.9584375 -12.315625 6.9584375 -12 8 C-9.04335481 9.4783226 -6.25770263 9.06032783 -3 9 C-2.01 6.03 -1.02 3.06 0 0 Z " fill="#24513F" transform="translate(135,168)"/>
<path d="M0 0 C2.06277466 -0.36076355 2.06277466 -0.36076355 4.63330078 -0.34057617 C6.07456833 -0.34023628 6.07456833 -0.34023628 7.54495239 -0.33988953 C8.58457123 -0.32440567 9.62419006 -0.30892181 10.6953125 -0.29296875 C11.75789276 -0.28872391 12.82047302 -0.28447906 13.91525269 -0.28010559 C17.31875646 -0.26327389 20.72167433 -0.22561303 24.125 -0.1875 C26.42837688 -0.17245899 28.73176302 -0.15876958 31.03515625 -0.14648438 C36.69030505 -0.11335574 42.34511068 -0.06311197 48 0 C48 0.33 48 0.66 48 1 C46.69329346 1.00410889 45.38658691 1.00821777 44.0402832 1.01245117 C39.18506605 1.03424804 34.33065866 1.08854402 29.47583008 1.15258789 C27.37597422 1.17576296 25.2760022 1.19016244 23.17602539 1.19555664 C20.15437475 1.20484963 17.13454983 1.24584846 14.11328125 1.29296875 C13.17664139 1.2890361 12.24000153 1.28510345 11.27497864 1.28105164 C6.64610792 1.38431308 4.66986099 1.4471757 0.99291992 4.48168945 C0.33525635 5.31273193 -0.32240723 6.14377441 -1 7 C-1.99 7.495 -1.99 7.495 -3 8 C-2.45276317 4.62537285 -1.9451 2.91765 0 0 Z " fill="#F1B271" transform="translate(101,53)"/>
<path d="M0 0 C0.33 0 0.66 0 1 0 C1.02505615 0.85231201 1.0501123 1.70462402 1.07592773 2.58276367 C1.17135569 5.76044966 1.27057124 8.93798894 1.37231445 12.11547852 C1.4154884 13.48782776 1.45717501 14.86022467 1.49731445 16.23266602 C1.55544392 18.21122068 1.6194571 20.1895997 1.68359375 22.16796875 C1.72025146 23.35672607 1.75690918 24.5454834 1.79467773 25.77026367 C1.97546411 28.61404847 2.35809408 31.22906805 3 34 C1.68 32.68 0.36 31.36 -1 30 C-1.33 30.66 -1.66 31.32 -2 32 C-3.20029908 29.59940183 -3.11459743 28.10639351 -3.09765625 25.4296875 C-3.09443359 24.53378906 -3.09121094 23.63789063 -3.08789062 22.71484375 C-3.07951172 21.77769531 -3.07113281 20.84054688 -3.0625 19.875 C-3.05798828 18.93011719 -3.05347656 17.98523438 -3.04882812 17.01171875 C-3.03702357 14.67441613 -3.02055759 12.33723939 -3 10 C-2.67 10 -2.34 10 -2 10 C-2 15.28 -2 20.56 -2 26 C-1.34 26 -0.68 26 0 26 C0 17.42 0 8.84 0 0 Z " fill="#224636" transform="translate(122,120)"/>
<path d="M0 0 C4.09924523 -0.32150943 6.34355086 -0.41384837 9.875 1.8125 C12 4 12 4 13 7 C12.01 7.33 11.02 7.66 10 8 C9.01 9.485 9.01 9.485 8 11 C7.814375 10.236875 7.62875 9.47375 7.4375 8.6875 C5.36554378 4.81384272 3.07713462 4.43454737 -1 3 C-0.67 2.01 -0.34 1.02 0 0 Z " fill="#225141" transform="translate(125,161)"/>
<path d="M0 0 C0.804375 0.144375 1.60875 0.28875 2.4375 0.4375 C6.61359481 1.09688339 10.79598059 1.56091353 15 2 C14 5 14 5 12.375 6.25 C8.98601244 7.3202066 6.43619696 6.7497157 3 6 C2.01 5.34 1.02 4.68 0 4 C0 2.68 0 1.36 0 0 Z " fill="#2C5548" transform="translate(121,150)"/>
<path d="M0 0 C1.65 0 3.3 0 5 0 C7.28571429 8.42857143 7.28571429 8.42857143 7 13 C5.68 13.33 4.36 13.66 3 14 C2.49307308 12.4188708 1.99473557 10.83498617 1.5 9.25 C1.2215625 8.36828125 0.943125 7.4865625 0.65625 6.578125 C0 4 0 4 0 0 Z " fill="#364D47" transform="translate(159,52)"/>
<path d="M0 0 C0.83154245 2.32831887 1.12153694 3.6110818 0.375 6 C-1.41648334 8.60579395 -3.3956824 10.22144164 -6 12 C-6.99 12 -7.98 12 -9 12 C-9.33 10.68 -9.66 9.36 -10 8 C-8.63875 7.13375 -8.63875 7.13375 -7.25 6.25 C-4.47977054 4.33214884 -2.28054501 2.45597155 0 0 Z " fill="#2E4F53" transform="translate(176,195)"/>
<path d="M0 0 C0.33 0 0.66 0 1 0 C1.2493357 1.60115576 1.47378648 3.20620159 1.6875 4.8125 C1.81511719 5.70582031 1.94273438 6.59914062 2.07421875 7.51953125 C2 10 2 10 0.51953125 11.82421875 C0.01808594 12.21222656 -0.48335938 12.60023438 -1 13 C-3.29633824 9.55549263 -3.54016485 7.06187717 -4 3 C-3.01 2.67 -2.02 2.34 -1 2 C-0.67 1.34 -0.34 0.68 0 0 Z " fill="#38545D" transform="translate(80,186)"/>
<path d="M0 0 C0.33 0 0.66 0 1 0 C1.33 3.63 1.66 7.26 2 11 C5.3 11.33 8.6 11.66 12 12 C10.68 12.33 9.36 12.66 8 13 C8 13.66 8 14.32 8 15 C8.99 15 9.98 15 11 15 C11 16.65 11 18.3 11 20 C10.67 18.68 10.34 17.36 10 16 C9.0925 16.0825 8.185 16.165 7.25 16.25 C4 16 4 16 1.8125 14.375 C-0.52863177 11.3073101 -0.41570094 9.56112167 -0.25 5.75 C-0.21390625 4.67234375 -0.1778125 3.5946875 -0.140625 2.484375 C-0.09421875 1.66453125 -0.0478125 0.8446875 0 0 Z " fill="#3C5C60" transform="translate(55,80)"/>
<path d="M0 0 C0.33 0 0.66 0 1 0 C0.67 4.95 0.34 9.9 0 15 C-1.32 15 -2.64 15 -4 15 C-4.05422947 13.5629191 -4.09289723 12.12524538 -4.125 10.6875 C-4.14820313 9.88699219 -4.17140625 9.08648437 -4.1953125 8.26171875 C-4 6 -4 6 -2 3 C-1.67 3.66 -1.34 4.32 -1 5 C-0.67 3.35 -0.34 1.7 0 0 Z " fill="#21464B" transform="translate(188,114)"/>
<path d="M0 0 C0.57816112 2.23005002 1.06687027 4.4107745 1.4375 6.6875 C1.7159375 7.8321875 1.7159375 7.8321875 2 9 C2.66 9.33 3.32 9.66 4 10 C4 11.98 4 13.96 4 16 C3.01 16 2.02 16 1 16 C0.67 16.66 0.34 17.32 0 18 C-1.12536783 12.65450281 -2.53466037 5.06932075 0 0 Z " fill="#1E464F" transform="translate(71,128)"/>
<path d="M0 0 C0.66 0.66 1.32 1.32 2 2 C2.99 1.67 3.98 1.34 5 1 C5 2.65 5 4.3 5 6 C4.34 6 3.68 6 3 6 C3 7.98 3 9.96 3 12 C2.01 12 1.02 12 0 12 C-1.53166168 7.91556885 -0.63081652 4.20544343 0 0 Z " fill="#315559" transform="translate(185,108)"/>
<path d="M0 0 C0.66 0.33 1.32 0.66 2 1 C1.34 7.27 0.68 13.54 0 20 C-0.66 19.67 -1.32 19.34 -2 19 C-2.22262303 12.2718373 -1.95021536 6.46008837 0 0 Z " fill="#E3F2F4" transform="translate(178,156)"/>
<path d="M0 0 C0.33 0 0.66 0 1 0 C1.16442049 9.70080863 1.16442049 9.70080863 0 13 C-2.0625 14.3125 -2.0625 14.3125 -4 15 C-3.67 12.36 -3.34 9.72 -3 7 C-2.01 6.67 -1.02 6.34 0 6 C0 4.02 0 2.04 0 0 Z " fill="#1F454B" transform="translate(190,96)"/>
<path d="M0 0 C1 3.875 1 3.875 1 5 C-0.258125 5.04125 -1.51625 5.0825 -2.8125 5.125 C-3.52019531 5.14820313 -4.22789063 5.17140625 -4.95703125 5.1953125 C-7 5 -7 5 -10 3 C-10 2.34 -10 1.68 -10 1 C-9.36191406 1.01160156 -8.72382812 1.02320313 -8.06640625 1.03515625 C-7.24011719 1.04417969 -6.41382812 1.05320313 -5.5625 1.0625 C-4.32693359 1.07990234 -4.32693359 1.07990234 -3.06640625 1.09765625 C-1.00836062 1.23267348 -1.00836062 1.23267348 0 0 Z " fill="#374B53" transform="translate(132,173)"/>
<path d="M0 0 C3.68802044 1.22934015 4.72356973 2.93859378 7 6 C4.1875 6.6875 4.1875 6.6875 1 7 C-0.875 5.6875 -0.875 5.6875 -2 4 C-2 3.34 -2 2.68 -2 2 C-1.34 2 -0.68 2 0 2 C0 1.34 0 0.68 0 0 Z " fill="#2B4F50" transform="translate(81,196)"/>
<path d="M0 0 C0.66 0 1.32 0 2 0 C2.77876573 4.47790294 3.16768356 7.62118666 2 12 C0.68 12 -0.64 12 -2 12 C-1.34 8.04 -0.68 4.08 0 0 Z " fill="#E5EFF3" transform="translate(181,186)"/>
<path d="M0 0 C2 2 2 2 2.1953125 4.1640625 C2.17210937 4.97617188 2.14890625 5.78828125 2.125 6.625 C2.10695312 7.44226563 2.08890625 8.25953125 2.0703125 9.1015625 C2.03550781 10.04128906 2.03550781 10.04128906 2 11 C1.01 11 0.02 11 -1 11 C-2.60725635 7.78548731 -2.05748185 4.56387464 -2 1 C-1.34 1.66 -0.68 2.32 0 3 C0 2.01 0 1.02 0 0 Z " fill="#20444B" transform="translate(181,163)"/>
<path d="M0 0 C0.33 0.66 0.66 1.32 1 2 C-0.98 2.66 -2.96 3.32 -5 4 C-5.66 3.34 -6.32 2.68 -7 2 C-9.65537372 1.43479997 -12.29144713 1.26211802 -15 1 C-15 0.67 -15 0.34 -15 0 C-9.70936543 -0.83536335 -5.30788029 -1.19156496 0 0 Z " fill="#2A515D" transform="translate(165,106)"/>
<path d="M0 0 C2 4 2 4 3 10 C-1.95 10 -6.9 10 -12 10 C-12 9.67 -12 9.34 -12 9 C-8.04 9 -4.08 9 0 9 C0 6.03 0 3.06 0 0 Z " fill="#E4BA8C" transform="translate(159,56)"/>
<path d="M0 0 C0.33 0 0.66 0 1 0 C1.33 4.62 1.66 9.24 2 14 C0.68 13.34 -0.64 12.68 -2 12 C-1 3.42857143 -1 3.42857143 0 0 Z " fill="#2F5B5F" transform="translate(73,124)"/>
<path d="M0 0 C0 0.99 0 1.98 0 3 C-0.66 3 -1.32 3 -2 3 C-2 3.66 -2 4.32 -2 5 C-3.65 4.67 -5.3 4.34 -7 4 C-7 3.01 -7 2.02 -7 1 C-4.53721199 -0.231394 -2.7204945 -0.07159196 0 0 Z " fill="#2E5151" transform="translate(99,105)"/>
<path d="M0 0 C3.3 0 6.6 0 10 0 C10 0.33 10 0.66 10 1 C7.36 1 4.72 1 2 1 C2 2.98 2 4.96 2 7 C1.01 7.495 1.01 7.495 0 8 C-0.66 8.99 -1.32 9.98 -2 11 C-2 8.36 -2 5.72 -2 3 C-1.67 3.66 -1.34 4.32 -1 5 C-0.34 5 0.32 5 1 5 C0.67 3.35 0.34 1.7 0 0 Z " fill="#3E6069" transform="translate(188,95)"/>
<path d="M0 0 C0.66 0.33 1.32 0.66 2 1 C2 1.99 2 2.98 2 4 C1.01 4.66 0.02 5.32 -1 6 C-1.33 6.66 -1.66 7.32 -2 8 C-3.65 8 -5.3 8 -7 8 C-7 7.34 -7 6.68 -7 6 C-5.46875 4.4921875 -5.46875 4.4921875 -3.5 2.875 C-2.8503125 2.33617187 -2.200625 1.79734375 -1.53125 1.2421875 C-1.0259375 0.83226562 -0.520625 0.42234375 0 0 Z " fill="#E0ECF1" transform="translate(177,200)"/>
<path d="M0 0 C1.60903101 2.41354651 1.48053497 4.03173536 1.25 6.875 C0.59 6.215 -0.07 5.555 -0.75 4.875 C-1.41 6.195 -2.07 7.515 -2.75 8.875 C-2.75 6.565 -2.75 4.255 -2.75 1.875 C-3.74 1.875 -4.73 1.875 -5.75 1.875 C-5.75 1.215 -5.75 0.555 -5.75 -0.125 C-2.2560241 -1.4503012 -2.2560241 -1.4503012 0 0 Z " fill="#20414E" transform="translate(68.75,93.125)"/>
<path d="M0 0 C0.33 0 0.66 0 1 0 C0.67 3.63 0.34 7.26 0 11 C-0.99 10.67 -1.98 10.34 -3 10 C-3.33 8.02 -3.66 6.04 -4 4 C-3.01 4 -2.02 4 -1 4 C-0.67 2.68 -0.34 1.36 0 0 Z " fill="#355763" transform="translate(78,168)"/>
<path d="M0 0 C0.99 0.66 1.98 1.32 3 2 C3 2.99 3 3.98 3 5 C1.35 5.66 -0.3 6.32 -2 7 C-2.33 5.35 -2.66 3.7 -3 2 C-2.01 1.34 -1.02 0.68 0 0 Z " fill="#25504A" transform="translate(63,67)"/>
<path d="M0 0 C0.99 0 1.98 0 3 0 C3 2.64 3 5.28 3 8 C2.01 8.495 2.01 8.495 1 9 C0.34 8.67 -0.32 8.34 -1 8 C-1.04241723 5.66705225 -1.04092937 3.33297433 -1 1 C-0.67 0.67 -0.34 0.34 0 0 Z " fill="#1E4450" transform="translate(75,164)"/>
<path d="M0 0 C1.32 0.66 2.64 1.32 4 2 C4 3.98 4 5.96 4 8 C3.01 8 2.02 8 1 8 C0.34 8.66 -0.32 9.32 -1 10 C-0.67 6.7 -0.34 3.4 0 0 Z " fill="#3C5C68" transform="translate(67,96)"/>
<path d="M0 0 C2.64 0 5.28 0 8 0 C8.33 0.99 8.66 1.98 9 3 C8.01 3.33 7.02 3.66 6 4 C5.01 5.485 5.01 5.485 4 7 C3.566875 5.824375 3.566875 5.824375 3.125 4.625 C2.15087746 1.90328368 2.15087746 1.90328368 0 0 Z " fill="#355649" transform="translate(129,165)"/>
<path d="M0 0 C2.475 0.495 2.475 0.495 5 1 C5 2.98 5 4.96 5 7 C4.34 6.67 3.68 6.34 3 6 C2.67 6.99 2.34 7.98 2 9 C0.50178941 5.62902617 0 3.79557881 0 0 Z " fill="#375C66" transform="translate(179,160)"/>
<path d="M0 0 C0 1.98 0 3.96 0 6 C-2.31 6 -4.62 6 -7 6 C-6.01 5.34 -5.02 4.68 -4 4 C-4 3.01 -4 2.02 -4 1 C-1 0 -1 0 0 0 Z " fill="#25515F" transform="translate(167,64)"/>
<path d="M0 0 C0 0.66 0 1.32 0 2 C-1.3921875 2.680625 -1.3921875 2.680625 -2.8125 3.375 C-6.03921389 4.9421633 -6.03921389 4.9421633 -9 7 C-9.33 6.01 -9.66 5.02 -10 4 C-9.34 4 -8.68 4 -8 4 C-8 3.34 -8 2.68 -8 2 C-5.09399739 0.74335022 -3.20395416 0 0 0 Z " fill="#DFF1F3" transform="translate(66,65)"/>
<path d="M0 0 C1.94268841 2.91403262 3.46395304 5.85808576 5 9 C3.35 9.66 1.7 10.32 0 11 C0 7.33333333 0 3.66666667 0 0 Z " fill="#E2EEF2" transform="translate(76,193)"/>
<path d="M0 0 C0.66 1.32 1.32 2.64 2 4 C2.99 4 3.98 4 5 4 C4.67 5.32 4.34 6.64 4 8 C4 7.34 4 6.68 4 6 C0.72226496 6.75150023 0.72226496 6.75150023 -1 10 C-0.67 6.7 -0.34 3.4 0 0 Z " fill="#4E6B70" transform="translate(178,170)"/>
<path d="M0 0 C0.99 0 1.98 0 3 0 C3 1.98 3 3.96 3 6 C2.01 6.495 2.01 6.495 1 7 C1 6.34 1 5.68 1 5 C0.01 5.33 -0.98 5.66 -2 6 C-1.34 4.02 -0.68 2.04 0 0 Z " fill="#204739" transform="translate(135,168)"/>
<path d="M0 0 C2.64 0 5.28 0 8 0 C6.60624928 2.78750144 4.83755139 2.89266287 2 4 C1.34 4.66 0.68 5.32 0 6 C0 4.02 0 2.04 0 0 Z " fill="#384D4F" transform="translate(123,116)"/>
<path d="M0 0 C1.32 0.66 2.64 1.32 4 2 C4 2.99 4 3.98 4 5 C3.34 5 2.68 5 2 5 C1.67 5.66 1.34 6.32 1 7 C0.01 5.35 -0.98 3.7 -2 2 C-1.34 1.34 -0.68 0.68 0 0 Z " fill="#315855" transform="translate(193,67)"/>
<path d="M0 0 C0.99 0.33 1.98 0.66 3 1 C2.79503906 1.53109375 2.59007813 2.0621875 2.37890625 2.609375 C2.10949219 3.31578125 1.84007813 4.0221875 1.5625 4.75 C1.29566406 5.44609375 1.02882813 6.1421875 0.75390625 6.859375 C0.03853307 8.89059003 -0.51365652 10.9035291 -1 13 C-1.66 13 -2.32 13 -3 13 C-2.01 8.71 -1.02 4.42 0 0 Z " fill="#D3B48A" transform="translate(98,52)"/>
<path d="M0 0 C-1.65 1.65 -3.3 3.3 -5 5 C-5.66 4.67 -6.32 4.34 -7 4 C-7 3.01 -7 2.02 -7 1 C-3.375 -1.125 -3.375 -1.125 0 0 Z " fill="#E4F4F5" transform="translate(175,196)"/>
<path d="M0 0 C2 0 2 0 4.625 2.375 C7 5 7 5 7 7 C4.69 6.34 2.38 5.68 0 5 C0 3.35 0 1.7 0 0 Z " fill="#EFF8F5" transform="translate(88,183)"/>
<path d="M0 0 C0.66 1.32 1.32 2.64 2 4 C2.99 4.33 3.98 4.66 5 5 C5 6.65 5 8.3 5 10 C4.67 9.01 4.34 8.02 4 7 C3.34 7 2.68 7 2 7 C1.67 7.66 1.34 8.32 1 9 C0.67 6.03 0.34 3.06 0 0 Z " fill="#4A6B70" transform="translate(183,124)"/>
<path d="M0 0 C0 1.98 0 3.96 0 6 C-0.66 6 -1.32 6 -2 6 C-2.66 6.66 -3.32 7.32 -4 8 C-4 5.69 -4 3.38 -4 1 C-1 0 -1 0 0 0 Z " fill="#1A4551" transform="translate(181,182)"/>
<path d="M0 0 C0.66 0.33 1.32 0.66 2 1 C2 2.65 2 4.3 2 6 C0.68 6.33 -0.64 6.66 -2 7 C-2 5.02 -2 3.04 -2 1 C-1.34 0.67 -0.68 0.34 0 0 Z " fill="#1D434D" transform="translate(182,155)"/>
<path d="M0 0 C1.5625 1.1875 1.5625 1.1875 3 3 C2.6875 5.6875 2.6875 5.6875 2 8 C0 7 0 7 -0.6875 5.125 C-1 3 -1 3 0 0 Z " fill="#2A554C" transform="translate(135,116)"/>
<path d="M0 0 C0.66 0 1.32 0 2 0 C2.33 1.65 2.66 3.3 3 5 C1.02 5.99 1.02 5.99 -1 7 C-1 6.01 -1 5.02 -1 4 C-0.34 3.67 0.32 3.34 1 3 C0.67 2.01 0.34 1.02 0 0 Z " fill="#35575D" transform="translate(163,181)"/>
<path d="M0 0 C1.32 0 2.64 0 4 0 C4.33 0.99 4.66 1.98 5 3 C4.01 3 3.02 3 2 3 C1.67 3.99 1.34 4.98 1 6 C0.34 6 -0.32 6 -1 6 C-0.67 4.02 -0.34 2.04 0 0 Z " fill="#355459" transform="translate(91,60)"/>
<path d="M0 0 C0.93423645 3.01031744 1.04449911 3.86650268 0 7 C-0.99 6.01 -1.98 5.02 -3 4 C-2.67 3.01 -2.34 2.02 -2 1 C-1.34 0.67 -0.68 0.34 0 0 Z " fill="#1D4950" transform="translate(176,195)"/>
<path d="M0 0 C3.3 0.33 6.6 0.66 10 1 C6 3 6 3 2 3 C1.34 2.01 0.68 1.02 0 0 Z " fill="#385C57" transform="translate(90,184)"/>
<path d="M0 0 C0.66 0.33 1.32 0.66 2 1 C2.625 3.0625 2.625 3.0625 3 5 C1.02 5.99 1.02 5.99 -1 7 C-1.04254356 5.00045254 -1.04080783 2.99958364 -1 1 C-0.67 0.67 -0.34 0.34 0 0 Z " fill="#1D4D3C" transform="translate(120,166)"/>
<path d="M0 0 C0.66 0.33 1.32 0.66 2 1 C0.875 2.9375 0.875 2.9375 -1 5 C-4.1875 5.75 -4.1875 5.75 -7 6 C-7 5.34 -7 4.68 -7 4 C-5.824375 3.566875 -5.824375 3.566875 -4.625 3.125 C-1.90328368 2.15087746 -1.90328368 2.15087746 0 0 Z " fill="#E3F5F3" transform="translate(201,92)"/>
</svg>
