<svg id="Layer_1" data-name="Layer 1" xmlns="http://www.w3.org/2000/svg" viewBox="0 0 18 17"><defs><style>.cls-1{fill:#fff;}</style></defs><path class="cls-1" d="M17.76,6.55c-.47-.35-.93-.72-1.41-1.06A.68.68,0,0,1,16,4.84c0-1.4,0-2.81,0-4.21,0-.46-.17-.62-.63-.63H13.82c-1.08,0-1.09,0-1.09,1.09V2.7l-.25-.16L9.61.36A.88.88,0,0,0,8.4.36L2.26,5,.17,6.61c-.16.13-.23.28-.1.45s.29.15.46,0l.29-.21,7.91-6a.38.38,0,0,1,.54,0c1.08.84,2.17,1.67,3.27,2.48a.7.7,0,0,0,.55.12.7.7,0,0,0,.24-.5c0-.69,0-1.38,0-2.07,0-.23.06-.31.29-.31.48,0,1,0,1.44,0,.31,0,.38.1.38.39,0,1.36,0,2.72,0,4.08a1,1,0,0,0,.29.68c.52.46,1.09.88,1.65,1.31.18.14.38.23.54,0S17.94,6.68,17.76,6.55Z"/><path class="cls-1" d="M7.08,7.15c-.54,0-.74.21-.74.75v3.78c0,.54.2.75.74.75H11c.49,0,.7-.21.7-.68,0-1.31,0-2.61,0-3.92,0-.48-.21-.68-.7-.68H7.08Zm3.61.58c.28,0,.38.07.38.36,0,1.14,0,2.29,0,3.43,0,.18,0,.31-.25.31H7.1l-.13,0v-4l.34,0Z"/><rect class="cls-1" x="1.3" y="16.41" width="15.41" height="0.59"/></svg>